<?xml version="1.0" encoding="utf-8"?>
<Project name="Skocia film" themeId="0" version="65540" templateID="SimpleProjectTemplate">
  <MediaItems>
    <MediaItem id="163" filePath="C:\Skocia\DSC02758.JPG" arWidth="3648" arHeight="2056" duration="0" songTitle="" songArtist="" songAlbum="" songCopyrightUrl="" songArtistUrl="" songAudioFileUrl="" stabilizationMode="0" mediaItemType="2" />
    <MediaItem id="164" filePath="C:\Skocia\MAH02819.MP4" arWidth="5760" arHeight="3240" duration="13.44" songTitle="" songArtist="" songAlbum="" songCopyrightUrl="" songArtistUrl="" songAudioFileUrl="" stabilizationMode="0" mediaItemType="1" />
    <MediaItem id="1" filePath="C:\Skocia\DSC02670-2.jpg" arWidth="2054" arHeight="2551" duration="0" songTitle="" songArtist="" songAlbum="" songCopyrightUrl="" songArtistUrl="" songAudioFileUrl="" stabilizationMode="0" mediaItemType="2" />
    <MediaItem id="328" filePath="C:\Skocia\DSC03040.JPG" arWidth="3648" arHeight="2056" duration="0" songTitle="" songArtist="" songAlbum="" songCopyrightUrl="" songArtistUrl="" songAudioFileUrl="" stabilizationMode="0" mediaItemType="2" />
    <MediaItem id="165" filePath="C:\Skocia\DSC02760.JPG" arWidth="2056" arHeight="3648" duration="0" songTitle="" songArtist="" songAlbum="" songCopyrightUrl="" songArtistUrl="" songAudioFileUrl="" stabilizationMode="0" mediaItemType="2" />
    <MediaItem id="2" filePath="C:\Skocia\MAH02598.MP4" arWidth="1920" arHeight="1080" duration="48.600000000000001" songTitle="" songArtist="" songAlbum="" songCopyrightUrl="" songArtistUrl="" songAudioFileUrl="" stabilizationMode="0" mediaItemType="1" />
    <MediaItem id="329" filePath="C:\Skocia\Rosslyn9_2.jpg" arWidth="1045" arHeight="588" duration="0" songTitle="" songArtist="" songAlbum="" songCopyrightUrl="" songArtistUrl="" songAudioFileUrl="" stabilizationMode="0" mediaItemType="2" />
    <MediaItem id="3" filePath="C:\Skocia\MAH02599.MP4" arWidth="1920" arHeight="1080" duration="38.039999999999999" songTitle="" songArtist="" songAlbum="" songCopyrightUrl="" songArtistUrl="" songAudioFileUrl="" stabilizationMode="0" mediaItemType="1" />
    <MediaItem id="330" filePath="C:\Skocia\DSC03144.JPG" arWidth="3648" arHeight="2056" duration="0" songTitle="" songArtist="" songAlbum="" songCopyrightUrl="" songArtistUrl="" songAudioFileUrl="" stabilizationMode="0" mediaItemType="2" />
    <MediaItem id="167" filePath="C:\Skocia\DSC02762.JPG" arWidth="2056" arHeight="3648" duration="0" songTitle="" songArtist="" songAlbum="" songCopyrightUrl="" songArtistUrl="" songAudioFileUrl="" stabilizationMode="0" mediaItemType="2" />
    <MediaItem id="4" filePath="C:\Skocia\MAH02601.MP4" arWidth="1920" arHeight="1080" duration="25.559999999999999" songTitle="" songArtist="" songAlbum="" songCopyrightUrl="" songArtistUrl="" songAudioFileUrl="" stabilizationMode="0" mediaItemType="1" />
    <MediaItem id="331" filePath="C:\Skocia\MAH03145.MP4" arWidth="1920" arHeight="1080" duration="27.48" songTitle="" songArtist="" songAlbum="" songCopyrightUrl="" songArtistUrl="" songAudioFileUrl="" stabilizationMode="0" mediaItemType="1" />
    <MediaItem id="5" filePath="C:\Skocia\MAH02602.MP4" arWidth="1920" arHeight="1080" duration="43.32" songTitle="" songArtist="" songAlbum="" songCopyrightUrl="" songArtistUrl="" songAudioFileUrl="" stabilizationMode="0" mediaItemType="1" />
    <MediaItem id="332" filePath="C:\Skocia\MAH03244.MP4" arWidth="1920" arHeight="1080" duration="56.280000000000001" songTitle="" songArtist="" songAlbum="" songCopyrightUrl="" songArtistUrl="" songAudioFileUrl="" stabilizationMode="0" mediaItemType="1" />
    <MediaItem id="6" filePath="C:\Skocia\DSC02744-2.jpg" arWidth="2629" arHeight="1481" duration="0" songTitle="" songArtist="" songAlbum="" songCopyrightUrl="" songArtistUrl="" songAudioFileUrl="" stabilizationMode="0" mediaItemType="2" />
    <MediaItem id="333" filePath="C:\Skocia\MAH03046.MP4" arWidth="5760" arHeight="3240" duration="25.440000000000001" songTitle="" songArtist="" songAlbum="" songCopyrightUrl="" songArtistUrl="" songAudioFileUrl="" stabilizationMode="0" mediaItemType="1" />
    <MediaItem id="170" filePath="C:\Skocia\DSC02765.JPG" arWidth="2056" arHeight="3648" duration="0" songTitle="" songArtist="" songAlbum="" songCopyrightUrl="" songArtistUrl="" songAudioFileUrl="" stabilizationMode="0" mediaItemType="2" />
    <MediaItem id="7" filePath="C:\Skocia\MAH02610.MP4" arWidth="1920" arHeight="1080" duration="29.399999999999999" songTitle="" songArtist="" songAlbum="" songCopyrightUrl="" songArtistUrl="" songAudioFileUrl="" stabilizationMode="0" mediaItemType="1" />
    <MediaItem id="334" filePath="C:\Skocia\MAH03146.MP4" arWidth="5760" arHeight="3240" duration="78.239999999999995" songTitle="" songArtist="" songAlbum="" songCopyrightUrl="" songArtistUrl="" songAudioFileUrl="" stabilizationMode="0" mediaItemType="1" />
    <MediaItem id="171" filePath="C:\Skocia\DSC02766.JPG" arWidth="2056" arHeight="3648" duration="0" songTitle="" songArtist="" songAlbum="" songCopyrightUrl="" songArtistUrl="" songAudioFileUrl="" stabilizationMode="0" mediaItemType="2" />
    <MediaItem id="8" filePath="C:\Skocia\DSC02750-2.jpg" arWidth="2053" arHeight="3245" duration="0" songTitle="" songArtist="" songAlbum="" songCopyrightUrl="" songArtistUrl="" songAudioFileUrl="" stabilizationMode="0" mediaItemType="2" />
    <MediaItem id="335" filePath="C:\Skocia\Rosslyn10.jpg" arWidth="672" arHeight="542" duration="0" songTitle="" songArtist="" songAlbum="" songCopyrightUrl="" songArtistUrl="" songAudioFileUrl="" stabilizationMode="0" mediaItemType="2" />
    <MediaItem id="9" filePath="C:\Skocia\MAH02617.MP4" arWidth="1920" arHeight="1080" duration="26.039999999999999" songTitle="" songArtist="" songAlbum="" songCopyrightUrl="" songArtistUrl="" songAudioFileUrl="" stabilizationMode="0" mediaItemType="1" />
    <MediaItem id="336" filePath="C:\Skocia\DSC03049.JPG" arWidth="3648" arHeight="2056" duration="0" songTitle="" songArtist="" songAlbum="" songCopyrightUrl="" songArtistUrl="" songAudioFileUrl="" stabilizationMode="0" mediaItemType="2" />
    <MediaItem id="173" filePath="C:\Skocia\DSC02768.JPG" arWidth="3648" arHeight="2056" duration="0" songTitle="" songArtist="" songAlbum="" songCopyrightUrl="" songArtistUrl="" songAudioFileUrl="" stabilizationMode="0" mediaItemType="2" />
    <MediaItem id="10" filePath="C:\Skocia\MAH02618.MP4" arWidth="1920" arHeight="1080" duration="36.600000000000001" songTitle="" songArtist="" songAlbum="" songCopyrightUrl="" songArtistUrl="" songAudioFileUrl="" stabilizationMode="0" mediaItemType="1" />
    <MediaItem id="174" filePath="C:\Skocia\MAH02900.MP4" arWidth="5760" arHeight="3240" duration="41.759999999999998" songTitle="" songArtist="" songAlbum="" songCopyrightUrl="" songArtistUrl="" songAudioFileUrl="" stabilizationMode="0" mediaItemType="1" />
    <MediaItem id="11" filePath="C:\Skocia\MAH02603.MP4" arWidth="1920" arHeight="1080" duration="57.240000000000002" songTitle="" songArtist="" songAlbum="" songCopyrightUrl="" songArtistUrl="" songAudioFileUrl="" stabilizationMode="0" mediaItemType="1" />
    <MediaItem id="12" filePath="C:\Skocia\MAH02624.MP4" arWidth="1920" arHeight="1080" duration="35.640000000000001" songTitle="" songArtist="" songAlbum="" songCopyrightUrl="" songArtistUrl="" songAudioFileUrl="" stabilizationMode="0" mediaItemType="1" />
    <MediaItem id="176" filePath="C:\Skocia\MAH02902.MP4" arWidth="5760" arHeight="3240" duration="42.719999999999999" songTitle="" songArtist="" songAlbum="" songCopyrightUrl="" songArtistUrl="" songAudioFileUrl="" stabilizationMode="0" mediaItemType="1" />
    <MediaItem id="13" filePath="C:\Skocia\MAH02636.MP4" arWidth="1920" arHeight="1080" duration="52.920000000000002" songTitle="" songArtist="" songAlbum="" songCopyrightUrl="" songArtistUrl="" songAudioFileUrl="" stabilizationMode="0" mediaItemType="1" />
    <MediaItem id="177" filePath="C:\Skocia\DSC02772.JPG" arWidth="3648" arHeight="2056" duration="0" songTitle="" songArtist="" songAlbum="" songCopyrightUrl="" songArtistUrl="" songAudioFileUrl="" stabilizationMode="0" mediaItemType="2" />
    <MediaItem id="14" filePath="C:\Skocia\MAH02641.MP4" arWidth="1920" arHeight="1080" duration="17.879999999999999" songTitle="" songArtist="" songAlbum="" songCopyrightUrl="" songArtistUrl="" songAudioFileUrl="" stabilizationMode="0" mediaItemType="1" />
    <MediaItem id="178" filePath="C:\Skocia\DSC02773.JPG" arWidth="3648" arHeight="2056" duration="0" songTitle="" songArtist="" songAlbum="" songCopyrightUrl="" songArtistUrl="" songAudioFileUrl="" stabilizationMode="0" mediaItemType="2" />
    <MediaItem id="15" filePath="C:\Skocia\DSC02612.JPG" arWidth="3648" arHeight="2056" duration="0" songTitle="" songArtist="" songAlbum="" songCopyrightUrl="" songArtistUrl="" songAudioFileUrl="" stabilizationMode="0" mediaItemType="2" />
    <MediaItem id="342" filePath="C:\Skocia\MAH03147.MP4" arWidth="5760" arHeight="3240" duration="59.039999999999999" songTitle="" songArtist="" songAlbum="" songCopyrightUrl="" songArtistUrl="" songAudioFileUrl="" stabilizationMode="0" mediaItemType="1" />
    <MediaItem id="179" filePath="C:\Skocia\MAH02903.MP4" arWidth="5760" arHeight="3240" duration="15.84" songTitle="" songArtist="" songAlbum="" songCopyrightUrl="" songArtistUrl="" songAudioFileUrl="" stabilizationMode="0" mediaItemType="1" />
    <MediaItem id="16" filePath="C:\Skocia\DSC02613.JPG" arWidth="3032" arHeight="1822" duration="0" songTitle="" songArtist="" songAlbum="" songCopyrightUrl="" songArtistUrl="" songAudioFileUrl="" stabilizationMode="0" mediaItemType="2" />
    <MediaItem id="180" filePath="C:\Skocia\DSC02775.JPG" arWidth="3648" arHeight="2056" duration="0" songTitle="" songArtist="" songAlbum="" songCopyrightUrl="" songArtistUrl="" songAudioFileUrl="" stabilizationMode="0" mediaItemType="2" />
    <MediaItem id="17" filePath="C:\Skocia\DSC02614.JPG" arWidth="3648" arHeight="2056" duration="0" songTitle="" songArtist="" songAlbum="" songCopyrightUrl="" songArtistUrl="" songAudioFileUrl="" stabilizationMode="0" mediaItemType="2" />
    <MediaItem id="181" filePath="C:\Skocia\DSC02904.JPG" arWidth="3648" arHeight="2056" duration="0" songTitle="" songArtist="" songAlbum="" songCopyrightUrl="" songArtistUrl="" songAudioFileUrl="" stabilizationMode="0" mediaItemType="2" />
    <MediaItem id="18" filePath="C:\Skocia\DSC02615.JPG" arWidth="1810" arHeight="2967" duration="0" songTitle="" songArtist="" songAlbum="" songCopyrightUrl="" songArtistUrl="" songAudioFileUrl="" stabilizationMode="0" mediaItemType="2" />
    <MediaItem id="345" filePath="C:\Skocia\DSC03058.JPG" arWidth="3648" arHeight="2056" duration="0" songTitle="" songArtist="" songAlbum="" songCopyrightUrl="" songArtistUrl="" songAudioFileUrl="" stabilizationMode="0" mediaItemType="2" />
    <MediaItem id="182" filePath="C:\Skocia\MAH02964.MP4" arWidth="1920" arHeight="1080" duration="47.159999999999997" songTitle="" songArtist="" songAlbum="" songCopyrightUrl="" songArtistUrl="" songAudioFileUrl="" stabilizationMode="0" mediaItemType="1" />
    <MediaItem id="19" filePath="C:\Skocia\MAH03222.MP4" arWidth="1920" arHeight="1080" duration="27" songTitle="" songArtist="" songAlbum="" songCopyrightUrl="" songArtistUrl="" songAudioFileUrl="" stabilizationMode="0" mediaItemType="1" />
    <MediaItem id="346" filePath="C:\Skocia\DSC03059.JPG" arWidth="3648" arHeight="2056" duration="0" songTitle="" songArtist="" songAlbum="" songCopyrightUrl="" songArtistUrl="" songAudioFileUrl="" stabilizationMode="0" mediaItemType="2" />
    <MediaItem id="183" filePath="C:\Skocia\MAH02778.MP4" arWidth="5760" arHeight="3240" duration="31.199999999999999" songTitle="" songArtist="" songAlbum="" songCopyrightUrl="" songArtistUrl="" songAudioFileUrl="" stabilizationMode="0" mediaItemType="1" />
    <MediaItem id="20" filePath="C:\Skocia\DSC02644.JPG" arWidth="1280" arHeight="721" duration="0" songTitle="" songArtist="" songAlbum="" songCopyrightUrl="" songArtistUrl="" songAudioFileUrl="" stabilizationMode="0" mediaItemType="2" />
    <MediaItem id="347" filePath="C:\Skocia\DSC03060.JPG" arWidth="3648" arHeight="2056" duration="0" songTitle="" songArtist="" songAlbum="" songCopyrightUrl="" songArtistUrl="" songAudioFileUrl="" stabilizationMode="0" mediaItemType="2" />
    <MediaItem id="184" filePath="C:\Skocia\DSC02779.JPG" arWidth="3648" arHeight="2056" duration="0" songTitle="" songArtist="" songAlbum="" songCopyrightUrl="" songArtistUrl="" songAudioFileUrl="" stabilizationMode="0" mediaItemType="2" />
    <MediaItem id="21" filePath="C:\Skocia\DSC02646.JPG" arWidth="3648" arHeight="2056" duration="0" songTitle="" songArtist="" songAlbum="" songCopyrightUrl="" songArtistUrl="" songAudioFileUrl="" stabilizationMode="0" mediaItemType="2" />
    <MediaItem id="348" filePath="C:\Skocia\DSC03061.JPG" arWidth="3648" arHeight="2056" duration="0" songTitle="" songArtist="" songAlbum="" songCopyrightUrl="" songArtistUrl="" songAudioFileUrl="" stabilizationMode="0" mediaItemType="2" />
    <MediaItem id="185" filePath="C:\Skocia\DSC02780.JPG" arWidth="3648" arHeight="2056" duration="0" songTitle="" songArtist="" songAlbum="" songCopyrightUrl="" songArtistUrl="" songAudioFileUrl="" stabilizationMode="0" mediaItemType="2" />
    <MediaItem id="22" filePath="C:\Skocia\DSC02647.JPG" arWidth="3648" arHeight="2056" duration="0" songTitle="" songArtist="" songAlbum="" songCopyrightUrl="" songArtistUrl="" songAudioFileUrl="" stabilizationMode="0" mediaItemType="2" />
    <MediaItem id="186" filePath="C:\Skocia\DSC02781.JPG" arWidth="3648" arHeight="2056" duration="0" songTitle="" songArtist="" songAlbum="" songCopyrightUrl="" songArtistUrl="" songAudioFileUrl="" stabilizationMode="0" mediaItemType="2" />
    <MediaItem id="23" filePath="C:\Skocia\MAH03223.MP4" arWidth="1920" arHeight="1080" duration="63" songTitle="" songArtist="" songAlbum="" songCopyrightUrl="" songArtistUrl="" songAudioFileUrl="" stabilizationMode="0" mediaItemType="1" />
    <MediaItem id="24" filePath="C:\Skocia\DSC02649.JPG" arWidth="3648" arHeight="2056" duration="0" songTitle="" songArtist="" songAlbum="" songCopyrightUrl="" songArtistUrl="" songAudioFileUrl="" stabilizationMode="0" mediaItemType="2" />
    <MediaItem id="188" filePath="C:\Skocia\MAH02824.MP4" arWidth="5760" arHeight="3240" duration="17.760000000000002" songTitle="" songArtist="" songAlbum="" songCopyrightUrl="" songArtistUrl="" songAudioFileUrl="" stabilizationMode="0" mediaItemType="1" />
    <MediaItem id="25" filePath="C:\Users\anya\Desktop\Skocia_film\skocia\2018_07_29_1.mp3" arWidth="0" arHeight="0" duration="68.7019375" songTitle="" songArtist="" songAlbum="" songCopyrightUrl="" songArtistUrl="" songAudioFileUrl="" stabilizationMode="0" mediaItemType="3" />
    <MediaItem id="352" filePath="C:\Skocia\DSC03066.JPG" arWidth="3648" arHeight="2056" duration="0" songTitle="" songArtist="" songAlbum="" songCopyrightUrl="" songArtistUrl="" songAudioFileUrl="" stabilizationMode="0" mediaItemType="2" />
    <MediaItem id="26" filePath="C:\Skocia\MAH03227.MP4" arWidth="1920" arHeight="1080" duration="28.440000000000001" songTitle="" songArtist="" songAlbum="" songCopyrightUrl="" songArtistUrl="" songAudioFileUrl="" stabilizationMode="0" mediaItemType="1" />
    <MediaItem id="27" filePath="C:\Skocia\Edinburgh_Stone_of_Destiny.jpg" arWidth="1200" arHeight="834" duration="0" songTitle="" songArtist="" songAlbum="" songCopyrightUrl="" songArtistUrl="" songAudioFileUrl="" stabilizationMode="0" mediaItemType="2" />
    <MediaItem id="191" filePath="C:\Skocia\Edinburgh_Calton_Hill_2.jpg" arWidth="1280" arHeight="720" duration="0" songTitle="" songArtist="" songAlbum="" songCopyrightUrl="" songArtistUrl="" songAudioFileUrl="" stabilizationMode="0" mediaItemType="2" />
    <MediaItem id="28" filePath="C:\Skocia\DSC02654.JPG" arWidth="721" arHeight="1280" duration="0" songTitle="" songArtist="" songAlbum="" songCopyrightUrl="" songArtistUrl="" songAudioFileUrl="" stabilizationMode="0" mediaItemType="2" />
    <MediaItem id="29" filePath="C:\Skocia\DSC02645.JPG" arWidth="1757" arHeight="2883" duration="0" songTitle="" songArtist="" songAlbum="" songCopyrightUrl="" songArtistUrl="" songAudioFileUrl="" stabilizationMode="0" mediaItemType="2" />
    <MediaItem id="193" filePath="C:\Skocia\DSC02829.JPG" arWidth="3266" arHeight="1949" duration="0" songTitle="" songArtist="" songAlbum="" songCopyrightUrl="" songArtistUrl="" songAudioFileUrl="" stabilizationMode="0" mediaItemType="2" />
    <MediaItem id="30" filePath="C:\Skocia\MAH03229.MP4" arWidth="1920" arHeight="1080" duration="66.840000000000003" songTitle="" songArtist="" songAlbum="" songCopyrightUrl="" songArtistUrl="" songAudioFileUrl="" stabilizationMode="0" mediaItemType="1" />
    <MediaItem id="194" filePath="C:\Skocia\DSC03243.JPG" arWidth="3648" arHeight="2056" duration="0" songTitle="" songArtist="" songAlbum="" songCopyrightUrl="" songArtistUrl="" songAudioFileUrl="" stabilizationMode="0" mediaItemType="2" />
    <MediaItem id="31" filePath="C:\Skocia\MAH03230.MP4" arWidth="1920" arHeight="1080" duration="15.960000000000001" songTitle="" songArtist="" songAlbum="" songCopyrightUrl="" songArtistUrl="" songAudioFileUrl="" stabilizationMode="0" mediaItemType="1" />
    <MediaItem id="195" filePath="C:\Skocia\DSC02832.JPG" arWidth="2056" arHeight="3648" duration="0" songTitle="" songArtist="" songAlbum="" songCopyrightUrl="" songArtistUrl="" songAudioFileUrl="" stabilizationMode="0" mediaItemType="2" />
    <MediaItem id="32" filePath="C:\Users\anya\Desktop\Skocia_film\skocia\glencoe.mp3" arWidth="0" arHeight="0" duration="224.00018750000001" songTitle="" songArtist="" songAlbum="" songCopyrightUrl="" songArtistUrl="" songAudioFileUrl="" stabilizationMode="0" mediaItemType="3" />
    <MediaItem id="196" filePath="C:\Skocia\DSC02908.JPG" arWidth="3648" arHeight="2056" duration="0" songTitle="" songArtist="" songAlbum="" songCopyrightUrl="" songArtistUrl="" songAudioFileUrl="" stabilizationMode="0" mediaItemType="2" />
    <MediaItem id="33" filePath="C:\Users\anya\Desktop\Skocia_film\skocia\koron.ko.mp3" arWidth="0" arHeight="0" duration="50.10275" songTitle="" songArtist="" songAlbum="" songCopyrightUrl="" songArtistUrl="" songAudioFileUrl="" stabilizationMode="0" mediaItemType="3" />
    <MediaItem id="360" filePath="C:\Skocia\MAH03075.MP4" arWidth="5760" arHeight="3240" duration="43.68" songTitle="" songArtist="" songAlbum="" songCopyrightUrl="" songArtistUrl="" songAudioFileUrl="" stabilizationMode="0" mediaItemType="1" />
    <MediaItem id="197" filePath="C:\Skocia\DSC02834.JPG" arWidth="3648" arHeight="2056" duration="0" songTitle="" songArtist="" songAlbum="" songCopyrightUrl="" songArtistUrl="" songAudioFileUrl="" stabilizationMode="0" mediaItemType="2" />
    <MediaItem id="34" filePath="C:\Users\anya\Desktop\Skocia_film\skocia\culzean.mp3" arWidth="0" arHeight="0" duration="84.427687500000005" songTitle="" songArtist="" songAlbum="" songCopyrightUrl="" songArtistUrl="" songAudioFileUrl="" stabilizationMode="0" mediaItemType="3" />
    <MediaItem id="35" filePath="C:\Users\anya\Desktop\Skocia_film\skocia\glasgow.mp3" arWidth="0" arHeight="0" duration="73.560749999999999" songTitle="" songArtist="" songAlbum="" songCopyrightUrl="" songArtistUrl="" songAudioFileUrl="" stabilizationMode="0" mediaItemType="3" />
    <MediaItem id="36" filePath="C:\Users\anya\OneDrive\Skocia\Edinburgh_koronazasi ekszerek 2.jpg" arWidth="1280" arHeight="720" duration="0" songTitle="" songArtist="" songAlbum="" songCopyrightUrl="" songArtistUrl="" songAudioFileUrl="" stabilizationMode="0" mediaItemType="2" />
    <MediaItem id="200" filePath="C:\Skocia\MAH02837.MP4" arWidth="5760" arHeight="3240" duration="13.44" songTitle="" songArtist="" songAlbum="" songCopyrightUrl="" songArtistUrl="" songAudioFileUrl="" stabilizationMode="0" mediaItemType="1" />
    <MediaItem id="37" filePath="C:\Skocia\MAH03237.MP4" arWidth="1920" arHeight="1080" duration="27.960000000000001" songTitle="" songArtist="" songAlbum="" songCopyrightUrl="" songArtistUrl="" songAudioFileUrl="" stabilizationMode="0" mediaItemType="1" />
    <MediaItem id="201" filePath="C:\Skocia\DSC02838.JPG" arWidth="2056" arHeight="3648" duration="0" songTitle="" songArtist="" songAlbum="" songCopyrightUrl="" songArtistUrl="" songAudioFileUrl="" stabilizationMode="0" mediaItemType="2" />
    <MediaItem id="38" filePath="C:\Users\anya\OneDrive\Skocia\Edinburgh_koronazasi ekszerek.jpg" arWidth="1280" arHeight="720" duration="0" songTitle="" songArtist="" songAlbum="" songCopyrightUrl="" songArtistUrl="" songAudioFileUrl="" stabilizationMode="0" mediaItemType="2" />
    <MediaItem id="365" filePath="C:\Skocia\MAH03080.MP4" arWidth="1920" arHeight="1080" duration="31.32" songTitle="" songArtist="" songAlbum="" songCopyrightUrl="" songArtistUrl="" songAudioFileUrl="" stabilizationMode="0" mediaItemType="1" />
    <MediaItem id="39" filePath="C:\Users\anya\Desktop\Skocia_film\skocia\skocia szoveg 2.mp3" arWidth="0" arHeight="0" duration="297.29950000000002" songTitle="" songArtist="" songAlbum="" songCopyrightUrl="" songArtistUrl="" songAudioFileUrl="" stabilizationMode="0" mediaItemType="3" />
    <MediaItem id="40" filePath="C:\Skocia\20170727_120950.jpg" arWidth="1280" arHeight="960" duration="0" songTitle="" songArtist="" songAlbum="" songCopyrightUrl="" songArtistUrl="" songAudioFileUrl="" stabilizationMode="0" mediaItemType="2" />
    <MediaItem id="41" filePath="C:\Users\anya\Desktop\Skocia_film\skocia\glaagow2.mp3" arWidth="0" arHeight="0" duration="34.350937500000001" songTitle="" songArtist="" songAlbum="" songCopyrightUrl="" songArtistUrl="" songAudioFileUrl="" stabilizationMode="0" mediaItemType="3" />
    <MediaItem id="368" filePath="C:\Skocia\MAH03083.MP4" arWidth="5760" arHeight="3240" duration="21.120000000000001" songTitle="" songArtist="" songAlbum="" songCopyrightUrl="" songArtistUrl="" songAudioFileUrl="" stabilizationMode="0" mediaItemType="1" />
    <MediaItem id="205" filePath="C:\Skocia\MAH03108.MP4" arWidth="1920" arHeight="1080" duration="17.879999999999999" songTitle="" songArtist="" songAlbum="" songCopyrightUrl="" songArtistUrl="" songAudioFileUrl="" stabilizationMode="0" mediaItemType="1" />
    <MediaItem id="42" filePath="C:\Skocia\DSC02611.JPG" arWidth="721" arHeight="1280" duration="0" songTitle="" songArtist="" songAlbum="" songCopyrightUrl="" songArtistUrl="" songAudioFileUrl="" stabilizationMode="0" mediaItemType="2" />
    <MediaItem id="369" filePath="C:\Skocia\MAH03084.MP4" arWidth="5760" arHeight="3240" duration="43.200000000000003" songTitle="" songArtist="" songAlbum="" songCopyrightUrl="" songArtistUrl="" songAudioFileUrl="" stabilizationMode="0" mediaItemType="1" />
    <MediaItem id="206" filePath="C:\Skocia\MAH03109.MP4" arWidth="1920" arHeight="1080" duration="168.12" songTitle="" songArtist="" songAlbum="" songCopyrightUrl="" songArtistUrl="" songAudioFileUrl="" stabilizationMode="0" mediaItemType="1" />
    <MediaItem id="43" filePath="C:\Users\anya\Desktop\Skocia_film\skocia\3.mp3" arWidth="0" arHeight="0" duration="112.9795" songTitle="" songArtist="" songAlbum="" songCopyrightUrl="" songArtistUrl="" songAudioFileUrl="" stabilizationMode="0" mediaItemType="3" />
    <MediaItem id="370" filePath="C:\Skocia\MAH03085.MP4" arWidth="1920" arHeight="1080" duration="36.600000000000001" songTitle="" songArtist="" songAlbum="" songCopyrightUrl="" songArtistUrl="" songAudioFileUrl="" stabilizationMode="0" mediaItemType="1" />
    <MediaItem id="207" filePath="C:\Skocia\DSC02844.JPG" arWidth="3648" arHeight="2056" duration="0" songTitle="" songArtist="" songAlbum="" songCopyrightUrl="" songArtistUrl="" songAudioFileUrl="" stabilizationMode="0" mediaItemType="2" />
    <MediaItem id="44" filePath="C:\Skocia\DSC02605.JPG" arWidth="1280" arHeight="721" duration="0" songTitle="" songArtist="" songAlbum="" songCopyrightUrl="" songArtistUrl="" songAudioFileUrl="" stabilizationMode="0" mediaItemType="2" />
    <MediaItem id="208" filePath="C:\Skocia\DSC02912.JPG" arWidth="3648" arHeight="2056" duration="0" songTitle="" songArtist="" songAlbum="" songCopyrightUrl="" songArtistUrl="" songAudioFileUrl="" stabilizationMode="0" mediaItemType="2" />
    <MediaItem id="45" filePath="C:\Skocia\Partheon.JPG" arWidth="1280" arHeight="960" duration="0" songTitle="" songArtist="" songAlbum="" songCopyrightUrl="" songArtistUrl="" songAudioFileUrl="" stabilizationMode="0" mediaItemType="2" />
    <MediaItem id="209" filePath="C:\Skocia\DSC02846.JPG" arWidth="2056" arHeight="3648" duration="0" songTitle="" songArtist="" songAlbum="" songCopyrightUrl="" songArtistUrl="" songAudioFileUrl="" stabilizationMode="0" mediaItemType="2" />
    <MediaItem id="46" filePath="C:\Skocia\DSC02609.JPG" arWidth="1280" arHeight="721" duration="0" songTitle="" songArtist="" songAlbum="" songCopyrightUrl="" songArtistUrl="" songAudioFileUrl="" stabilizationMode="0" mediaItemType="2" />
    <MediaItem id="47" filePath="C:\Users\anya\Desktop\Skocia_film\skocia\5.mp3" arWidth="0" arHeight="0" duration="90.488062499999998" songTitle="" songArtist="" songAlbum="" songCopyrightUrl="" songArtistUrl="" songAudioFileUrl="" stabilizationMode="0" mediaItemType="3" />
    <MediaItem id="211" filePath="C:\Skocia\DSC02913.JPG" arWidth="1280" arHeight="721" duration="0" songTitle="" songArtist="" songAlbum="" songCopyrightUrl="" songArtistUrl="" songAudioFileUrl="" stabilizationMode="0" mediaItemType="2" />
    <MediaItem id="48" filePath="C:\Users\anya\OneDrive\Skocia\St Giles 1.png" arWidth="1365" arHeight="2048" duration="0" songTitle="" songArtist="" songAlbum="" songCopyrightUrl="" songArtistUrl="" songAudioFileUrl="" stabilizationMode="0" mediaItemType="2" />
    <MediaItem id="374" filePath="C:\Skocia\DSC03089.JPG" arWidth="3648" arHeight="2056" duration="0" songTitle="" songArtist="" songAlbum="" songCopyrightUrl="" songArtistUrl="" songAudioFileUrl="" stabilizationMode="0" mediaItemType="2" />
    <MediaItem id="49" filePath="C:\Users\anya\OneDrive\Skocia\St_Giles_Cathedral_-_02.jpg" arWidth="1200" arHeight="900" duration="0" songTitle="" songArtist="" songAlbum="" songCopyrightUrl="" songArtistUrl="" songAudioFileUrl="" stabilizationMode="0" mediaItemType="2" />
    <MediaItem id="375" filePath="C:\Skocia\MAH03090.MP4" arWidth="1920" arHeight="1080" duration="23.159999899999999" songTitle="" songArtist="" songAlbum="" songCopyrightUrl="" songArtistUrl="" songAudioFileUrl="" stabilizationMode="0" mediaItemType="1" />
    <MediaItem id="50" filePath="C:\Users\anya\OneDrive\Skocia\St_Giles_Cathedral_-_03.jpg" arWidth="1024" arHeight="679" duration="0" songTitle="" songArtist="" songAlbum="" songCopyrightUrl="" songArtistUrl="" songAudioFileUrl="" stabilizationMode="0" mediaItemType="2" />
    <MediaItem id="51" filePath="C:\Users\anya\OneDrive\Skocia\St_Giles_Cathedral_-_04.jpg" arWidth="900" arHeight="1200" duration="0" songTitle="" songArtist="" songAlbum="" songCopyrightUrl="" songArtistUrl="" songAudioFileUrl="" stabilizationMode="0" mediaItemType="2" />
    <MediaItem id="377" filePath="C:\Skocia\DSC03094.JPG" arWidth="3648" arHeight="2056" duration="0" songTitle="" songArtist="" songAlbum="" songCopyrightUrl="" songArtistUrl="" songAudioFileUrl="" stabilizationMode="0" mediaItemType="2" />
    <MediaItem id="52" filePath="C:\Users\anya\OneDrive\Skocia\St_Giles_Cathedral_-_05.jpg" arWidth="1200" arHeight="810" duration="0" songTitle="" songArtist="" songAlbum="" songCopyrightUrl="" songArtistUrl="" songAudioFileUrl="" stabilizationMode="0" mediaItemType="2" />
    <MediaItem id="216" filePath="C:\Skocia\MAH03110.MP4" arWidth="1920" arHeight="1080" duration="56.759999999999998" songTitle="" songArtist="" songAlbum="" songCopyrightUrl="" songArtistUrl="" songAudioFileUrl="" stabilizationMode="0" mediaItemType="1" />
    <MediaItem id="53" filePath="C:\Users\anya\OneDrive\Skocia\St_Giles_Cathedral_-_06.jpg" arWidth="1600" arHeight="1064" duration="0" songTitle="" songArtist="" songAlbum="" songCopyrightUrl="" songArtistUrl="" songAudioFileUrl="" stabilizationMode="0" mediaItemType="2" />
    <MediaItem id="217" filePath="C:\Skocia\DSC02915.JPG" arWidth="721" arHeight="1280" duration="0" songTitle="" songArtist="" songAlbum="" songCopyrightUrl="" songArtistUrl="" songAudioFileUrl="" stabilizationMode="0" mediaItemType="2" />
    <MediaItem id="54" filePath="C:\Skocia\Angel_playing_bagpipes,_Thistle_Chapel,_St._Giles.JPG" arWidth="1758" arHeight="2276" duration="0" songTitle="" songArtist="" songAlbum="" songCopyrightUrl="" songArtistUrl="" songAudioFileUrl="" stabilizationMode="0" mediaItemType="2" />
    <MediaItem id="55" filePath="C:\Skocia\st giles_the_thistle_chapel__edinburgh.jpg" arWidth="2560" arHeight="1440" duration="0" songTitle="" songArtist="" songAlbum="" songCopyrightUrl="" songArtistUrl="" songAudioFileUrl="" stabilizationMode="0" mediaItemType="2" />
    <MediaItem id="219" filePath="C:\Skocia\DSC02917.JPG" arWidth="3648" arHeight="2056" duration="0" songTitle="" songArtist="" songAlbum="" songCopyrightUrl="" songArtistUrl="" songAudioFileUrl="" stabilizationMode="0" mediaItemType="2" />
    <MediaItem id="56" filePath="C:\Skocia\St_Giles_Cathedral_-_05.jpg" arWidth="1280" arHeight="853" duration="0" songTitle="" songArtist="" songAlbum="" songCopyrightUrl="" songArtistUrl="" songAudioFileUrl="" stabilizationMode="0" mediaItemType="2" />
    <MediaItem id="220" filePath="C:\Skocia\DSC02604_v3.jpg" arWidth="1280" arHeight="720" duration="0" songTitle="" songArtist="" songAlbum="" songCopyrightUrl="" songArtistUrl="" songAudioFileUrl="" stabilizationMode="0" mediaItemType="2" />
    <MediaItem id="57" filePath="C:\Skocia\DSC02630.JPG" arWidth="1280" arHeight="787" duration="0" songTitle="" songArtist="" songAlbum="" songCopyrightUrl="" songArtistUrl="" songAudioFileUrl="" stabilizationMode="0" mediaItemType="2" />
    <MediaItem id="58" filePath="C:\Users\anya\Desktop\Skocia_film\skocia\6.mp3" arWidth="0" arHeight="0" duration="103.888875" songTitle="" songArtist="" songAlbum="" songCopyrightUrl="" songArtistUrl="" songAudioFileUrl="" stabilizationMode="0" mediaItemType="3" />
    <MediaItem id="384" filePath="C:\Skocia\20170801_153205.mp4" arWidth="1920" arHeight="1080" duration="252.5559835" songTitle="" songArtist="" songAlbum="" songCopyrightUrl="" songArtistUrl="" songAudioFileUrl="" stabilizationMode="0" mediaItemType="1" />
    <MediaItem id="221" filePath="C:\Skocia\MAH02859.MP4" arWidth="5760" arHeight="3240" duration="52.799999999999997" songTitle="" songArtist="" songAlbum="" songCopyrightUrl="" songArtistUrl="" songAudioFileUrl="" stabilizationMode="0" mediaItemType="1" />
    <MediaItem id="385" filePath="C:\Skocia\20170801_154958.mp4" arWidth="1920" arHeight="1080" duration="153.14267910000001" songTitle="" songArtist="" songAlbum="" songCopyrightUrl="" songArtistUrl="" songAudioFileUrl="" stabilizationMode="0" mediaItemType="1" />
    <MediaItem id="59" filePath="C:\Skocia\DSC02620.JPG" arWidth="1280" arHeight="721" duration="0" songTitle="" songArtist="" songAlbum="" songCopyrightUrl="" songArtistUrl="" songAudioFileUrl="" stabilizationMode="0" mediaItemType="2" />
    <MediaItem id="223" filePath="C:\Skocia\MAH02861.MP4" arWidth="5760" arHeight="3240" duration="36.479999900000003" songTitle="" songArtist="" songAlbum="" songCopyrightUrl="" songArtistUrl="" songAudioFileUrl="" stabilizationMode="0" mediaItemType="1" />
    <MediaItem id="60" filePath="C:\Skocia\DSC02621.JPG" arWidth="1280" arHeight="721" duration="0" songTitle="" songArtist="" songAlbum="" songCopyrightUrl="" songArtistUrl="" songAudioFileUrl="" stabilizationMode="0" mediaItemType="2" />
    <MediaItem id="387" filePath="C:\Skocia\20170801_161611.mp4" arWidth="1920" arHeight="1080" duration="122.0844365" songTitle="" songArtist="" songAlbum="" songCopyrightUrl="" songArtistUrl="" songAudioFileUrl="" stabilizationMode="0" mediaItemType="1" />
    <MediaItem id="224" filePath="C:\Skocia\MAH02862.MP4" arWidth="5760" arHeight="3240" duration="18.239999900000001" songTitle="" songArtist="" songAlbum="" songCopyrightUrl="" songArtistUrl="" songAudioFileUrl="" stabilizationMode="0" mediaItemType="1" />
    <MediaItem id="61" filePath="C:\Skocia\DSC02622.JPG" arWidth="721" arHeight="1280" duration="0" songTitle="" songArtist="" songAlbum="" songCopyrightUrl="" songArtistUrl="" songAudioFileUrl="" stabilizationMode="0" mediaItemType="2" />
    <MediaItem id="388" filePath="C:\Skocia\20170801_162543.mp4" arWidth="1920" arHeight="1080" duration="70.988001299999993" songTitle="" songArtist="" songAlbum="" songCopyrightUrl="" songArtistUrl="" songAudioFileUrl="" stabilizationMode="0" mediaItemType="1" />
    <MediaItem id="62" filePath="C:\Skocia\Culzean_castle.jpg" arWidth="1549" arHeight="740" duration="0" songTitle="" songArtist="" songAlbum="" songCopyrightUrl="" songArtistUrl="" songAudioFileUrl="" stabilizationMode="0" mediaItemType="2" />
    <MediaItem id="389" filePath="C:\Skocia\20170801_162915.mp4" arWidth="1920" arHeight="1080" duration="20.534735999999999" songTitle="" songArtist="" songAlbum="" songCopyrightUrl="" songArtistUrl="" songAudioFileUrl="" stabilizationMode="0" mediaItemType="1" />
    <MediaItem id="226" filePath="C:\Skocia\MAH02864.MP4" arWidth="5760" arHeight="3240" duration="16.32" songTitle="" songArtist="" songAlbum="" songCopyrightUrl="" songArtistUrl="" songAudioFileUrl="" stabilizationMode="0" mediaItemType="1" />
    <MediaItem id="63" filePath="C:\Skocia\DSC02782.JPG" arWidth="3292" arHeight="1725" duration="0" songTitle="" songArtist="" songAlbum="" songCopyrightUrl="" songArtistUrl="" songAudioFileUrl="" stabilizationMode="0" mediaItemType="2" />
    <MediaItem id="227" filePath="C:\Skocia\MAH02865.MP4" arWidth="1920" arHeight="1080" duration="84.120000000000005" songTitle="" songArtist="" songAlbum="" songCopyrightUrl="" songArtistUrl="" songAudioFileUrl="" stabilizationMode="0" mediaItemType="1" />
    <MediaItem id="64" filePath="C:\Skocia\MAH02658.MP4" arWidth="1920" arHeight="1080" duration="11.16" songTitle="" songArtist="" songAlbum="" songCopyrightUrl="" songArtistUrl="" songAudioFileUrl="" stabilizationMode="0" mediaItemType="1" />
    <MediaItem id="391" filePath="C:\Skocia\20170801_163653.mp4" arWidth="1920" arHeight="1080" duration="64.118692499999995" songTitle="" songArtist="" songAlbum="" songCopyrightUrl="" songArtistUrl="" songAudioFileUrl="" stabilizationMode="0" mediaItemType="1" />
    <MediaItem id="228" filePath="C:\Skocia\DSC02866.JPG" arWidth="3648" arHeight="2056" duration="0" songTitle="" songArtist="" songAlbum="" songCopyrightUrl="" songArtistUrl="" songAudioFileUrl="" stabilizationMode="0" mediaItemType="2" />
    <MediaItem id="65" filePath="C:\Users\anya\Desktop\Skocia_film\skocia\dunvegan2.mp3" arWidth="0" arHeight="0" duration="43.572125" songTitle="" songArtist="" songAlbum="" songCopyrightUrl="" songArtistUrl="" songAudioFileUrl="" stabilizationMode="0" mediaItemType="3" />
    <MediaItem id="392" filePath="C:\Skocia\20170801_164036.mp4" arWidth="1920" arHeight="1080" duration="52.671999999999997" songTitle="" songArtist="" songAlbum="" songCopyrightUrl="" songArtistUrl="" songAudioFileUrl="" stabilizationMode="0" mediaItemType="1" />
    <MediaItem id="229" filePath="C:\Skocia\MAH02921.MP4" arWidth="5760" arHeight="3240" duration="68.159999999999997" songTitle="" songArtist="" songAlbum="" songCopyrightUrl="" songArtistUrl="" songAudioFileUrl="" stabilizationMode="0" mediaItemType="1" />
    <MediaItem id="66" filePath="C:\Skocia\MAH02884.MP4" arWidth="5760" arHeight="3240" duration="82.079999999999998" songTitle="" songArtist="" songAlbum="" songCopyrightUrl="" songArtistUrl="" songAudioFileUrl="" stabilizationMode="0" mediaItemType="1" />
    <MediaItem id="393" filePath="C:\Skocia\MAH03158.MP4" arWidth="1920" arHeight="1080" duration="25.079999999999998" songTitle="" songArtist="" songAlbum="" songCopyrightUrl="" songArtistUrl="" songAudioFileUrl="" stabilizationMode="0" mediaItemType="1" />
    <MediaItem id="67" filePath="C:\Skocia\DSC02661.JPG" arWidth="1280" arHeight="721" duration="0" songTitle="" songArtist="" songAlbum="" songCopyrightUrl="" songArtistUrl="" songAudioFileUrl="" stabilizationMode="0" mediaItemType="2" />
    <MediaItem id="394" filePath="C:\Skocia\MAH03159.MP4" arWidth="1920" arHeight="1080" duration="80.280000000000001" songTitle="" songArtist="" songAlbum="" songCopyrightUrl="" songArtistUrl="" songAudioFileUrl="" stabilizationMode="0" mediaItemType="1" />
    <MediaItem id="68" filePath="C:\Skocia\DSC02662.JPG" arWidth="3648" arHeight="2056" duration="0" songTitle="" songArtist="" songAlbum="" songCopyrightUrl="" songArtistUrl="" songAudioFileUrl="" stabilizationMode="0" mediaItemType="2" />
    <MediaItem id="395" filePath="C:\Skocia\DSC03249.JPG" arWidth="3648" arHeight="2056" duration="0" songTitle="" songArtist="" songAlbum="" songCopyrightUrl="" songArtistUrl="" songAudioFileUrl="" stabilizationMode="0" mediaItemType="2" />
    <MediaItem id="69" filePath="C:\Skocia\DSC02784.JPG" arWidth="3648" arHeight="2056" duration="0" songTitle="" songArtist="" songAlbum="" songCopyrightUrl="" songArtistUrl="" songAudioFileUrl="" stabilizationMode="0" mediaItemType="2" />
    <MediaItem id="70" filePath="C:\Skocia\DSC02771.JPG" arWidth="2056" arHeight="3648" duration="0" songTitle="" songArtist="" songAlbum="" songCopyrightUrl="" songArtistUrl="" songAudioFileUrl="" stabilizationMode="0" mediaItemType="2" />
    <MediaItem id="71" filePath="C:\Users\anya\Desktop\Skocia_film\skocia\skye.mp3" arWidth="0" arHeight="0" duration="130.79499999999999" songTitle="" songArtist="" songAlbum="" songCopyrightUrl="" songArtistUrl="" songAudioFileUrl="" stabilizationMode="0" mediaItemType="3" />
    <MediaItem id="234" filePath="C:\Skocia\DSC02872.JPG" arWidth="3648" arHeight="2056" duration="0" songTitle="" songArtist="" songAlbum="" songCopyrightUrl="" songArtistUrl="" songAudioFileUrl="" stabilizationMode="0" mediaItemType="2" />
    <MediaItem id="235" filePath="C:\Skocia\DSC02925.JPG" arWidth="3305" arHeight="1620" duration="0" songTitle="" songArtist="" songAlbum="" songCopyrightUrl="" songArtistUrl="" songAudioFileUrl="" stabilizationMode="0" mediaItemType="2" />
    <MediaItem id="72" filePath="C:\Skocia\MAH02787.MP4" arWidth="5760" arHeight="3240" duration="20.16" songTitle="" songArtist="" songAlbum="" songCopyrightUrl="" songArtistUrl="" songAudioFileUrl="" stabilizationMode="0" mediaItemType="1" />
    <MediaItem id="236" filePath="C:\Skocia\DSC03245.JPG" arWidth="3648" arHeight="2056" duration="0" songTitle="" songArtist="" songAlbum="" songCopyrightUrl="" songArtistUrl="" songAudioFileUrl="" stabilizationMode="0" mediaItemType="2" />
    <MediaItem id="73" filePath="C:\Downloads\Dunvegan-Fairy-Flag-min.jpg" arWidth="822" arHeight="1280" duration="0" songTitle="" songArtist="" songAlbum="" songCopyrightUrl="" songArtistUrl="" songAudioFileUrl="" stabilizationMode="0" mediaItemType="2" />
    <MediaItem id="400" filePath="C:\Skocia\MAH03251.MP4" arWidth="1920" arHeight="1080" duration="53.399999999999999" songTitle="" songArtist="" songAlbum="" songCopyrightUrl="" songArtistUrl="" songAudioFileUrl="" stabilizationMode="0" mediaItemType="1" />
    <MediaItem id="237" filePath="C:\Skocia\DSC02876.JPG" arWidth="3648" arHeight="2056" duration="0" songTitle="" songArtist="" songAlbum="" songCopyrightUrl="" songArtistUrl="" songAudioFileUrl="" stabilizationMode="0" mediaItemType="2" />
    <MediaItem id="74" filePath="C:\Users\anya\Desktop\Skocia_film\skocia\lochness.mp3" arWidth="0" arHeight="0" duration="158.5631875" songTitle="" songArtist="" songAlbum="" songCopyrightUrl="" songArtistUrl="" songAudioFileUrl="" stabilizationMode="0" mediaItemType="3" />
    <MediaItem id="238" filePath="C:\Skocia\DSC02877.JPG" arWidth="3648" arHeight="2056" duration="0" songTitle="" songArtist="" songAlbum="" songCopyrightUrl="" songArtistUrl="" songAudioFileUrl="" stabilizationMode="0" mediaItemType="2" />
    <MediaItem id="75" filePath="C:\Skocia\DSC02886.JPG" arWidth="3648" arHeight="2056" duration="0" songTitle="" songArtist="" songAlbum="" songCopyrightUrl="" songArtistUrl="" songAudioFileUrl="" stabilizationMode="0" mediaItemType="2" />
    <MediaItem id="76" filePath="C:\Users\anya\Desktop\Skocia_film\skocia\Inverness.m4a" arWidth="0" arHeight="0" duration="132.39500000000001" songTitle="" songArtist="" songAlbum="" songCopyrightUrl="" songArtistUrl="" songAudioFileUrl="" stabilizationMode="0" mediaItemType="3" />
    <MediaItem id="402" filePath="C:\Skocia\MAH03253.MP4" arWidth="1920" arHeight="1080" duration="23.640000000000001" songTitle="" songArtist="" songAlbum="" songCopyrightUrl="" songArtistUrl="" songAudioFileUrl="" stabilizationMode="0" mediaItemType="1" />
    <MediaItem id="239" filePath="C:\Skocia\MAH03113.MP4" arWidth="1920" arHeight="1080" duration="92.280000000000001" songTitle="" songArtist="" songAlbum="" songCopyrightUrl="" songArtistUrl="" songAudioFileUrl="" stabilizationMode="0" mediaItemType="1" />
    <MediaItem id="240" filePath="C:\Skocia\DSC02926.JPG" arWidth="3648" arHeight="2056" duration="0" songTitle="" songArtist="" songAlbum="" songCopyrightUrl="" songArtistUrl="" songAudioFileUrl="" stabilizationMode="0" mediaItemType="2" />
    <MediaItem id="77" filePath="C:\Skocia\DSC02671.JPG" arWidth="3648" arHeight="2056" duration="0" songTitle="" songArtist="" songAlbum="" songCopyrightUrl="" songArtistUrl="" songAudioFileUrl="" stabilizationMode="0" mediaItemType="2" />
    <MediaItem id="404" filePath="C:\Skocia\MAH03256.MP4" arWidth="1920" arHeight="1080" duration="18.84" songTitle="" songArtist="" songAlbum="" songCopyrightUrl="" songArtistUrl="" songAudioFileUrl="" stabilizationMode="0" mediaItemType="1" />
    <MediaItem id="241" filePath="C:\Skocia\DSC02880.JPG" arWidth="2056" arHeight="3648" duration="0" songTitle="" songArtist="" songAlbum="" songCopyrightUrl="" songArtistUrl="" songAudioFileUrl="" stabilizationMode="0" mediaItemType="2" />
    <MediaItem id="78" filePath="C:\Skocia\DSC02672.JPG" arWidth="3648" arHeight="2056" duration="0" songTitle="" songArtist="" songAlbum="" songCopyrightUrl="" songArtistUrl="" songAudioFileUrl="" stabilizationMode="0" mediaItemType="2" />
    <MediaItem id="242" filePath="C:\Skocia\DSC02976.JPG" arWidth="3648" arHeight="2056" duration="0" songTitle="" songArtist="" songAlbum="" songCopyrightUrl="" songArtistUrl="" songAudioFileUrl="" stabilizationMode="0" mediaItemType="2" />
    <MediaItem id="79" filePath="C:\Skocia\DSC02887.JPG" arWidth="3648" arHeight="2056" duration="0" songTitle="" songArtist="" songAlbum="" songCopyrightUrl="" songArtistUrl="" songAudioFileUrl="" stabilizationMode="0" mediaItemType="2" />
    <MediaItem id="80" filePath="C:\Users\anya\Desktop\Skocia_film\skocia\storr2.mp3" arWidth="0" arHeight="0" duration="65.724000000000004" songTitle="" songArtist="" songAlbum="" songCopyrightUrl="" songArtistUrl="" songAudioFileUrl="" stabilizationMode="0" mediaItemType="3" />
    <MediaItem id="406" filePath="C:\Skocia\MAH03258.MP4" arWidth="1920" arHeight="1080" duration="29.399999999999999" songTitle="" songArtist="" songAlbum="" songCopyrightUrl="" songArtistUrl="" songAudioFileUrl="" stabilizationMode="0" mediaItemType="1" />
    <MediaItem id="407" filePath="C:\Skocia\MAH03259.MP4" arWidth="1920" arHeight="1080" duration="31.800000000000001" songTitle="" songArtist="" songAlbum="" songCopyrightUrl="" songArtistUrl="" songAudioFileUrl="" stabilizationMode="0" mediaItemType="1" />
    <MediaItem id="81" filePath="C:\Skocia\DSC02791.JPG" arWidth="3648" arHeight="2056" duration="0" songTitle="" songArtist="" songAlbum="" songCopyrightUrl="" songArtistUrl="" songAudioFileUrl="" stabilizationMode="0" mediaItemType="2" />
    <MediaItem id="408" filePath="C:\Skocia\20170802_162801.mp4" arWidth="1080" arHeight="1920" duration="297.13179830000001" songTitle="" songArtist="" songAlbum="" songCopyrightUrl="" songArtistUrl="" songAudioFileUrl="" stabilizationMode="0" mediaItemType="1" />
    <MediaItem id="245" filePath="C:\Skocia\DSC02929.JPG" arWidth="3648" arHeight="2056" duration="0" songTitle="" songArtist="" songAlbum="" songCopyrightUrl="" songArtistUrl="" songAudioFileUrl="" stabilizationMode="0" mediaItemType="2" />
    <MediaItem id="82" filePath="C:\Skocia\DSC02676.JPG" arWidth="3648" arHeight="2056" duration="0" songTitle="" songArtist="" songAlbum="" songCopyrightUrl="" songArtistUrl="" songAudioFileUrl="" stabilizationMode="0" mediaItemType="2" />
    <MediaItem id="409" filePath="C:\Skocia\20170802_173410.mp4" arWidth="1920" arHeight="1080" duration="99.894654700000004" songTitle="" songArtist="" songAlbum="" songCopyrightUrl="" songArtistUrl="" songAudioFileUrl="" stabilizationMode="0" mediaItemType="1" />
    <MediaItem id="246" filePath="C:\Skocia\MAH02931.MP4" arWidth="5760" arHeight="3240" duration="39.359999999999999" songTitle="" songArtist="" songAlbum="" songCopyrightUrl="" songArtistUrl="" songAudioFileUrl="" stabilizationMode="0" mediaItemType="1" />
    <MediaItem id="83" filePath="C:\Skocia\DSC02677.JPG" arWidth="3648" arHeight="2056" duration="0" songTitle="" songArtist="" songAlbum="" songCopyrightUrl="" songArtistUrl="" songAudioFileUrl="" stabilizationMode="0" mediaItemType="2" />
    <MediaItem id="84" filePath="C:\Users\anya\Desktop\Skocia_film\skocia\eilan.mp3" arWidth="0" arHeight="0" duration="20.3493125" songTitle="" songArtist="" songAlbum="" songCopyrightUrl="" songArtistUrl="" songAudioFileUrl="" stabilizationMode="0" mediaItemType="3" />
    <MediaItem id="410" filePath="C:\Skocia\20170802_173818.mp4" arWidth="1920" arHeight="1080" duration="20.619979099999998" songTitle="" songArtist="" songAlbum="" songCopyrightUrl="" songArtistUrl="" songAudioFileUrl="" stabilizationMode="0" mediaItemType="1" />
    <MediaItem id="247" filePath="C:\Skocia\DSC02934.JPG" arWidth="3648" arHeight="2056" duration="0" songTitle="" songArtist="" songAlbum="" songCopyrightUrl="" songArtistUrl="" songAudioFileUrl="" stabilizationMode="0" mediaItemType="2" />
    <MediaItem id="411" filePath="C:\Skocia\Rosslyn.jpg" arWidth="1084" arHeight="700" duration="0" songTitle="" songArtist="" songAlbum="" songCopyrightUrl="" songArtistUrl="" songAudioFileUrl="" stabilizationMode="0" mediaItemType="2" />
    <MediaItem id="85" filePath="C:\Users\anya\Desktop\Skocia_film\skocia\Urquhart.m4a" arWidth="0" arHeight="0" duration="122.857" songTitle="" songArtist="" songAlbum="" songCopyrightUrl="" songArtistUrl="" songAudioFileUrl="" stabilizationMode="0" mediaItemType="3" />
    <MediaItem id="249" filePath="C:\Skocia\DSC02936.JPG" arWidth="3648" arHeight="2056" duration="0" songTitle="" songArtist="" songAlbum="" songCopyrightUrl="" songArtistUrl="" songAudioFileUrl="" stabilizationMode="0" mediaItemType="2" />
    <MediaItem id="86" filePath="C:\Skocia\DSC02680.JPG" arWidth="2055" arHeight="2602" duration="0" songTitle="" songArtist="" songAlbum="" songCopyrightUrl="" songArtistUrl="" songAudioFileUrl="" stabilizationMode="0" mediaItemType="2" />
    <MediaItem id="250" filePath="C:\Skocia\DSC02937.JPG" arWidth="3648" arHeight="2056" duration="0" songTitle="" songArtist="" songAlbum="" songCopyrightUrl="" songArtistUrl="" songAudioFileUrl="" stabilizationMode="0" mediaItemType="2" />
    <MediaItem id="87" filePath="C:\Skocia\DSC02792.JPG" arWidth="3648" arHeight="2056" duration="0" songTitle="" songArtist="" songAlbum="" songCopyrightUrl="" songArtistUrl="" songAudioFileUrl="" stabilizationMode="0" mediaItemType="2" />
    <MediaItem id="88" filePath="C:\Users\anya\OneDrive\Skocia\Inverness_Railway_Station.jpg" arWidth="1036" arHeight="583" duration="0" songTitle="" songArtist="" songAlbum="" songCopyrightUrl="" songArtistUrl="" songAudioFileUrl="" stabilizationMode="0" mediaItemType="2" />
    <MediaItem id="251" filePath="C:\Skocia\MAH02938.MP4" arWidth="5760" arHeight="3240" duration="21.120000000000001" songTitle="" songArtist="" songAlbum="" songCopyrightUrl="" songArtistUrl="" songAudioFileUrl="" stabilizationMode="0" mediaItemType="1" />
    <MediaItem id="252" filePath="C:\Skocia\DSC02939.JPG" arWidth="3058" arHeight="1623" duration="0" songTitle="" songArtist="" songAlbum="" songCopyrightUrl="" songArtistUrl="" songAudioFileUrl="" stabilizationMode="0" mediaItemType="2" />
    <MediaItem id="89" filePath="C:\Skocia\DSC02684.JPG" arWidth="3648" arHeight="2056" duration="0" songTitle="" songArtist="" songAlbum="" songCopyrightUrl="" songArtistUrl="" songAudioFileUrl="" stabilizationMode="0" mediaItemType="2" />
    <MediaItem id="90" filePath="C:\Users\anya\Desktop\Skocia_film\skocia\Blair.m4a" arWidth="0" arHeight="0" duration="63.103999999999999" songTitle="" songArtist="" songAlbum="" songCopyrightUrl="" songArtistUrl="" songAudioFileUrl="" stabilizationMode="0" mediaItemType="3" />
    <MediaItem id="253" filePath="C:\Skocia\DSC02940.JPG" arWidth="2056" arHeight="3648" duration="0" songTitle="" songArtist="" songAlbum="" songCopyrightUrl="" songArtistUrl="" songAudioFileUrl="" stabilizationMode="0" mediaItemType="2" />
    <MediaItem id="91" filePath="C:\Skocia\DSC02686.JPG" arWidth="2056" arHeight="3648" duration="0" songTitle="" songArtist="" songAlbum="" songCopyrightUrl="" songArtistUrl="" songAudioFileUrl="" stabilizationMode="0" mediaItemType="2" />
    <MediaItem id="92" filePath="C:\Users\anya\Desktop\Skocia_film\skocia\Standrews.m4a" arWidth="0" arHeight="0" duration="250.88" songTitle="" songArtist="" songAlbum="" songCopyrightUrl="" songArtistUrl="" songAudioFileUrl="" stabilizationMode="0" mediaItemType="3" />
    <MediaItem id="93" filePath="C:\Users\anya\Desktop\Skocia_film\skocia\Standrews2.m4a" arWidth="0" arHeight="0" duration="166.59200000000001" songTitle="" songArtist="" songAlbum="" songCopyrightUrl="" songArtistUrl="" songAudioFileUrl="" stabilizationMode="0" mediaItemType="3" />
    <MediaItem id="256" filePath="C:\Skocia\MAH02943.MP4" arWidth="5760" arHeight="3240" duration="28.800000000000001" songTitle="" songArtist="" songAlbum="" songCopyrightUrl="" songArtistUrl="" songAudioFileUrl="" stabilizationMode="0" mediaItemType="1" />
    <MediaItem id="94" filePath="C:\Users\anya\Desktop\Skocia_film\skocia\Forth,Rosslyn.m4a" arWidth="0" arHeight="0" duration="98.026666599999999" songTitle="" songArtist="" songAlbum="" songCopyrightUrl="" songArtistUrl="" songAudioFileUrl="" stabilizationMode="0" mediaItemType="3" />
    <MediaItem id="95" filePath="C:\Skocia\MAH03102.MP4" arWidth="1920" arHeight="1080" duration="71.159999999999997" songTitle="" songArtist="" songAlbum="" songCopyrightUrl="" songArtistUrl="" songAudioFileUrl="" stabilizationMode="0" mediaItemType="1" />
    <MediaItem id="584" filePath="C:\Skocia\MAH03161.MP4" arWidth="1920" arHeight="1080" duration="64.920000000000002" songTitle="" songArtist="" songAlbum="" songCopyrightUrl="" songArtistUrl="" songAudioFileUrl="" stabilizationMode="0" mediaItemType="1" />
    <MediaItem id="96" filePath="C:\Skocia\MAH02890.MP4" arWidth="5760" arHeight="3240" duration="37.920000000000002" songTitle="" songArtist="" songAlbum="" songCopyrightUrl="" songArtistUrl="" songAudioFileUrl="" stabilizationMode="0" mediaItemType="1" />
    <MediaItem id="97" filePath="C:\Skocia\DSC02692.JPG" arWidth="3648" arHeight="2056" duration="0" songTitle="" songArtist="" songAlbum="" songCopyrightUrl="" songArtistUrl="" songAudioFileUrl="" stabilizationMode="0" mediaItemType="2" />
    <MediaItem id="586" filePath="C:\Skocia\MAH03164.MP4" arWidth="1920" arHeight="1080" duration="33.239960000000004" songTitle="" songArtist="" songAlbum="" songCopyrightUrl="" songArtistUrl="" songAudioFileUrl="" stabilizationMode="0" mediaItemType="1" />
    <MediaItem id="261" filePath="C:\Skocia\MAH02948.MP4" arWidth="5760" arHeight="3240" duration="27.359999999999999" songTitle="" songArtist="" songAlbum="" songCopyrightUrl="" songArtistUrl="" songAudioFileUrl="" stabilizationMode="0" mediaItemType="1" />
    <MediaItem id="98" filePath="C:\Skocia\DSC02693.JPG" arWidth="3648" arHeight="2056" duration="0" songTitle="" songArtist="" songAlbum="" songCopyrightUrl="" songArtistUrl="" songAudioFileUrl="" stabilizationMode="0" mediaItemType="2" />
    <MediaItem id="587" filePath="C:\Skocia\MAH03165.MP4" arWidth="1920" arHeight="1080" duration="15.48" songTitle="" songArtist="" songAlbum="" songCopyrightUrl="" songArtistUrl="" songAudioFileUrl="" stabilizationMode="0" mediaItemType="1" />
    <MediaItem id="99" filePath="C:\Skocia\DSC02795.JPG" arWidth="3648" arHeight="2056" duration="0" songTitle="" songArtist="" songAlbum="" songCopyrightUrl="" songArtistUrl="" songAudioFileUrl="" stabilizationMode="0" mediaItemType="2" />
    <MediaItem id="100" filePath="C:\Skocia\MAH02796.MP4" arWidth="5760" arHeight="3240" duration="8.6400000000000006" songTitle="" songArtist="" songAlbum="" songCopyrightUrl="" songArtistUrl="" songAudioFileUrl="" stabilizationMode="0" mediaItemType="1" />
    <MediaItem id="589" filePath="C:\Skocia\MAH03173.MP4" arWidth="1920" arHeight="1080" duration="22.199999999999999" songTitle="" songArtist="" songAlbum="" songCopyrightUrl="" songArtistUrl="" songAudioFileUrl="" stabilizationMode="0" mediaItemType="1" />
    <MediaItem id="101" filePath="C:\Skocia\DSC02797.JPG" arWidth="3648" arHeight="2056" duration="0" songTitle="" songArtist="" songAlbum="" songCopyrightUrl="" songArtistUrl="" songAudioFileUrl="" stabilizationMode="0" mediaItemType="2" />
    <MediaItem id="590" filePath="C:\Skocia\MAH03174.MP4" arWidth="1920" arHeight="1080" duration="19.319959999999998" songTitle="" songArtist="" songAlbum="" songCopyrightUrl="" songArtistUrl="" songAudioFileUrl="" stabilizationMode="0" mediaItemType="1" />
    <MediaItem id="102" filePath="C:\Skocia\MAH02697.MP4" arWidth="1920" arHeight="1080" duration="15.960000000000001" songTitle="" songArtist="" songAlbum="" songCopyrightUrl="" songArtistUrl="" songAudioFileUrl="" stabilizationMode="0" mediaItemType="1" />
    <MediaItem id="591" filePath="C:\Skocia\MAH03175.MP4" arWidth="1920" arHeight="1080" duration="39" songTitle="" songArtist="" songAlbum="" songCopyrightUrl="" songArtistUrl="" songAudioFileUrl="" stabilizationMode="0" mediaItemType="1" />
    <MediaItem id="103" filePath="C:\Skocia\DSC02698.JPG" arWidth="3648" arHeight="2056" duration="0" songTitle="" songArtist="" songAlbum="" songCopyrightUrl="" songArtistUrl="" songAudioFileUrl="" stabilizationMode="0" mediaItemType="2" />
    <MediaItem id="592" filePath="C:\Skocia\MAH03176.MP4" arWidth="1920" arHeight="1080" duration="41.399999999999999" songTitle="" songArtist="" songAlbum="" songCopyrightUrl="" songArtistUrl="" songAudioFileUrl="" stabilizationMode="0" mediaItemType="1" />
    <MediaItem id="104" filePath="C:\Users\anya\Desktop\Skocia_film\skocia\Queensferry.m4a" arWidth="0" arHeight="0" duration="31.423999999999999" songTitle="" songArtist="" songAlbum="" songCopyrightUrl="" songArtistUrl="" songAudioFileUrl="" stabilizationMode="0" mediaItemType="3" />
    <MediaItem id="268" filePath="C:\Skocia\MAH02955.MP4" arWidth="1920" arHeight="1080" duration="24.600000000000001" songTitle="" songArtist="" songAlbum="" songCopyrightUrl="" songArtistUrl="" songAudioFileUrl="" stabilizationMode="0" mediaItemType="1" />
    <MediaItem id="594" filePath="C:\Skocia\MAH03182.MP4" arWidth="1920" arHeight="1080" duration="22.68" songTitle="" songArtist="" songAlbum="" songCopyrightUrl="" songArtistUrl="" songAudioFileUrl="" stabilizationMode="0" mediaItemType="1" />
    <MediaItem id="105" filePath="C:\Users\anya\Desktop\Skocia_film\skocia\Linl.m4a" arWidth="0" arHeight="0" duration="69.695999999999998" songTitle="" songArtist="" songAlbum="" songCopyrightUrl="" songArtistUrl="" songAudioFileUrl="" stabilizationMode="0" mediaItemType="3" />
    <MediaItem id="106" filePath="C:\Users\anya\Desktop\Skocia_film\skocia\Falkirk.m4a" arWidth="0" arHeight="0" duration="30.635000000000002" songTitle="" songArtist="" songAlbum="" songCopyrightUrl="" songArtistUrl="" songAudioFileUrl="" stabilizationMode="0" mediaItemType="3" />
    <MediaItem id="107" filePath="C:\Users\anya\Desktop\Skocia_film\skocia\zene\1 Hour of Scottish Music and Celtic Music.mp3" arWidth="0" arHeight="0" duration="3840.2089166000001" songTitle="" songArtist="" songAlbum="" songCopyrightUrl="" songArtistUrl="" songAudioFileUrl="" stabilizationMode="0" mediaItemType="3" />
    <MediaItem id="270" filePath="C:\Skocia\MAH02982.MP4" arWidth="5760" arHeight="3240" duration="49.439999999999998" songTitle="" songArtist="" songAlbum="" songCopyrightUrl="" songArtistUrl="" songAudioFileUrl="" stabilizationMode="0" mediaItemType="1" />
    <MediaItem id="596" filePath="C:\Skocia\MAH03186.MP4" arWidth="1920" arHeight="1080" duration="25.079999999999998" songTitle="" songArtist="" songAlbum="" songCopyrightUrl="" songArtistUrl="" songAudioFileUrl="" stabilizationMode="0" mediaItemType="1" />
    <MediaItem id="271" filePath="C:\Skocia\MAH02983.MP4" arWidth="5760" arHeight="3240" duration="31.68" songTitle="" songArtist="" songAlbum="" songCopyrightUrl="" songArtistUrl="" songAudioFileUrl="" stabilizationMode="0" mediaItemType="1" />
    <MediaItem id="597" filePath="C:\Skocia\MAH03188.MP4" arWidth="1920" arHeight="1080" duration="25.079999999999998" songTitle="" songArtist="" songAlbum="" songCopyrightUrl="" songArtistUrl="" songAudioFileUrl="" stabilizationMode="0" mediaItemType="1" />
    <MediaItem id="108" filePath="C:\Skocia\DSC02703.JPG" arWidth="3648" arHeight="2056" duration="0" songTitle="" songArtist="" songAlbum="" songCopyrightUrl="" songArtistUrl="" songAudioFileUrl="" stabilizationMode="0" mediaItemType="2" />
    <MediaItem id="109" filePath="C:\Users\anya\Desktop\Skocia_film\skocia\zene\Eu4 Music Pack Rule BritanniaAlba.mp3" arWidth="0" arHeight="0" duration="213.6815833" songTitle="" songArtist="" songAlbum="" songCopyrightUrl="" songArtistUrl="" songAudioFileUrl="" stabilizationMode="0" mediaItemType="3" />
    <MediaItem id="272" filePath="C:\Skocia\MAH02984.MP4" arWidth="5760" arHeight="3240" duration="35.520000000000003" songTitle="" songArtist="" songAlbum="" songCopyrightUrl="" songArtistUrl="" songAudioFileUrl="" stabilizationMode="0" mediaItemType="1" />
    <MediaItem id="598" filePath="C:\Skocia\MAH03189.MP4" arWidth="1920" arHeight="1080" duration="30.359999999999999" songTitle="" songArtist="" songAlbum="" songCopyrightUrl="" songArtistUrl="" songAudioFileUrl="" stabilizationMode="0" mediaItemType="1" />
    <MediaItem id="273" filePath="C:\Skocia\MAH02985.MP4" arWidth="5760" arHeight="3240" duration="22.559999999999999" songTitle="" songArtist="" songAlbum="" songCopyrightUrl="" songArtistUrl="" songAudioFileUrl="" stabilizationMode="0" mediaItemType="1" />
    <MediaItem id="110" filePath="C:\Skocia\DSC02803.JPG" arWidth="3648" arHeight="2056" duration="0" songTitle="" songArtist="" songAlbum="" songCopyrightUrl="" songArtistUrl="" songAudioFileUrl="" stabilizationMode="0" mediaItemType="2" />
    <MediaItem id="600" filePath="C:\Skocia\MAH03195.MP4" arWidth="1920" arHeight="1080" duration="98.039999899999998" songTitle="" songArtist="" songAlbum="" songCopyrightUrl="" songArtistUrl="" songAudioFileUrl="" stabilizationMode="0" mediaItemType="1" />
    <MediaItem id="111" filePath="C:\Skocia\DSC02706.JPG" arWidth="3648" arHeight="2056" duration="0" songTitle="" songArtist="" songAlbum="" songCopyrightUrl="" songArtistUrl="" songAudioFileUrl="" stabilizationMode="0" mediaItemType="2" />
    <MediaItem id="275" filePath="C:\Skocia\MAH02987.MP4" arWidth="5760" arHeight="3240" duration="20.640000000000001" songTitle="" songArtist="" songAlbum="" songCopyrightUrl="" songArtistUrl="" songAudioFileUrl="" stabilizationMode="0" mediaItemType="1" />
    <MediaItem id="112" filePath="C:\Skocia\DSC02707.JPG" arWidth="3648" arHeight="2056" duration="0" songTitle="" songArtist="" songAlbum="" songCopyrightUrl="" songArtistUrl="" songAudioFileUrl="" stabilizationMode="0" mediaItemType="2" />
    <MediaItem id="113" filePath="C:\Skocia\MAH02708.MP4" arWidth="1920" arHeight="1080" duration="7.7999999999999998" songTitle="" songArtist="" songAlbum="" songCopyrightUrl="" songArtistUrl="" songAudioFileUrl="" stabilizationMode="0" mediaItemType="1" />
    <MediaItem id="114" filePath="C:\Skocia\DSC02709.JPG" arWidth="1280" arHeight="721" duration="0" songTitle="" songArtist="" songAlbum="" songCopyrightUrl="" songArtistUrl="" songAudioFileUrl="" stabilizationMode="0" mediaItemType="2" />
    <MediaItem id="115" filePath="C:\Skocia\MAH02710.MP4" arWidth="1920" arHeight="1080" duration="22.199999999999999" songTitle="" songArtist="" songAlbum="" songCopyrightUrl="" songArtistUrl="" songAudioFileUrl="" stabilizationMode="0" mediaItemType="1" />
    <MediaItem id="279" filePath="C:\Skocia\MAH03119.MP4" arWidth="1920" arHeight="1080" duration="30.359999999999999" songTitle="" songArtist="" songAlbum="" songCopyrightUrl="" songArtistUrl="" songAudioFileUrl="" stabilizationMode="0" mediaItemType="1" />
    <MediaItem id="280" filePath="C:\Skocia\MAH02992.MP4" arWidth="5760" arHeight="3240" duration="35.520000000000003" songTitle="" songArtist="" songAlbum="" songCopyrightUrl="" songArtistUrl="" songAudioFileUrl="" stabilizationMode="0" mediaItemType="1" />
    <MediaItem id="117" filePath="C:\Skocia\MAH02712.MP4" arWidth="1920" arHeight="1080" duration="16.920000000000002" songTitle="" songArtist="" songAlbum="" songCopyrightUrl="" songArtistUrl="" songAudioFileUrl="" stabilizationMode="0" mediaItemType="1" />
    <MediaItem id="118" filePath="C:\Users\anya\Desktop\Skocia_film\skocia\zene\Great Northern War Song of Gunfire - Sean and Dean Kiner - Extra History.mp3" arWidth="0" arHeight="0" duration="92.212166600000003" songTitle="" songArtist="" songAlbum="" songCopyrightUrl="" songArtistUrl="" songAudioFileUrl="" stabilizationMode="0" mediaItemType="3" />
    <MediaItem id="281" filePath="C:\Skocia\DSC02993.JPG" arWidth="3648" arHeight="2056" duration="0" songTitle="" songArtist="" songAlbum="" songCopyrightUrl="" songArtistUrl="" songAudioFileUrl="" stabilizationMode="0" mediaItemType="2" />
    <MediaItem id="119" filePath="C:\Skocia\DSC02806.JPG" arWidth="3648" arHeight="2056" duration="0" songTitle="" songArtist="" songAlbum="" songCopyrightUrl="" songArtistUrl="" songAudioFileUrl="" stabilizationMode="0" mediaItemType="2" />
    <MediaItem id="285" filePath="C:\Skocia\DSC02997.JPG" arWidth="3648" arHeight="2056" duration="0" songTitle="" songArtist="" songAlbum="" songCopyrightUrl="" songArtistUrl="" songAudioFileUrl="" stabilizationMode="0" mediaItemType="2" />
    <MediaItem id="287" filePath="C:\Skocia\Linlithgow4_3.jpg" arWidth="804" arHeight="452" duration="0" songTitle="" songArtist="" songAlbum="" songCopyrightUrl="" songArtistUrl="" songAudioFileUrl="" stabilizationMode="0" mediaItemType="2" />
    <MediaItem id="289" filePath="C:\Skocia\DSC03123.JPG" arWidth="2056" arHeight="3648" duration="0" songTitle="" songArtist="" songAlbum="" songCopyrightUrl="" songArtistUrl="" songAudioFileUrl="" stabilizationMode="0" mediaItemType="2" />
    <MediaItem id="127" filePath="C:\Skocia\MAH02810.MP4" arWidth="5760" arHeight="3240" duration="22.079999900000001" songTitle="" songArtist="" songAlbum="" songCopyrightUrl="" songArtistUrl="" songAudioFileUrl="" stabilizationMode="0" mediaItemType="1" />
    <MediaItem id="291" filePath="C:\Skocia\MAH03124.MP4" arWidth="1920" arHeight="1080" duration="35.159999999999997" songTitle="" songArtist="" songAlbum="" songCopyrightUrl="" songArtistUrl="" songAudioFileUrl="" stabilizationMode="0" mediaItemType="1" />
    <MediaItem id="128" filePath="C:\Skocia\DSC02723.JPG" arWidth="3648" arHeight="2056" duration="0" songTitle="" songArtist="" songAlbum="" songCopyrightUrl="" songArtistUrl="" songAudioFileUrl="" stabilizationMode="0" mediaItemType="2" />
    <MediaItem id="293" filePath="C:\Skocia\Rosslyn2.jpg" arWidth="1440" arHeight="1090" duration="0" songTitle="" songArtist="" songAlbum="" songCopyrightUrl="" songArtistUrl="" songAudioFileUrl="" stabilizationMode="0" mediaItemType="2" />
    <MediaItem id="130" filePath="C:\Skocia\DSC02962.JPG" arWidth="3648" arHeight="2056" duration="0" songTitle="" songArtist="" songAlbum="" songCopyrightUrl="" songArtistUrl="" songAudioFileUrl="" stabilizationMode="0" mediaItemType="2" />
    <MediaItem id="294" filePath="C:\Skocia\DSC03006.JPG" arWidth="3648" arHeight="2056" duration="0" songTitle="" songArtist="" songAlbum="" songCopyrightUrl="" songArtistUrl="" songAudioFileUrl="" stabilizationMode="0" mediaItemType="2" />
    <MediaItem id="132" filePath="C:\Skocia\DSC02963.JPG" arWidth="3648" arHeight="2056" duration="0" songTitle="" songArtist="" songAlbum="" songCopyrightUrl="" songArtistUrl="" songAudioFileUrl="" stabilizationMode="0" mediaItemType="2" />
    <MediaItem id="296" filePath="C:\Skocia\DSC03127.JPG" arWidth="2056" arHeight="3648" duration="0" songTitle="" songArtist="" songAlbum="" songCopyrightUrl="" songArtistUrl="" songAudioFileUrl="" stabilizationMode="0" mediaItemType="2" />
    <MediaItem id="133" filePath="C:\Skocia\MAH02728.MP4" arWidth="1920" arHeight="1080" duration="17.399999999999999" songTitle="" songArtist="" songAlbum="" songCopyrightUrl="" songArtistUrl="" songAudioFileUrl="" stabilizationMode="0" mediaItemType="1" />
    <MediaItem id="297" filePath="C:\Skocia\DSC03128.JPG" arWidth="2779" arHeight="1845" duration="0" songTitle="" songArtist="" songAlbum="" songCopyrightUrl="" songArtistUrl="" songAudioFileUrl="" stabilizationMode="0" mediaItemType="2" />
    <MediaItem id="134" filePath="C:\Skocia\MAH02729.MP4" arWidth="1920" arHeight="1080" duration="27.960000000000001" songTitle="" songArtist="" songAlbum="" songCopyrightUrl="" songArtistUrl="" songAudioFileUrl="" stabilizationMode="0" mediaItemType="1" />
    <MediaItem id="298" filePath="C:\Skocia\MAH03129.MP4" arWidth="1920" arHeight="1080" duration="57.240000000000002" songTitle="" songArtist="" songAlbum="" songCopyrightUrl="" songArtistUrl="" songAudioFileUrl="" stabilizationMode="0" mediaItemType="1" />
    <MediaItem id="135" filePath="C:\Skocia\DSC02730.JPG" arWidth="3648" arHeight="2056" duration="0" songTitle="" songArtist="" songAlbum="" songCopyrightUrl="" songArtistUrl="" songAudioFileUrl="" stabilizationMode="0" mediaItemType="2" />
    <MediaItem id="299" filePath="C:\Skocia\Rosslyn3.jpg" arWidth="768" arHeight="1024" duration="0" songTitle="" songArtist="" songAlbum="" songCopyrightUrl="" songArtistUrl="" songAudioFileUrl="" stabilizationMode="0" mediaItemType="2" />
    <MediaItem id="300" filePath="C:\Skocia\MAH03012.MP4" arWidth="5760" arHeight="3240" duration="27.84" songTitle="" songArtist="" songAlbum="" songCopyrightUrl="" songArtistUrl="" songAudioFileUrl="" stabilizationMode="0" mediaItemType="1" />
    <MediaItem id="137" filePath="C:\Skocia\DSC02732.JPG" arWidth="3648" arHeight="2056" duration="0" songTitle="" songArtist="" songAlbum="" songCopyrightUrl="" songArtistUrl="" songAudioFileUrl="" stabilizationMode="0" mediaItemType="2" />
    <MediaItem id="301" filePath="C:\Skocia\MAH03131.MP4" arWidth="1920" arHeight="1080" duration="119.64" songTitle="" songArtist="" songAlbum="" songCopyrightUrl="" songArtistUrl="" songAudioFileUrl="" stabilizationMode="0" mediaItemType="1" />
    <MediaItem id="302" filePath="C:\Skocia\Rosslyn4.jpg" arWidth="3648" arHeight="2736" duration="0" songTitle="" songArtist="" songAlbum="" songCopyrightUrl="" songArtistUrl="" songAudioFileUrl="" stabilizationMode="0" mediaItemType="2" />
    <MediaItem id="303" filePath="C:\Skocia\DSC03247.JPG" arWidth="3648" arHeight="2056" duration="0" songTitle="" songArtist="" songAlbum="" songCopyrightUrl="" songArtistUrl="" songAudioFileUrl="" stabilizationMode="0" mediaItemType="2" />
    <MediaItem id="141" filePath="C:\Skocia\DSC02736.JPG" arWidth="3648" arHeight="2056" duration="0" songTitle="" songArtist="" songAlbum="" songCopyrightUrl="" songArtistUrl="" songAudioFileUrl="" stabilizationMode="0" mediaItemType="2" />
    <MediaItem id="305" filePath="C:\Skocia\DSC03017.JPG" arWidth="3648" arHeight="2056" duration="0" songTitle="" songArtist="" songAlbum="" songCopyrightUrl="" songArtistUrl="" songAudioFileUrl="" stabilizationMode="0" mediaItemType="2" />
    <MediaItem id="142" filePath="C:\Skocia\DSC02737.JPG" arWidth="3648" arHeight="2056" duration="0" songTitle="" songArtist="" songAlbum="" songCopyrightUrl="" songArtistUrl="" songAudioFileUrl="" stabilizationMode="0" mediaItemType="2" />
    <MediaItem id="306" filePath="C:\Skocia\DSC03018.JPG" arWidth="3648" arHeight="2056" duration="0" songTitle="" songArtist="" songAlbum="" songCopyrightUrl="" songArtistUrl="" songAudioFileUrl="" stabilizationMode="0" mediaItemType="2" />
    <MediaItem id="143" filePath="C:\Skocia\DSC02738.JPG" arWidth="3648" arHeight="2056" duration="0" songTitle="" songArtist="" songAlbum="" songCopyrightUrl="" songArtistUrl="" songAudioFileUrl="" stabilizationMode="0" mediaItemType="2" />
    <MediaItem id="307" filePath="C:\Skocia\DSC03019.JPG" arWidth="2056" arHeight="3648" duration="0" songTitle="" songArtist="" songAlbum="" songCopyrightUrl="" songArtistUrl="" songAudioFileUrl="" stabilizationMode="0" mediaItemType="2" />
    <MediaItem id="144" filePath="C:\Skocia\MAH02816.MP4" arWidth="5760" arHeight="3240" duration="24" songTitle="" songArtist="" songAlbum="" songCopyrightUrl="" songArtistUrl="" songAudioFileUrl="" stabilizationMode="0" mediaItemType="1" />
    <MediaItem id="308" filePath="C:\Skocia\DSC03248.JPG" arWidth="3648" arHeight="2056" duration="0" songTitle="" songArtist="" songAlbum="" songCopyrightUrl="" songArtistUrl="" songAudioFileUrl="" stabilizationMode="0" mediaItemType="2" />
    <MediaItem id="309" filePath="C:\Skocia\MAH03021.MP4" arWidth="5760" arHeight="3240" duration="22.079999900000001" songTitle="" songArtist="" songAlbum="" songCopyrightUrl="" songArtistUrl="" songAudioFileUrl="" stabilizationMode="0" mediaItemType="1" />
    <MediaItem id="146" filePath="C:\Skocia\DSC02741.JPG" arWidth="3648" arHeight="2056" duration="0" songTitle="" songArtist="" songAlbum="" songCopyrightUrl="" songArtistUrl="" songAudioFileUrl="" stabilizationMode="0" mediaItemType="2" />
    <MediaItem id="310" filePath="C:\Skocia\DSC03022.JPG" arWidth="3648" arHeight="2056" duration="0" songTitle="" songArtist="" songAlbum="" songCopyrightUrl="" songArtistUrl="" songAudioFileUrl="" stabilizationMode="0" mediaItemType="2" />
    <MediaItem id="148" filePath="C:\Skocia\MAH02818.MP4" arWidth="5760" arHeight="3240" duration="29.280000000000001" songTitle="" songArtist="" songAlbum="" songCopyrightUrl="" songArtistUrl="" songAudioFileUrl="" stabilizationMode="0" mediaItemType="1" />
    <MediaItem id="312" filePath="C:\Skocia\MAH03024.MP4" arWidth="5760" arHeight="3240" duration="40.32" songTitle="" songArtist="" songAlbum="" songCopyrightUrl="" songArtistUrl="" songAudioFileUrl="" stabilizationMode="0" mediaItemType="1" />
    <MediaItem id="313" filePath="C:\Skocia\DSC03136.JPG" arWidth="3648" arHeight="2056" duration="0" songTitle="" songArtist="" songAlbum="" songCopyrightUrl="" songArtistUrl="" songAudioFileUrl="" stabilizationMode="0" mediaItemType="2" />
    <MediaItem id="314" filePath="C:\Skocia\DSC03026.JPG" arWidth="3648" arHeight="2056" duration="0" songTitle="" songArtist="" songAlbum="" songCopyrightUrl="" songArtistUrl="" songAudioFileUrl="" stabilizationMode="0" mediaItemType="2" />
    <MediaItem id="315" filePath="C:\Skocia\DSC03027.JPG" arWidth="3648" arHeight="2056" duration="0" songTitle="" songArtist="" songAlbum="" songCopyrightUrl="" songArtistUrl="" songAudioFileUrl="" stabilizationMode="0" mediaItemType="2" />
    <MediaItem id="318" filePath="C:\Skocia\Rosslyn6.jpg" arWidth="750" arHeight="1000" duration="0" songTitle="" songArtist="" songAlbum="" songCopyrightUrl="" songArtistUrl="" songAudioFileUrl="" stabilizationMode="0" mediaItemType="2" />
    <MediaItem id="156" filePath="C:\Skocia\DSC02751.JPG" arWidth="3648" arHeight="2056" duration="0" songTitle="" songArtist="" songAlbum="" songCopyrightUrl="" songArtistUrl="" songAudioFileUrl="" stabilizationMode="0" mediaItemType="2" />
    <MediaItem id="157" filePath="C:\Skocia\DSC02752.JPG" arWidth="2056" arHeight="3648" duration="0" songTitle="" songArtist="" songAlbum="" songCopyrightUrl="" songArtistUrl="" songAudioFileUrl="" stabilizationMode="0" mediaItemType="2" />
    <MediaItem id="321" filePath="C:\Skocia\MAH03139.MP4" arWidth="1920" arHeight="1080" duration="29.879999999999999" songTitle="" songArtist="" songAlbum="" songCopyrightUrl="" songArtistUrl="" songAudioFileUrl="" stabilizationMode="0" mediaItemType="1" />
    <MediaItem id="158" filePath="C:\Skocia\DSC02753.JPG" arWidth="3648" arHeight="2056" duration="0" songTitle="" songArtist="" songAlbum="" songCopyrightUrl="" songArtistUrl="" songAudioFileUrl="" stabilizationMode="0" mediaItemType="2" />
    <MediaItem id="322" filePath="C:\Skocia\DSC03034.JPG" arWidth="3648" arHeight="2056" duration="0" songTitle="" songArtist="" songAlbum="" songCopyrightUrl="" songArtistUrl="" songAudioFileUrl="" stabilizationMode="0" mediaItemType="2" />
    <MediaItem id="323" filePath="C:\Skocia\Rosslyn7.jpg" arWidth="800" arHeight="946" duration="0" songTitle="" songArtist="" songAlbum="" songCopyrightUrl="" songArtistUrl="" songAudioFileUrl="" stabilizationMode="0" mediaItemType="2" />
    <MediaItem id="160" filePath="C:\Skocia\DSC02755.JPG" arWidth="2056" arHeight="3648" duration="0" songTitle="" songArtist="" songAlbum="" songCopyrightUrl="" songArtistUrl="" songAudioFileUrl="" stabilizationMode="0" mediaItemType="2" />
    <MediaItem id="161" filePath="C:\Skocia\DSC02756.JPG" arWidth="3648" arHeight="2056" duration="0" songTitle="" songArtist="" songAlbum="" songCopyrightUrl="" songArtistUrl="" songAudioFileUrl="" stabilizationMode="0" mediaItemType="2" />
    <MediaItem id="325" filePath="C:\Skocia\DSC03037.JPG" arWidth="3238" arHeight="1924" duration="0" songTitle="" songArtist="" songAlbum="" songCopyrightUrl="" songArtistUrl="" songAudioFileUrl="" stabilizationMode="0" mediaItemType="2" />
    <MediaItem id="162" filePath="C:\Skocia\DSC02757.JPG" arWidth="3648" arHeight="2056" duration="0" songTitle="" songArtist="" songAlbum="" songCopyrightUrl="" songArtistUrl="" songAudioFileUrl="" stabilizationMode="0" mediaItemType="2" />
  </MediaItems>
  <Extents>
    <VideoClip extentID="5" gapBefore="0" mediaItemID="256" inTime="1.9666666666669244" outTime="6.8933333333334303" speed="1" stabilizationMode="0">
      <Effects>
        <ShaderEffect effectTemplateID="FadeInFromBlackEffectTemplate">
          <BoundProperties />
        </ShaderEffect>
      </Effects>
      <Transitions />
      <BoundProperties>
        <BoundPropertyBool Name="Mute" Value="false" />
        <BoundPropertyInt Name="rotateStepNinety" Value="0" />
        <BoundPropertyFloat Name="Volume" Value="0" />
      </BoundProperties>
    </VideoClip>
    <VideoClip extentID="6" gapBefore="0" mediaItemID="584" inTime="3.1666666666668561" outTime="14.766666666666993" speed="1" stabilizationMode="0">
      <Effects>
        <ShaderEffect effectTemplateID="FadeInFromBlackEffectTemplate">
          <BoundProperties />
        </ShaderEffect>
      </Effects>
      <Transitions />
      <BoundProperties>
        <BoundPropertyBool Name="Mute" Value="false" />
        <BoundPropertyInt Name="rotateStepNinety" Value="0" />
        <BoundPropertyFloat Name="Volume" Value="0" />
      </BoundProperties>
    </VideoClip>
    <TitleClip extentID="7" gapBefore="67.694992624920786" duration="2">
      <Effects>
        <TextEffect effectTemplateID="TextEffectFadeZoomTemplate" TextScriptId="9">
          <BoundProperties>
            <BoundPropertyBool Name="automatic" Value="false" />
            <BoundPropertyFloatSet Name="color">
              <BoundPropertyFloatElement Value="1" />
              <BoundPropertyFloatElement Value="1" />
              <BoundPropertyFloatElement Value="1" />
            </BoundPropertyFloatSet>
            <BoundPropertyStringSet Name="family">
              <BoundPropertyStringElement Value="Segoe UI" />
            </BoundPropertyStringSet>
            <BoundPropertyBool Name="horizontal" Value="true" />
            <BoundPropertyStringSet Name="justify">
              <BoundPropertyStringElement Value="MIDDLE" />
            </BoundPropertyStringSet>
            <BoundPropertyBool Name="leftToRight" Value="true" />
            <BoundPropertyFloatSet Name="length" />
            <BoundPropertyFloat Name="maxExtent" Value="0" />
            <BoundPropertyFloatSet Name="outlineColor">
              <BoundPropertyFloatElement Value="0.64705884456634521" />
              <BoundPropertyFloatElement Value="0.64705884456634521" />
              <BoundPropertyFloatElement Value="0.64705884456634521" />
            </BoundPropertyFloatSet>
            <BoundPropertyInt Name="outlineSizeIndex" Value="0" />
            <BoundPropertyFloatSet Name="position">
              <BoundPropertyFloatElement Value="-0.1745452880859375" />
              <BoundPropertyFloatElement Value="-1.4129033088684082" />
              <BoundPropertyFloatElement Value="0.02500000037252903" />
            </BoundPropertyFloatSet>
            <BoundPropertyFloat Name="size" Value="0.60000002384185791" />
            <BoundPropertyStringSet Name="string">
              <BoundPropertyStringElement Value="Edinburgh-i vár" />
            </BoundPropertyStringSet>
            <BoundPropertyString Name="style" Value="Bold" />
            <BoundPropertyFloat Name="transparency" Value="0" />
          </BoundProperties>
        </TextEffect>
      </Effects>
      <Transitions />
      <BoundProperties>
        <BoundPropertyFloatSet Name="diffuseColor">
          <BoundPropertyFloatElement Value="0.75" />
          <BoundPropertyFloatElement Value="1" />
          <BoundPropertyFloatElement Value="0" />
        </BoundPropertyFloatSet>
        <BoundPropertyFloat Name="transparency" Value="1" />
      </BoundProperties>
    </TitleClip>
    <VideoClip extentID="8" gapBefore="0" mediaItemID="4" inTime="0" outTime="2.3466666666666782" speed="1" stabilizationMode="0">
      <Effects />
      <Transitions />
      <BoundProperties>
        <BoundPropertyBool Name="Mute" Value="false" />
        <BoundPropertyInt Name="rotateStepNinety" Value="0" />
        <BoundPropertyFloat Name="Volume" Value="0" />
      </BoundProperties>
    </VideoClip>
    <AudioClip extentID="9" gapBefore="4.3635110609704952" mediaItemID="80" inTime="0.63" outTime="31.440000000000001" speed="1">
      <Effects />
      <Transitions />
      <BoundProperties>
        <BoundPropertyBool Name="Mute" Value="false" />
        <BoundPropertyFloat Name="Volume" Value="1" />
      </BoundProperties>
    </AudioClip>
    <AudioClip extentID="10" gapBefore="3.810508667361205" mediaItemID="33" inTime="0.20999999999999999" outTime="49.560000000000002" speed="1">
      <Effects />
      <Transitions />
      <BoundProperties>
        <BoundPropertyBool Name="Mute" Value="false" />
        <BoundPropertyFloat Name="Volume" Value="0.54901963472366333" />
      </BoundProperties>
    </AudioClip>
    <VideoClip extentID="11" gapBefore="0" mediaItemID="7" inTime="0" outTime="0.90000000000000568" speed="0.5" stabilizationMode="0">
      <Effects />
      <Transitions>
        <ShaderEffect effectTemplateID="DiagonalCrossOutTransitionTemplate" duration="1.5">
          <BoundProperties />
        </ShaderEffect>
      </Transitions>
      <BoundProperties>
        <BoundPropertyBool Name="Mute" Value="false" />
        <BoundPropertyInt Name="rotateStepNinety" Value="0" />
        <BoundPropertyFloat Name="Volume" Value="0" />
      </BoundProperties>
    </VideoClip>
    <VideoClip extentID="533" gapBefore="0" mediaItemID="388" inTime="31.033333333333303" outTime="44.266666666666424" speed="1" stabilizationMode="0">
      <Effects />
      <Transitions />
      <BoundProperties>
        <BoundPropertyBool Name="Mute" Value="false" />
        <BoundPropertyInt Name="rotateStepNinety" Value="0" />
        <BoundPropertyFloat Name="Volume" Value="1.3333333730697632" />
      </BoundProperties>
    </VideoClip>
    <VideoClip extentID="12" gapBefore="0" mediaItemID="586" inTime="16.486666666666565" outTime="21.579999999999075" speed="1" stabilizationMode="0">
      <Effects />
      <Transitions>
        <ShapeEffect effectTemplateID="CrossfadeTransitionTemplate" duration="1.5">
          <BoundProperties />
        </ShapeEffect>
      </Transitions>
      <BoundProperties>
        <BoundPropertyBool Name="Mute" Value="false" />
        <BoundPropertyInt Name="rotateStepNinety" Value="0" />
        <BoundPropertyFloat Name="Volume" Value="0" />
      </BoundProperties>
    </VideoClip>
    <VideoClip extentID="13" gapBefore="0" mediaItemID="30" inTime="41.086666666665053" outTime="49.42666666666662" speed="1" stabilizationMode="0">
      <Effects />
      <Transitions />
      <BoundProperties>
        <BoundPropertyBool Name="Mute" Value="false" />
        <BoundPropertyInt Name="rotateStepNinety" Value="0" />
        <BoundPropertyFloat Name="Volume" Value="0" />
      </BoundProperties>
    </VideoClip>
    <VideoClip extentID="535" gapBefore="0" mediaItemID="388" inTime="9.433333333333394" outTime="23.300000000000182" speed="1" stabilizationMode="0">
      <Effects>
        <AudioEffect effectTemplateID="AudioFadeEffectTemplate">
          <BoundProperties>
            <BoundPropertyFloat Name="AudioFadeInDuration" Value="10" />
            <BoundPropertyFloat Name="AudioFadeOutDuration" Value="0" />
          </BoundProperties>
        </AudioEffect>
      </Effects>
      <Transitions />
      <BoundProperties>
        <BoundPropertyBool Name="Mute" Value="false" />
        <BoundPropertyInt Name="rotateStepNinety" Value="0" />
        <BoundPropertyFloat Name="Volume" Value="1" />
      </BoundProperties>
    </VideoClip>
    <VideoClip extentID="14" gapBefore="0" mediaItemID="30" inTime="15.959999999999241" outTime="19.633333333333326" speed="1" stabilizationMode="0">
      <Effects />
      <Transitions />
      <BoundProperties>
        <BoundPropertyBool Name="Mute" Value="false" />
        <BoundPropertyInt Name="rotateStepNinety" Value="0" />
        <BoundPropertyFloat Name="Volume" Value="0" />
      </BoundProperties>
    </VideoClip>
    <ImageClip extentID="15" gapBefore="0" mediaItemID="63" duration="3">
      <Effects>
        <ShaderEffect effectTemplateID="FadeInFromBlackEffectTemplate">
          <BoundProperties />
        </ShaderEffect>
      </Effects>
      <Transitions />
      <BoundProperties>
        <BoundPropertyInt Name="rotateStepNinety" Value="0" />
      </BoundProperties>
    </ImageClip>
    <VideoClip extentID="16" gapBefore="0" mediaItemID="12" inTime="0" outTime="4.4333333333333371" speed="1" stabilizationMode="0">
      <Effects />
      <Transitions />
      <BoundProperties>
        <BoundPropertyBool Name="Mute" Value="false" />
        <BoundPropertyInt Name="rotateStepNinety" Value="0" />
        <BoundPropertyFloat Name="Volume" Value="0" />
      </BoundProperties>
    </VideoClip>
    <AudioClip extentID="17" gapBefore="1.479949747721264" mediaItemID="34" inTime="0.71999999999999997" outTime="29.384158937268097" speed="1">
      <Effects />
      <Transitions />
      <BoundProperties>
        <BoundPropertyBool Name="Mute" Value="false" />
        <BoundPropertyFloat Name="Volume" Value="0.43137258291244507" />
      </BoundProperties>
    </AudioClip>
    <VideoClip extentID="18" gapBefore="0" mediaItemID="590" inTime="11.519973266666966" outTime="13.5" speed="1" stabilizationMode="0">
      <Effects />
      <Transitions />
      <BoundProperties>
        <BoundPropertyBool Name="Mute" Value="false" />
        <BoundPropertyInt Name="rotateStepNinety" Value="0" />
        <BoundPropertyFloat Name="Volume" Value="0" />
      </BoundProperties>
    </VideoClip>
    <ImageClip extentID="19" gapBefore="0" mediaItemID="1" duration="2.7999999999999998">
      <Effects />
      <Transitions />
      <BoundProperties>
        <BoundPropertyInt Name="rotateStepNinety" Value="0" />
      </BoundProperties>
    </ImageClip>
    <VideoClip extentID="20" gapBefore="0" mediaItemID="591" inTime="10" outTime="21.253306600000315" speed="1" stabilizationMode="0">
      <Effects />
      <Transitions />
      <BoundProperties>
        <BoundPropertyBool Name="Mute" Value="false" />
        <BoundPropertyInt Name="rotateStepNinety" Value="0" />
        <BoundPropertyFloat Name="Volume" Value="0" />
      </BoundProperties>
    </VideoClip>
    <VideoClip extentID="21" gapBefore="0" mediaItemID="19" inTime="20.699999999999932" outTime="26.879999999999999" speed="1" stabilizationMode="0">
      <Effects />
      <Transitions />
      <BoundProperties>
        <BoundPropertyBool Name="Mute" Value="false" />
        <BoundPropertyInt Name="rotateStepNinety" Value="0" />
        <BoundPropertyFloat Name="Volume" Value="0" />
      </BoundProperties>
    </VideoClip>
    <TitleClip extentID="22" gapBefore="0" duration="1">
      <Effects />
      <Transitions />
      <BoundProperties>
        <BoundPropertyFloatSet Name="diffuseColor">
          <BoundPropertyFloatElement Value="0" />
          <BoundPropertyFloatElement Value="0" />
          <BoundPropertyFloatElement Value="0" />
        </BoundPropertyFloatSet>
        <BoundPropertyFloat Name="transparency" Value="0" />
      </BoundProperties>
    </TitleClip>
    <TitleClip extentID="23" gapBefore="0" duration="1">
      <Effects />
      <Transitions />
      <BoundProperties>
        <BoundPropertyFloatSet Name="diffuseColor">
          <BoundPropertyFloatElement Value="0" />
          <BoundPropertyFloatElement Value="0" />
          <BoundPropertyFloatElement Value="0" />
        </BoundPropertyFloatSet>
        <BoundPropertyFloat Name="transparency" Value="0" />
      </BoundProperties>
    </TitleClip>
    <VideoClip extentID="545" gapBefore="0" mediaItemID="392" inTime="1.7333333333335759" outTime="14.100000000000364" speed="0.94999999999999996" stabilizationMode="0">
      <Effects />
      <Transitions />
      <BoundProperties>
        <BoundPropertyBool Name="Mute" Value="false" />
        <BoundPropertyInt Name="rotateStepNinety" Value="0" />
        <BoundPropertyFloat Name="Volume" Value="0" />
      </BoundProperties>
    </VideoClip>
    <ImageClip extentID="24" gapBefore="0" mediaItemID="86" duration="2.8999999999999999">
      <Effects />
      <Transitions />
      <BoundProperties>
        <BoundPropertyInt Name="rotateStepNinety" Value="0" />
      </BoundProperties>
    </ImageClip>
    <ImageClip extentID="25" gapBefore="0" mediaItemID="69" duration="3">
      <Effects />
      <Transitions />
      <BoundProperties>
        <BoundPropertyInt Name="rotateStepNinety" Value="0" />
      </BoundProperties>
    </ImageClip>
    <VideoClip extentID="547" gapBefore="0" mediaItemID="393" inTime="10.766666666666879" outTime="14.032020033914705" speed="1" stabilizationMode="0">
      <Effects />
      <Transitions>
        <ShapeEffect effectTemplateID="FlipTransitionTemplate" duration="1.5">
          <BoundProperties />
        </ShapeEffect>
      </Transitions>
      <BoundProperties>
        <BoundPropertyBool Name="Mute" Value="false" />
        <BoundPropertyInt Name="rotateStepNinety" Value="0" />
        <BoundPropertyFloat Name="Volume" Value="0" />
      </BoundProperties>
    </VideoClip>
    <ImageClip extentID="26" gapBefore="0" mediaItemID="27" duration="9">
      <Effects>
        <ShaderEffect effectTemplateID="FadeOutToBlackEffectTemplate">
          <BoundProperties />
        </ShaderEffect>
      </Effects>
      <Transitions>
        <ShapeEffect effectTemplateID="CrossfadeTransitionTemplate" duration="1.5">
          <BoundProperties />
        </ShapeEffect>
      </Transitions>
      <BoundProperties>
        <BoundPropertyInt Name="rotateStepNinety" Value="0" />
      </BoundProperties>
    </ImageClip>
    <VideoClip extentID="27" gapBefore="0" mediaItemID="144" inTime="8.6399733666657994" outTime="21.300000100000034" speed="1" stabilizationMode="0">
      <Effects />
      <Transitions />
      <BoundProperties>
        <BoundPropertyBool Name="Mute" Value="false" />
        <BoundPropertyInt Name="rotateStepNinety" Value="0" />
        <BoundPropertyFloat Name="Volume" Value="0" />
      </BoundProperties>
    </VideoClip>
    <VideoClip extentID="28" gapBefore="0" mediaItemID="598" inTime="14.177777777777465" outTime="24.424444444444077" speed="1" stabilizationMode="0">
      <Effects />
      <Transitions>
        <ShapeEffect effectTemplateID="BlurThroughBlackTransitionTemplate" duration="1.5">
          <BoundProperties />
        </ShapeEffect>
      </Transitions>
      <BoundProperties>
        <BoundPropertyBool Name="Mute" Value="false" />
        <BoundPropertyInt Name="rotateStepNinety" Value="0" />
        <BoundPropertyFloat Name="Volume" Value="0" />
      </BoundProperties>
    </VideoClip>
    <VideoClip extentID="29" gapBefore="0" mediaItemID="596" inTime="17.7800000000002" outTime="17.977500000000219" speed="0.125" stabilizationMode="0">
      <Effects />
      <Transitions>
        <ShaderEffect effectTemplateID="PageCurlUpLeftTransitionTemplate" duration="1.5">
          <BoundProperties />
        </ShaderEffect>
      </Transitions>
      <BoundProperties>
        <BoundPropertyBool Name="Mute" Value="false" />
        <BoundPropertyInt Name="rotateStepNinety" Value="0" />
        <BoundPropertyFloat Name="Volume" Value="0" />
      </BoundProperties>
    </VideoClip>
    <TitleClip extentID="30" gapBefore="181.52000747508151" duration="2">
      <Effects>
        <TextEffect effectTemplateID="TextEffectFadeZoomTemplate" TextScriptId="9">
          <BoundProperties>
            <BoundPropertyBool Name="automatic" Value="false" />
            <BoundPropertyFloatSet Name="color">
              <BoundPropertyFloatElement Value="1" />
              <BoundPropertyFloatElement Value="1" />
              <BoundPropertyFloatElement Value="1" />
            </BoundPropertyFloatSet>
            <BoundPropertyStringSet Name="family">
              <BoundPropertyStringElement Value="Segoe UI" />
            </BoundPropertyStringSet>
            <BoundPropertyBool Name="horizontal" Value="true" />
            <BoundPropertyStringSet Name="justify">
              <BoundPropertyStringElement Value="MIDDLE" />
            </BoundPropertyStringSet>
            <BoundPropertyBool Name="leftToRight" Value="true" />
            <BoundPropertyFloatSet Name="length" />
            <BoundPropertyFloat Name="maxExtent" Value="0" />
            <BoundPropertyFloatSet Name="outlineColor">
              <BoundPropertyFloatElement Value="0.64705884456634521" />
              <BoundPropertyFloatElement Value="0.64705884456634521" />
              <BoundPropertyFloatElement Value="0.64705884456634521" />
            </BoundPropertyFloatSet>
            <BoundPropertyInt Name="outlineSizeIndex" Value="0" />
            <BoundPropertyFloatSet Name="position">
              <BoundPropertyFloatElement Value="-0.6012120246887207" />
              <BoundPropertyFloatElement Value="-0.83225798606872559" />
              <BoundPropertyFloatElement Value="0.02500000037252903" />
            </BoundPropertyFloatSet>
            <BoundPropertyFloat Name="size" Value="0.80000001192092896" />
            <BoundPropertyStringSet Name="string">
              <BoundPropertyStringElement Value="Culzean-kastély" />
            </BoundPropertyStringSet>
            <BoundPropertyString Name="style" Value="Bold" />
            <BoundPropertyFloat Name="transparency" Value="0" />
          </BoundProperties>
        </TextEffect>
      </Effects>
      <Transitions />
      <BoundProperties>
        <BoundPropertyFloatSet Name="diffuseColor">
          <BoundPropertyFloatElement Value="0.75" />
          <BoundPropertyFloatElement Value="1" />
          <BoundPropertyFloatElement Value="0" />
        </BoundPropertyFloatSet>
        <BoundPropertyFloat Name="transparency" Value="1" />
      </BoundProperties>
    </TitleClip>
    <VideoClip extentID="31" gapBefore="0" mediaItemID="100" inTime="1.2682931333285978" outTime="6.1016264666618554" speed="1" stabilizationMode="0">
      <Effects>
        <ShaderEffect effectTemplateID="FadeInFromBlackEffectTemplate">
          <BoundProperties />
        </ShaderEffect>
      </Effects>
      <Transitions />
      <BoundProperties>
        <BoundPropertyBool Name="Mute" Value="false" />
        <BoundPropertyInt Name="rotateStepNinety" Value="0" />
        <BoundPropertyFloat Name="Volume" Value="0" />
      </BoundProperties>
    </VideoClip>
    <VideoClip extentID="32" gapBefore="0" mediaItemID="10" inTime="0" outTime="0" speed="1" stabilizationMode="0">
      <Effects />
      <Transitions />
      <BoundProperties>
        <BoundPropertyBool Name="Mute" Value="false" />
        <BoundPropertyInt Name="rotateStepNinety" Value="0" />
        <BoundPropertyFloat Name="Volume" Value="1" />
      </BoundProperties>
    </VideoClip>
    <VideoClip extentID="33" gapBefore="0" mediaItemID="10" inTime="32.079999999999984" outTime="36.479999900000003" speed="1" stabilizationMode="0">
      <Effects />
      <Transitions />
      <BoundProperties>
        <BoundPropertyBool Name="Mute" Value="false" />
        <BoundPropertyInt Name="rotateStepNinety" Value="0" />
        <BoundPropertyFloat Name="Volume" Value="1" />
      </BoundProperties>
    </VideoClip>
    <AudioClip extentID="34" gapBefore="0.5394178111142196" mediaItemID="34" inTime="29.384158937268097" outTime="39.75" speed="1">
      <Effects />
      <Transitions />
      <BoundProperties>
        <BoundPropertyBool Name="Mute" Value="false" />
        <BoundPropertyFloat Name="Volume" Value="0.43137258291244507" />
      </BoundProperties>
    </AudioClip>
    <VideoClip extentID="35" gapBefore="0" mediaItemID="23" inTime="18.393333333333089" outTime="23.846666666666692" speed="1" stabilizationMode="0">
      <Effects />
      <Transitions>
        <ShapeEffect effectTemplateID="CrossfadeTransitionTemplate" duration="1.5">
          <BoundProperties />
        </ShapeEffect>
      </Transitions>
      <BoundProperties>
        <BoundPropertyBool Name="Mute" Value="false" />
        <BoundPropertyInt Name="rotateStepNinety" Value="0" />
        <BoundPropertyFloat Name="Volume" Value="0" />
      </BoundProperties>
    </VideoClip>
    <VideoClip extentID="36" gapBefore="0" mediaItemID="64" inTime="0" outTime="5.524417711110118" speed="1" stabilizationMode="0">
      <Effects />
      <Transitions />
      <BoundProperties>
        <BoundPropertyBool Name="Mute" Value="false" />
        <BoundPropertyInt Name="rotateStepNinety" Value="0" />
        <BoundPropertyFloat Name="Volume" Value="0" />
      </BoundProperties>
    </VideoClip>
    <TitleClip extentID="37" gapBefore="21.40956298828155" duration="2">
      <Effects>
        <TextEffect effectTemplateID="TextEffectFadeTemplate" TextScriptId="1">
          <BoundProperties>
            <BoundPropertyBool Name="automatic" Value="false" />
            <BoundPropertyFloatSet Name="color">
              <BoundPropertyFloatElement Value="1" />
              <BoundPropertyFloatElement Value="1" />
              <BoundPropertyFloatElement Value="1" />
            </BoundPropertyFloatSet>
            <BoundPropertyStringSet Name="family">
              <BoundPropertyStringElement Value="Segoe UI" />
            </BoundPropertyStringSet>
            <BoundPropertyBool Name="horizontal" Value="true" />
            <BoundPropertyStringSet Name="justify">
              <BoundPropertyStringElement Value="MIDDLE" />
            </BoundPropertyStringSet>
            <BoundPropertyBool Name="leftToRight" Value="true" />
            <BoundPropertyFloatSet Name="length" />
            <BoundPropertyFloat Name="maxExtent" Value="0" />
            <BoundPropertyFloatSet Name="outlineColor">
              <BoundPropertyFloatElement Value="0.64705884456634521" />
              <BoundPropertyFloatElement Value="0.64705884456634521" />
              <BoundPropertyFloatElement Value="0.64705884456634521" />
            </BoundPropertyFloatSet>
            <BoundPropertyInt Name="outlineSizeIndex" Value="0" />
            <BoundPropertyFloatSet Name="position">
              <BoundPropertyFloatElement Value="-0.2133336067199707" />
              <BoundPropertyFloatElement Value="0.7935483455657959" />
              <BoundPropertyFloatElement Value="0.02500000037252903" />
            </BoundPropertyFloatSet>
            <BoundPropertyFloat Name="size" Value="0.80000001192092896" />
            <BoundPropertyStringSet Name="string">
              <BoundPropertyStringElement Value="Stirling" />
            </BoundPropertyStringSet>
            <BoundPropertyString Name="style" Value="Plain" />
            <BoundPropertyFloat Name="transparency" Value="0" />
          </BoundProperties>
        </TextEffect>
      </Effects>
      <Transitions />
      <BoundProperties>
        <BoundPropertyFloatSet Name="diffuseColor">
          <BoundPropertyFloatElement Value="0.75" />
          <BoundPropertyFloatElement Value="1" />
          <BoundPropertyFloatElement Value="0" />
        </BoundPropertyFloatSet>
        <BoundPropertyFloat Name="transparency" Value="1" />
      </BoundProperties>
    </TitleClip>
    <ImageClip extentID="38" gapBefore="0" mediaItemID="20" duration="4">
      <Effects />
      <Transitions />
      <BoundProperties>
        <BoundPropertyInt Name="rotateStepNinety" Value="0" />
      </BoundProperties>
    </ImageClip>
    <ImageClip extentID="39" gapBefore="0" mediaItemID="21" duration="3">
      <Effects />
      <Transitions />
      <BoundProperties>
        <BoundPropertyInt Name="rotateStepNinety" Value="0" />
      </BoundProperties>
    </ImageClip>
    <ImageClip extentID="40" gapBefore="0" mediaItemID="22" duration="2.5">
      <Effects />
      <Transitions />
      <BoundProperties>
        <BoundPropertyInt Name="rotateStepNinety" Value="0" />
      </BoundProperties>
    </ImageClip>
    <VideoClip extentID="41" gapBefore="0" mediaItemID="174" inTime="4.8666666666665606" outTime="19.919999899999993" speed="1" stabilizationMode="0">
      <Effects />
      <Transitions />
      <BoundProperties>
        <BoundPropertyBool Name="Mute" Value="false" />
        <BoundPropertyInt Name="rotateStepNinety" Value="0" />
        <BoundPropertyFloat Name="Volume" Value="0" />
      </BoundProperties>
    </VideoClip>
    <ImageClip extentID="42" gapBefore="0" mediaItemID="24" duration="3">
      <Effects>
        <ShaderEffect effectTemplateID="FadeOutToBlackEffectTemplate">
          <BoundProperties />
        </ShaderEffect>
      </Effects>
      <Transitions />
      <BoundProperties>
        <BoundPropertyInt Name="rotateStepNinety" Value="0" />
      </BoundProperties>
    </ImageClip>
    <VideoClip extentID="43" gapBefore="0" mediaItemID="600" inTime="40.600000000000023" outTime="42.199999999999989" speed="1" stabilizationMode="0">
      <Effects />
      <Transitions>
        <ShapeEffect effectTemplateID="FlipTransitionTemplate" duration="1.5">
          <BoundProperties />
        </ShapeEffect>
      </Transitions>
      <BoundProperties>
        <BoundPropertyBool Name="Mute" Value="false" />
        <BoundPropertyInt Name="rotateStepNinety" Value="0" />
        <BoundPropertyFloat Name="Volume" Value="0" />
      </BoundProperties>
    </VideoClip>
    <VideoClip extentID="44" gapBefore="0" mediaItemID="26" inTime="1.3666666666665606" outTime="18.133333333333212" speed="1" stabilizationMode="0">
      <Effects />
      <Transitions />
      <BoundProperties>
        <BoundPropertyBool Name="Mute" Value="false" />
        <BoundPropertyInt Name="rotateStepNinety" Value="0" />
        <BoundPropertyFloat Name="Volume" Value="0" />
      </BoundProperties>
    </VideoClip>
    <VideoClip extentID="45" gapBefore="0" mediaItemID="23" inTime="32.446666666666601" outTime="47.519999999999982" speed="1" stabilizationMode="0">
      <Effects>
        <ShaderEffect effectTemplateID="FadeOutToBlackEffectTemplate">
          <BoundProperties />
        </ShaderEffect>
      </Effects>
      <Transitions>
        <ShaderEffect effectTemplateID="InsetDownLeftTransitionTemplate" duration="1.5">
          <BoundProperties />
        </ShaderEffect>
      </Transitions>
      <BoundProperties>
        <BoundPropertyBool Name="Mute" Value="false" />
        <BoundPropertyInt Name="rotateStepNinety" Value="0" />
        <BoundPropertyFloat Name="Volume" Value="0" />
      </BoundProperties>
    </VideoClip>
    <VideoClip extentID="46" gapBefore="0" mediaItemID="592" inTime="22.419973266667" outTime="37.922222222222217" speed="1" stabilizationMode="0">
      <Effects />
      <Transitions />
      <BoundProperties>
        <BoundPropertyBool Name="Mute" Value="false" />
        <BoundPropertyInt Name="rotateStepNinety" Value="0" />
        <BoundPropertyFloat Name="Volume" Value="0" />
      </BoundProperties>
    </VideoClip>
    <ImageClip extentID="47" gapBefore="0" mediaItemID="67" duration="2.7999999999999998">
      <Effects />
      <Transitions />
      <BoundProperties>
        <BoundPropertyInt Name="rotateStepNinety" Value="0" />
      </BoundProperties>
    </ImageClip>
    <VideoClip extentID="48" gapBefore="0" mediaItemID="115" inTime="8.2799999999996317" outTime="13.613333333333003" speed="1" stabilizationMode="0">
      <Effects />
      <Transitions />
      <BoundProperties>
        <BoundPropertyBool Name="Mute" Value="false" />
        <BoundPropertyInt Name="rotateStepNinety" Value="0" />
        <BoundPropertyFloat Name="Volume" Value="0" />
      </BoundProperties>
    </VideoClip>
    <VideoClip extentID="49" gapBefore="0" mediaItemID="600" inTime="71.600000000000023" outTime="91.600000000000023" speed="1" stabilizationMode="0">
      <Effects />
      <Transitions />
      <BoundProperties>
        <BoundPropertyBool Name="Mute" Value="false" />
        <BoundPropertyInt Name="rotateStepNinety" Value="0" />
        <BoundPropertyFloat Name="Volume" Value="0" />
      </BoundProperties>
    </VideoClip>
    <ImageClip extentID="50" gapBefore="0" mediaItemID="68" duration="2.7999999999999998">
      <Effects />
      <Transitions>
        <ShaderEffect effectTemplateID="InsetDownLeftTransitionTemplate" duration="1.5">
          <BoundProperties />
        </ShaderEffect>
      </Transitions>
      <BoundProperties>
        <BoundPropertyInt Name="rotateStepNinety" Value="0" />
      </BoundProperties>
    </ImageClip>
    <AudioClip extentID="51" gapBefore="-0.18264436667095652" mediaItemID="32" inTime="1.1100000000000001" outTime="23.799999999999955" speed="1">
      <Effects />
      <Transitions />
      <BoundProperties>
        <BoundPropertyBool Name="Mute" Value="false" />
        <BoundPropertyFloat Name="Volume" Value="0.54901963472366333" />
      </BoundProperties>
    </AudioClip>
    <AudioClip extentID="52" gapBefore="0.40664661666596658" mediaItemID="34" inTime="51.211415422215083" outTime="84" speed="1">
      <Effects />
      <Transitions />
      <BoundProperties>
        <BoundPropertyBool Name="Mute" Value="false" />
        <BoundPropertyFloat Name="Volume" Value="0.37647062540054321" />
      </BoundProperties>
    </AudioClip>
    <TitleClip extentID="53" gapBefore="0" duration="1">
      <Effects />
      <Transitions />
      <BoundProperties>
        <BoundPropertyFloatSet Name="diffuseColor">
          <BoundPropertyFloatElement Value="0" />
          <BoundPropertyFloatElement Value="0" />
          <BoundPropertyFloatElement Value="0" />
        </BoundPropertyFloatSet>
        <BoundPropertyFloat Name="transparency" Value="0" />
      </BoundProperties>
    </TitleClip>
    <TitleClip extentID="54" gapBefore="0" duration="0.5">
      <Effects />
      <Transitions />
      <BoundProperties>
        <BoundPropertyFloatSet Name="diffuseColor">
          <BoundPropertyFloatElement Value="0" />
          <BoundPropertyFloatElement Value="0" />
          <BoundPropertyFloatElement Value="0" />
        </BoundPropertyFloatSet>
        <BoundPropertyFloat Name="transparency" Value="0" />
      </BoundProperties>
    </TitleClip>
    <VideoClip extentID="55" gapBefore="0" mediaItemID="384" inTime="21.035915466643473" outTime="24.865167866666525" speed="1" stabilizationMode="0">
      <Effects />
      <Transitions />
      <BoundProperties>
        <BoundPropertyBool Name="Mute" Value="false" />
        <BoundPropertyInt Name="rotateStepNinety" Value="0" />
        <BoundPropertyFloat Name="Volume" Value="0" />
      </BoundProperties>
    </VideoClip>
    <VideoClip extentID="56" gapBefore="0" mediaItemID="251" inTime="5.1333333333341216" outTime="9.2066666666682977" speed="1" stabilizationMode="0">
      <Effects />
      <Transitions />
      <BoundProperties>
        <BoundPropertyBool Name="Mute" Value="false" />
        <BoundPropertyInt Name="rotateStepNinety" Value="0" />
        <BoundPropertyFloat Name="Volume" Value="0" />
      </BoundProperties>
    </VideoClip>
    <TitleClip extentID="57" gapBefore="0" duration="1">
      <Effects />
      <Transitions />
      <BoundProperties>
        <BoundPropertyFloatSet Name="diffuseColor">
          <BoundPropertyFloatElement Value="0" />
          <BoundPropertyFloatElement Value="0" />
          <BoundPropertyFloatElement Value="0" />
        </BoundPropertyFloatSet>
        <BoundPropertyFloat Name="transparency" Value="0" />
      </BoundProperties>
    </TitleClip>
    <TitleClip extentID="58" gapBefore="86.01484616661287" duration="1.3999999999999999">
      <Effects>
        <TextEffect effectTemplateID="TextEffectFadeZoomTemplate" TextScriptId="9">
          <BoundProperties>
            <BoundPropertyBool Name="automatic" Value="false" />
            <BoundPropertyFloatSet Name="color">
              <BoundPropertyFloatElement Value="1" />
              <BoundPropertyFloatElement Value="1" />
              <BoundPropertyFloatElement Value="1" />
            </BoundPropertyFloatSet>
            <BoundPropertyStringSet Name="family">
              <BoundPropertyStringElement Value="Segoe UI" />
            </BoundPropertyStringSet>
            <BoundPropertyBool Name="horizontal" Value="true" />
            <BoundPropertyStringSet Name="justify">
              <BoundPropertyStringElement Value="MIDDLE" />
            </BoundPropertyStringSet>
            <BoundPropertyBool Name="leftToRight" Value="true" />
            <BoundPropertyFloatSet Name="length" />
            <BoundPropertyFloat Name="maxExtent" Value="0" />
            <BoundPropertyFloatSet Name="outlineColor">
              <BoundPropertyFloatElement Value="0.64705884456634521" />
              <BoundPropertyFloatElement Value="0.64705884456634521" />
              <BoundPropertyFloatElement Value="0.64705884456634521" />
            </BoundPropertyFloatSet>
            <BoundPropertyInt Name="outlineSizeIndex" Value="0" />
            <BoundPropertyFloatSet Name="position">
              <BoundPropertyFloatElement Value="0.1745457649230957" />
              <BoundPropertyFloatElement Value="-1.2967743873596191" />
              <BoundPropertyFloatElement Value="0.02500000037252903" />
            </BoundPropertyFloatSet>
            <BoundPropertyFloat Name="size" Value="0.80000001192092896" />
            <BoundPropertyStringSet Name="string">
              <BoundPropertyStringElement Value="Blair kastély" />
            </BoundPropertyStringSet>
            <BoundPropertyString Name="style" Value="Bold" />
            <BoundPropertyFloat Name="transparency" Value="0" />
          </BoundProperties>
        </TextEffect>
      </Effects>
      <Transitions />
      <BoundProperties>
        <BoundPropertyFloatSet Name="diffuseColor">
          <BoundPropertyFloatElement Value="0.75" />
          <BoundPropertyFloatElement Value="1" />
          <BoundPropertyFloatElement Value="0" />
        </BoundPropertyFloatSet>
        <BoundPropertyFloat Name="transparency" Value="1" />
      </BoundProperties>
    </TitleClip>
    <ImageClip extentID="59" gapBefore="0" mediaItemID="36" duration="9">
      <Effects />
      <Transitions>
        <ShapeEffect effectTemplateID="CrossfadeTransitionTemplate" duration="1.5">
          <BoundProperties />
        </ShapeEffect>
      </Transitions>
      <BoundProperties>
        <BoundPropertyInt Name="rotateStepNinety" Value="0" />
      </BoundProperties>
    </ImageClip>
    <VideoClip extentID="60" gapBefore="0" mediaItemID="384" inTime="64.735915466643064" outTime="70.798501199999464" speed="1" stabilizationMode="0">
      <Effects />
      <Transitions />
      <BoundProperties>
        <BoundPropertyBool Name="Mute" Value="false" />
        <BoundPropertyInt Name="rotateStepNinety" Value="0" />
        <BoundPropertyFloat Name="Volume" Value="0" />
      </BoundProperties>
    </VideoClip>
    <VideoClip extentID="61" gapBefore="0" mediaItemID="227" inTime="50.999999900000034" outTime="64.126666566666586" speed="1" stabilizationMode="0">
      <Effects />
      <Transitions />
      <BoundProperties>
        <BoundPropertyBool Name="Mute" Value="false" />
        <BoundPropertyInt Name="rotateStepNinety" Value="0" />
        <BoundPropertyFloat Name="Volume" Value="0" />
      </BoundProperties>
    </VideoClip>
    <VideoClip extentID="62" gapBefore="0" mediaItemID="133" inTime="4.6600000000000819" outTime="13.766666666666652" speed="1" stabilizationMode="0">
      <Effects>
        <ShaderEffect effectTemplateID="FadeOutToBlackEffectTemplate">
          <BoundProperties />
        </ShaderEffect>
      </Effects>
      <Transitions />
      <BoundProperties>
        <BoundPropertyBool Name="Mute" Value="false" />
        <BoundPropertyInt Name="rotateStepNinety" Value="0" />
        <BoundPropertyFloat Name="Volume" Value="0" />
      </BoundProperties>
    </VideoClip>
    <VideoClip extentID="63" gapBefore="0" mediaItemID="134" inTime="12.666666666666515" outTime="19.52227568889009" speed="1" stabilizationMode="0">
      <Effects>
        <ShaderEffect effectTemplateID="FadeInFromBlackEffectTemplate">
          <BoundProperties />
        </ShaderEffect>
      </Effects>
      <Transitions />
      <BoundProperties>
        <BoundPropertyBool Name="Mute" Value="false" />
        <BoundPropertyInt Name="rotateStepNinety" Value="0" />
        <BoundPropertyFloat Name="Volume" Value="0" />
      </BoundProperties>
    </VideoClip>
    <ImageClip extentID="64" gapBefore="0" mediaItemID="38" duration="9">
      <Effects>
        <ShaderEffect effectTemplateID="FadeInFromBlackEffectTemplate">
          <BoundProperties />
        </ShaderEffect>
      </Effects>
      <Transitions />
      <BoundProperties>
        <BoundPropertyInt Name="rotateStepNinety" Value="0" />
      </BoundProperties>
    </ImageClip>
    <VideoClip extentID="65" gapBefore="0" mediaItemID="19" inTime="0" outTime="9.966666666666697" speed="0.80000000000000004" stabilizationMode="0">
      <Effects />
      <Transitions />
      <BoundProperties>
        <BoundPropertyBool Name="Mute" Value="false" />
        <BoundPropertyInt Name="rotateStepNinety" Value="0" />
        <BoundPropertyFloat Name="Volume" Value="0" />
      </BoundProperties>
    </VideoClip>
    <ImageClip extentID="66" gapBefore="0" mediaItemID="48" duration="4">
      <Effects />
      <Transitions />
      <BoundProperties>
        <BoundPropertyInt Name="rotateStepNinety" Value="0" />
      </BoundProperties>
    </ImageClip>
    <ImageClip extentID="67" gapBefore="0" mediaItemID="49" duration="3">
      <Effects />
      <Transitions />
      <BoundProperties>
        <BoundPropertyInt Name="rotateStepNinety" Value="0" />
      </BoundProperties>
    </ImageClip>
    <ImageClip extentID="68" gapBefore="0" mediaItemID="50" duration="3">
      <Effects />
      <Transitions />
      <BoundProperties>
        <BoundPropertyInt Name="rotateStepNinety" Value="0" />
      </BoundProperties>
    </ImageClip>
    <AudioClip extentID="69" gapBefore="5.6311111111111103" mediaItemID="25" inTime="0.93333333333333357" outTime="21.073333333333348" speed="1">
      <Effects />
      <Transitions />
      <BoundProperties>
        <BoundPropertyBool Name="Mute" Value="false" />
        <BoundPropertyFloat Name="Volume" Value="0.46274513006210327" />
      </BoundProperties>
    </AudioClip>
    <ImageClip extentID="70" gapBefore="0" mediaItemID="51" duration="3.6000000000000001">
      <Effects />
      <Transitions />
      <BoundProperties>
        <BoundPropertyInt Name="rotateStepNinety" Value="0" />
      </BoundProperties>
    </ImageClip>
    <VideoClip extentID="71" gapBefore="0" mediaItemID="31" inTime="0" outTime="9.066666666666606" speed="1" stabilizationMode="0">
      <Effects />
      <Transitions>
        <ShapeEffect effectTemplateID="FlipTransitionTemplate" duration="1.5">
          <BoundProperties />
        </ShapeEffect>
      </Transitions>
      <BoundProperties>
        <BoundPropertyBool Name="Mute" Value="false" />
        <BoundPropertyInt Name="rotateStepNinety" Value="0" />
        <BoundPropertyFloat Name="Volume" Value="0" />
      </BoundProperties>
    </VideoClip>
    <ImageClip extentID="72" gapBefore="0" mediaItemID="52" duration="3">
      <Effects />
      <Transitions />
      <BoundProperties>
        <BoundPropertyInt Name="rotateStepNinety" Value="0" />
      </BoundProperties>
    </ImageClip>
    <TitleClip extentID="73" gapBefore="0" duration="1">
      <Effects />
      <Transitions />
      <BoundProperties>
        <BoundPropertyFloatSet Name="diffuseColor">
          <BoundPropertyFloatElement Value="0" />
          <BoundPropertyFloatElement Value="0" />
          <BoundPropertyFloatElement Value="0" />
        </BoundPropertyFloatSet>
        <BoundPropertyFloat Name="transparency" Value="0" />
      </BoundProperties>
    </TitleClip>
    <ImageClip extentID="74" gapBefore="0" mediaItemID="53" duration="4">
      <Effects />
      <Transitions />
      <BoundProperties>
        <BoundPropertyInt Name="rotateStepNinety" Value="0" />
      </BoundProperties>
    </ImageClip>
    <ImageClip extentID="75" gapBefore="0" mediaItemID="54" duration="3">
      <Effects />
      <Transitions />
      <BoundProperties>
        <BoundPropertyInt Name="rotateStepNinety" Value="0" />
      </BoundProperties>
    </ImageClip>
    <ImageClip extentID="76" gapBefore="0" mediaItemID="55" duration="4">
      <Effects />
      <Transitions />
      <BoundProperties>
        <BoundPropertyInt Name="rotateStepNinety" Value="0" />
      </BoundProperties>
    </ImageClip>
    <ImageClip extentID="77" gapBefore="0" mediaItemID="56" duration="4">
      <Effects />
      <Transitions />
      <BoundProperties>
        <BoundPropertyInt Name="rotateStepNinety" Value="0" />
      </BoundProperties>
    </ImageClip>
    <ImageClip extentID="78" gapBefore="0" mediaItemID="62" duration="3">
      <Effects>
        <ShaderEffect effectTemplateID="FadeInFromBlackEffectTemplate">
          <BoundProperties />
        </ShaderEffect>
      </Effects>
      <Transitions />
      <BoundProperties>
        <BoundPropertyInt Name="rotateStepNinety" Value="0" />
      </BoundProperties>
    </ImageClip>
    <ImageClip extentID="79" gapBefore="0" mediaItemID="6" duration="2.7999999999999998">
      <Effects>
        <ShaderEffect effectTemplateID="FadeOutToBlackEffectTemplate">
          <BoundProperties />
        </ShaderEffect>
      </Effects>
      <Transitions />
      <BoundProperties>
        <BoundPropertyInt Name="rotateStepNinety" Value="0" />
      </BoundProperties>
    </ImageClip>
    <ImageClip extentID="80" gapBefore="0" mediaItemID="57" duration="4">
      <Effects />
      <Transitions />
      <BoundProperties>
        <BoundPropertyInt Name="rotateStepNinety" Value="0" />
      </BoundProperties>
    </ImageClip>
    <TitleClip extentID="81" gapBefore="0" duration="1">
      <Effects />
      <Transitions />
      <BoundProperties>
        <BoundPropertyFloatSet Name="diffuseColor">
          <BoundPropertyFloatElement Value="0" />
          <BoundPropertyFloatElement Value="0" />
          <BoundPropertyFloatElement Value="0" />
        </BoundPropertyFloatSet>
        <BoundPropertyFloat Name="transparency" Value="0" />
      </BoundProperties>
    </TitleClip>
    <VideoClip extentID="82" gapBefore="0" mediaItemID="37" inTime="16.293333333333521" outTime="19.460000000000264" speed="1" stabilizationMode="0">
      <Effects />
      <Transitions />
      <BoundProperties>
        <BoundPropertyBool Name="Mute" Value="false" />
        <BoundPropertyInt Name="rotateStepNinety" Value="0" />
        <BoundPropertyFloat Name="Volume" Value="0" />
      </BoundProperties>
    </VideoClip>
    <ImageClip extentID="83" gapBefore="0" mediaItemID="59" duration="3">
      <Effects />
      <Transitions>
        <ShaderEffect effectTemplateID="DiagonalCrossOutTransitionTemplate" duration="2">
          <BoundProperties />
        </ShaderEffect>
      </Transitions>
      <BoundProperties>
        <BoundPropertyInt Name="rotateStepNinety" Value="0" />
      </BoundProperties>
    </ImageClip>
    <ImageClip extentID="84" gapBefore="0" mediaItemID="60" duration="3">
      <Effects />
      <Transitions>
        <ShapeEffect effectTemplateID="CrossfadeTransitionTemplate" duration="1.5">
          <BoundProperties />
        </ShapeEffect>
      </Transitions>
      <BoundProperties>
        <BoundPropertyInt Name="rotateStepNinety" Value="0" />
      </BoundProperties>
    </ImageClip>
    <VideoClip extentID="85" gapBefore="0" mediaItemID="227" inTime="11.593333233333283" outTime="31.939999900000089" speed="1" stabilizationMode="0">
      <Effects />
      <Transitions />
      <BoundProperties>
        <BoundPropertyBool Name="Mute" Value="false" />
        <BoundPropertyInt Name="rotateStepNinety" Value="0" />
        <BoundPropertyFloat Name="Volume" Value="0" />
      </BoundProperties>
    </VideoClip>
    <ImageClip extentID="86" gapBefore="0" mediaItemID="61" duration="2">
      <Effects />
      <Transitions>
        <ShapeEffect effectTemplateID="CrossfadeTransitionTemplate" duration="1.5">
          <BoundProperties />
        </ShapeEffect>
      </Transitions>
      <BoundProperties>
        <BoundPropertyInt Name="rotateStepNinety" Value="0" />
      </BoundProperties>
    </ImageClip>
    <TitleClip extentID="87" gapBefore="0" duration="2">
      <Effects />
      <Transitions />
      <BoundProperties>
        <BoundPropertyFloatSet Name="diffuseColor">
          <BoundPropertyFloatElement Value="0" />
          <BoundPropertyFloatElement Value="0" />
          <BoundPropertyFloatElement Value="0" />
        </BoundPropertyFloatSet>
        <BoundPropertyFloat Name="transparency" Value="0" />
      </BoundProperties>
    </TitleClip>
    <AudioClip extentID="88" gapBefore="0.52777779102325451" mediaItemID="107" inTime="0" outTime="156.66" speed="1">
      <Effects>
        <AudioEffect effectTemplateID="AudioFadeEffectTemplate">
          <BoundProperties>
            <BoundPropertyFloat Name="AudioFadeInDuration" Value="5" />
            <BoundPropertyFloat Name="AudioFadeOutDuration" Value="0" />
          </BoundProperties>
        </AudioEffect>
      </Effects>
      <Transitions />
      <BoundProperties>
        <BoundPropertyBool Name="Mute" Value="false" />
        <BoundPropertyFloat Name="Volume" Value="0.25882354378700256" />
      </BoundProperties>
    </AudioClip>
    <TitleClip extentID="89" gapBefore="88.907255538885579" duration="2">
      <Effects>
        <TextEffect effectTemplateID="TextEffectFadeTemplate" TextScriptId="1">
          <BoundProperties>
            <BoundPropertyBool Name="automatic" Value="false" />
            <BoundPropertyFloatSet Name="color">
              <BoundPropertyFloatElement Value="1" />
              <BoundPropertyFloatElement Value="1" />
              <BoundPropertyFloatElement Value="1" />
            </BoundPropertyFloatSet>
            <BoundPropertyStringSet Name="family">
              <BoundPropertyStringElement Value="Segoe UI" />
            </BoundPropertyStringSet>
            <BoundPropertyBool Name="horizontal" Value="true" />
            <BoundPropertyStringSet Name="justify">
              <BoundPropertyStringElement Value="MIDDLE" />
            </BoundPropertyStringSet>
            <BoundPropertyBool Name="leftToRight" Value="true" />
            <BoundPropertyFloatSet Name="length" />
            <BoundPropertyFloat Name="maxExtent" Value="0" />
            <BoundPropertyFloatSet Name="outlineColor">
              <BoundPropertyFloatElement Value="0.64705884456634521" />
              <BoundPropertyFloatElement Value="0.64705884456634521" />
              <BoundPropertyFloatElement Value="0.64705884456634521" />
            </BoundPropertyFloatSet>
            <BoundPropertyInt Name="outlineSizeIndex" Value="0" />
            <BoundPropertyFloatSet Name="position">
              <BoundPropertyFloatElement Value="-0.2133336067199707" />
              <BoundPropertyFloatElement Value="-0.98709678649902344" />
              <BoundPropertyFloatElement Value="0.02500000037252903" />
            </BoundPropertyFloatSet>
            <BoundPropertyFloat Name="size" Value="0.60000002384185791" />
            <BoundPropertyStringSet Name="string">
              <BoundPropertyStringElement Value="Alloway -" />
              <BoundPropertyStringElement Value="Robert Burns szülőháza" />
            </BoundPropertyStringSet>
            <BoundPropertyString Name="style" Value="Bold" />
            <BoundPropertyFloat Name="transparency" Value="0" />
          </BoundProperties>
        </TextEffect>
      </Effects>
      <Transitions />
      <BoundProperties>
        <BoundPropertyFloatSet Name="diffuseColor">
          <BoundPropertyFloatElement Value="0.75" />
          <BoundPropertyFloatElement Value="1" />
          <BoundPropertyFloatElement Value="0" />
        </BoundPropertyFloatSet>
        <BoundPropertyFloat Name="transparency" Value="1" />
      </BoundProperties>
    </TitleClip>
    <ImageClip extentID="90" gapBefore="0" mediaItemID="29" duration="3">
      <Effects />
      <Transitions>
        <ShapeEffect effectTemplateID="RollTransitionTemplate" duration="1.5">
          <BoundProperties />
        </ShapeEffect>
      </Transitions>
      <BoundProperties>
        <BoundPropertyInt Name="rotateStepNinety" Value="0" />
      </BoundProperties>
    </ImageClip>
    <AudioClip extentID="91" gapBefore="1" mediaItemID="107" inTime="197.86666666666667" outTime="405.4666666666667" speed="1">
      <Effects>
        <AudioEffect effectTemplateID="AudioFadeEffectTemplate">
          <BoundProperties>
            <BoundPropertyFloat Name="AudioFadeInDuration" Value="5" />
            <BoundPropertyFloat Name="AudioFadeOutDuration" Value="0" />
          </BoundProperties>
        </AudioEffect>
      </Effects>
      <Transitions />
      <BoundProperties>
        <BoundPropertyBool Name="Mute" Value="false" />
        <BoundPropertyFloat Name="Volume" Value="0.32156863808631897" />
      </BoundProperties>
    </AudioClip>
    <TitleClip extentID="92" gapBefore="20.143325703938444" duration="1.5">
      <Effects>
        <TextEffect effectTemplateID="TextEffectFadeTemplate" TextScriptId="1">
          <BoundProperties>
            <BoundPropertyBool Name="automatic" Value="false" />
            <BoundPropertyFloatSet Name="color">
              <BoundPropertyFloatElement Value="1" />
              <BoundPropertyFloatElement Value="1" />
              <BoundPropertyFloatElement Value="1" />
            </BoundPropertyFloatSet>
            <BoundPropertyStringSet Name="family">
              <BoundPropertyStringElement Value="Segoe UI" />
            </BoundPropertyStringSet>
            <BoundPropertyBool Name="horizontal" Value="true" />
            <BoundPropertyStringSet Name="justify">
              <BoundPropertyStringElement Value="MIDDLE" />
            </BoundPropertyStringSet>
            <BoundPropertyBool Name="leftToRight" Value="true" />
            <BoundPropertyFloatSet Name="length" />
            <BoundPropertyFloat Name="maxExtent" Value="0" />
            <BoundPropertyFloatSet Name="outlineColor">
              <BoundPropertyFloatElement Value="0.64705884456634521" />
              <BoundPropertyFloatElement Value="0.64705884456634521" />
              <BoundPropertyFloatElement Value="0.64705884456634521" />
            </BoundPropertyFloatSet>
            <BoundPropertyInt Name="outlineSizeIndex" Value="0" />
            <BoundPropertyFloatSet Name="position">
              <BoundPropertyFloatElement Value="-0.1357574462890625" />
              <BoundPropertyFloatElement Value="-1.8000001907348633" />
              <BoundPropertyFloatElement Value="0.02500000037252903" />
            </BoundPropertyFloatSet>
            <BoundPropertyFloat Name="size" Value="0.60000002384185791" />
            <BoundPropertyStringSet Name="string">
              <BoundPropertyStringElement Value="Glasgow" />
            </BoundPropertyStringSet>
            <BoundPropertyString Name="style" Value="Bold" />
            <BoundPropertyFloat Name="transparency" Value="0" />
          </BoundProperties>
        </TextEffect>
      </Effects>
      <Transitions />
      <BoundProperties>
        <BoundPropertyFloatSet Name="diffuseColor">
          <BoundPropertyFloatElement Value="0.75" />
          <BoundPropertyFloatElement Value="1" />
          <BoundPropertyFloatElement Value="0" />
        </BoundPropertyFloatSet>
        <BoundPropertyFloat Name="transparency" Value="1" />
      </BoundProperties>
    </TitleClip>
    <AudioClip extentID="93" gapBefore="1.4509479010384894" mediaItemID="92" inTime="37.199999999999591" outTime="86.340000000000003" speed="1">
      <Effects />
      <Transitions />
      <BoundProperties>
        <BoundPropertyBool Name="Mute" Value="false" />
        <BoundPropertyFloat Name="Volume" Value="1" />
      </BoundProperties>
    </AudioClip>
    <VideoClip extentID="94" gapBefore="0" mediaItemID="4" inTime="18.646666666666675" outTime="0" speed="1" stabilizationMode="0">
      <Effects />
      <Transitions />
      <BoundProperties>
        <BoundPropertyBool Name="Mute" Value="false" />
        <BoundPropertyInt Name="rotateStepNinety" Value="0" />
        <BoundPropertyFloat Name="Volume" Value="0" />
      </BoundProperties>
    </VideoClip>
    <VideoClip extentID="95" gapBefore="0" mediaItemID="408" inTime="177.48258453332892" outTime="186.05999999999949" speed="1.25" stabilizationMode="0">
      <Effects>
        <ShaderEffect effectTemplateID="FadeOutToBlackEffectTemplate">
          <BoundProperties />
        </ShaderEffect>
      </Effects>
      <Transitions />
      <BoundProperties>
        <BoundPropertyBool Name="Mute" Value="false" />
        <BoundPropertyInt Name="rotateStepNinety" Value="3" />
        <BoundPropertyFloat Name="Volume" Value="0" />
      </BoundProperties>
    </VideoClip>
    <VideoClip extentID="96" gapBefore="0" mediaItemID="5" inTime="20.420000000000002" outTime="27.820000000000007" speed="1" stabilizationMode="0">
      <Effects />
      <Transitions />
      <BoundProperties>
        <BoundPropertyBool Name="Mute" Value="false" />
        <BoundPropertyInt Name="rotateStepNinety" Value="0" />
        <BoundPropertyFloat Name="Volume" Value="0" />
      </BoundProperties>
    </VideoClip>
    <VideoClip extentID="97" gapBefore="0" mediaItemID="5" inTime="34.019999999999996" outTime="40.206666666666663" speed="1" stabilizationMode="0">
      <Effects />
      <Transitions />
      <BoundProperties>
        <BoundPropertyBool Name="Mute" Value="false" />
        <BoundPropertyInt Name="rotateStepNinety" Value="0" />
        <BoundPropertyFloat Name="Volume" Value="0" />
      </BoundProperties>
    </VideoClip>
    <TitleClip extentID="98" gapBefore="0" duration="1">
      <Effects />
      <Transitions />
      <BoundProperties>
        <BoundPropertyFloatSet Name="diffuseColor">
          <BoundPropertyFloatElement Value="0" />
          <BoundPropertyFloatElement Value="0" />
          <BoundPropertyFloatElement Value="0" />
        </BoundPropertyFloatSet>
        <BoundPropertyFloat Name="transparency" Value="0" />
      </BoundProperties>
    </TitleClip>
    <ImageClip extentID="99" gapBefore="0" mediaItemID="77" duration="2.7999999999999998">
      <Effects />
      <Transitions />
      <BoundProperties>
        <BoundPropertyInt Name="rotateStepNinety" Value="0" />
      </BoundProperties>
    </ImageClip>
    <ImageClip extentID="100" gapBefore="0" mediaItemID="78" duration="2.7999999999999998">
      <Effects />
      <Transitions />
      <BoundProperties>
        <BoundPropertyInt Name="rotateStepNinety" Value="0" />
      </BoundProperties>
    </ImageClip>
    <TitleClip extentID="101" gapBefore="0" duration="1">
      <Effects />
      <Transitions />
      <BoundProperties>
        <BoundPropertyFloatSet Name="diffuseColor">
          <BoundPropertyFloatElement Value="0" />
          <BoundPropertyFloatElement Value="0" />
          <BoundPropertyFloatElement Value="0" />
        </BoundPropertyFloatSet>
        <BoundPropertyFloat Name="transparency" Value="0" />
      </BoundProperties>
    </TitleClip>
    <AudioClip extentID="102" gapBefore="1.365561523437421" mediaItemID="39" inTime="1.5" outTime="43.979999999999997" speed="1">
      <Effects />
      <Transitions />
      <BoundProperties>
        <BoundPropertyBool Name="Mute" Value="false" />
        <BoundPropertyFloat Name="Volume" Value="0.63529413938522339" />
      </BoundProperties>
    </AudioClip>
    <VideoClip extentID="103" gapBefore="0" mediaItemID="268" inTime="2.3666666666665606" outTime="8.3666666666665606" speed="1" stabilizationMode="0">
      <Effects>
        <ShaderEffect effectTemplateID="FadeOutToBlackEffectTemplate">
          <BoundProperties />
        </ShaderEffect>
      </Effects>
      <Transitions>
        <ShaderEffect effectTemplateID="PageCurlUpLeftTransitionTemplate" duration="1.5">
          <BoundProperties />
        </ShaderEffect>
      </Transitions>
      <BoundProperties>
        <BoundPropertyBool Name="Mute" Value="false" />
        <BoundPropertyInt Name="rotateStepNinety" Value="0" />
        <BoundPropertyFloat Name="Volume" Value="0" />
      </BoundProperties>
    </VideoClip>
    <AudioClip extentID="104" gapBefore="2.5406652000048098" mediaItemID="32" inTime="23.799999999999955" outTime="47.736001466661833" speed="1">
      <Effects />
      <Transitions />
      <BoundProperties>
        <BoundPropertyBool Name="Mute" Value="false" />
        <BoundPropertyFloat Name="Volume" Value="0.52549022436141968" />
      </BoundProperties>
    </AudioClip>
    <ImageClip extentID="105" gapBefore="0" mediaItemID="42" duration="4">
      <Effects />
      <Transitions />
      <BoundProperties>
        <BoundPropertyInt Name="rotateStepNinety" Value="0" />
      </BoundProperties>
    </ImageClip>
    <ImageClip extentID="106" gapBefore="0" mediaItemID="15" duration="3">
      <Effects />
      <Transitions />
      <BoundProperties>
        <BoundPropertyInt Name="rotateStepNinety" Value="0" />
      </BoundProperties>
    </ImageClip>
    <ImageClip extentID="107" gapBefore="0" mediaItemID="16" duration="3">
      <Effects />
      <Transitions />
      <BoundProperties>
        <BoundPropertyInt Name="rotateStepNinety" Value="0" />
      </BoundProperties>
    </ImageClip>
    <ImageClip extentID="108" gapBefore="0" mediaItemID="17" duration="3">
      <Effects />
      <Transitions />
      <BoundProperties>
        <BoundPropertyInt Name="rotateStepNinety" Value="0" />
      </BoundProperties>
    </ImageClip>
    <ImageClip extentID="109" gapBefore="0" mediaItemID="18" duration="3">
      <Effects />
      <Transitions />
      <BoundProperties>
        <BoundPropertyInt Name="rotateStepNinety" Value="0" />
      </BoundProperties>
    </ImageClip>
    <ImageClip extentID="110" gapBefore="0" mediaItemID="8" duration="3">
      <Effects />
      <Transitions />
      <BoundProperties>
        <BoundPropertyInt Name="rotateStepNinety" Value="0" />
      </BoundProperties>
    </ImageClip>
    <ImageClip extentID="111" gapBefore="0" mediaItemID="44" duration="4">
      <Effects />
      <Transitions />
      <BoundProperties>
        <BoundPropertyInt Name="rotateStepNinety" Value="0" />
      </BoundProperties>
    </ImageClip>
    <VideoClip extentID="112" gapBefore="0" mediaItemID="7" inTime="0.90000000000000568" outTime="3.3449999999999882" speed="0.75" stabilizationMode="0">
      <Effects />
      <Transitions />
      <BoundProperties>
        <BoundPropertyBool Name="Mute" Value="false" />
        <BoundPropertyInt Name="rotateStepNinety" Value="0" />
        <BoundPropertyFloat Name="Volume" Value="0" />
      </BoundProperties>
    </VideoClip>
    <VideoClip extentID="113" gapBefore="0" mediaItemID="72" inTime="0" outTime="8.6600000000003092" speed="1" stabilizationMode="0">
      <Effects />
      <Transitions />
      <BoundProperties>
        <BoundPropertyBool Name="Mute" Value="false" />
        <BoundPropertyInt Name="rotateStepNinety" Value="0" />
        <BoundPropertyFloat Name="Volume" Value="0" />
      </BoundProperties>
    </VideoClip>
    <ImageClip extentID="114" gapBefore="0" mediaItemID="82" duration="2.7999999999999998">
      <Effects />
      <Transitions />
      <BoundProperties>
        <BoundPropertyInt Name="rotateStepNinety" Value="0" />
      </BoundProperties>
    </ImageClip>
    <ImageClip extentID="115" gapBefore="0" mediaItemID="45" duration="6">
      <Effects>
        <PanAndZoomShapeEffect effectTemplateID="PanAndZoomEffectAutomaticTemplate">
          <BoundProperties>
            <BoundPropertyFloatSet Name="center">
              <BoundPropertyFloatElement Value="0" />
              <BoundPropertyFloatElement Value="-0.5" />
              <BoundPropertyFloatElement Value="0" />
              <BoundPropertyFloatElement Value="-0.5" />
            </BoundPropertyFloatSet>
            <BoundPropertyInt Name="effectType" Value="5" />
            <BoundPropertyFloatSet Name="scale">
              <BoundPropertyFloatElement Value="1" />
              <BoundPropertyFloatElement Value="1" />
              <BoundPropertyFloatElement Value="0.85000002384185791" />
              <BoundPropertyFloatElement Value="0.85000002384185791" />
            </BoundPropertyFloatSet>
          </BoundProperties>
        </PanAndZoomShapeEffect>
      </Effects>
      <Transitions />
      <BoundProperties>
        <BoundPropertyInt Name="rotateStepNinety" Value="0" />
      </BoundProperties>
    </ImageClip>
    <ImageClip extentID="116" gapBefore="0" mediaItemID="46" duration="3">
      <Effects>
        <PanAndZoomShapeEffect effectTemplateID="PanAndZoomEffectAutomaticTemplate">
          <BoundProperties>
            <BoundPropertyFloatSet Name="center">
              <BoundPropertyFloatElement Value="-1" />
              <BoundPropertyFloatElement Value="-0.5" />
              <BoundPropertyFloatElement Value="-1" />
              <BoundPropertyFloatElement Value="-0.5" />
            </BoundPropertyFloatSet>
            <BoundPropertyInt Name="effectType" Value="5" />
            <BoundPropertyFloatSet Name="scale">
              <BoundPropertyFloatElement Value="1" />
              <BoundPropertyFloatElement Value="1" />
              <BoundPropertyFloatElement Value="0.85000002384185791" />
              <BoundPropertyFloatElement Value="0.85000002384185791" />
            </BoundPropertyFloatSet>
          </BoundProperties>
        </PanAndZoomShapeEffect>
      </Effects>
      <Transitions />
      <BoundProperties>
        <BoundPropertyInt Name="rotateStepNinety" Value="0" />
      </BoundProperties>
    </ImageClip>
    <TitleClip extentID="117" gapBefore="90.548333233333324" duration="3">
      <Effects>
        <TextEffect effectTemplateID="TextEffectFadeTemplate" TextScriptId="1">
          <BoundProperties>
            <BoundPropertyBool Name="automatic" Value="false" />
            <BoundPropertyFloatSet Name="color">
              <BoundPropertyFloatElement Value="1" />
              <BoundPropertyFloatElement Value="1" />
              <BoundPropertyFloatElement Value="1" />
            </BoundPropertyFloatSet>
            <BoundPropertyStringSet Name="family">
              <BoundPropertyStringElement Value="Segoe UI" />
            </BoundPropertyStringSet>
            <BoundPropertyBool Name="horizontal" Value="true" />
            <BoundPropertyStringSet Name="justify">
              <BoundPropertyStringElement Value="MIDDLE" />
            </BoundPropertyStringSet>
            <BoundPropertyBool Name="leftToRight" Value="true" />
            <BoundPropertyFloatSet Name="length" />
            <BoundPropertyFloat Name="maxExtent" Value="0" />
            <BoundPropertyFloatSet Name="outlineColor">
              <BoundPropertyFloatElement Value="0.64705884456634521" />
              <BoundPropertyFloatElement Value="0.64705884456634521" />
              <BoundPropertyFloatElement Value="0.64705884456634521" />
            </BoundPropertyFloatSet>
            <BoundPropertyInt Name="outlineSizeIndex" Value="0" />
            <BoundPropertyFloatSet Name="position">
              <BoundPropertyFloatElement Value="-0.0193939208984375" />
              <BoundPropertyFloatElement Value="-1.567741870880127" />
              <BoundPropertyFloatElement Value="0.02500000037252903" />
            </BoundPropertyFloatSet>
            <BoundPropertyFloat Name="size" Value="0.60000002384185791" />
            <BoundPropertyStringSet Name="string">
              <BoundPropertyStringElement Value="Eilean Donan kastély " />
            </BoundPropertyStringSet>
            <BoundPropertyString Name="style" Value="Bold" />
            <BoundPropertyFloat Name="transparency" Value="0" />
          </BoundProperties>
        </TextEffect>
      </Effects>
      <Transitions />
      <BoundProperties>
        <BoundPropertyFloatSet Name="diffuseColor">
          <BoundPropertyFloatElement Value="0.75" />
          <BoundPropertyFloatElement Value="1" />
          <BoundPropertyFloatElement Value="0" />
        </BoundPropertyFloatSet>
        <BoundPropertyFloat Name="transparency" Value="1" />
      </BoundProperties>
    </TitleClip>
    <ImageClip extentID="118" gapBefore="0" mediaItemID="83" duration="2.7999999999999998">
      <Effects />
      <Transitions />
      <BoundProperties>
        <BoundPropertyInt Name="rotateStepNinety" Value="0" />
      </BoundProperties>
    </ImageClip>
    <AudioClip extentID="119" gapBefore="2.6510887218112202" mediaItemID="32" inTime="47.736001466661833" outTime="62.184912744850635" speed="1">
      <Effects />
      <Transitions />
      <BoundProperties>
        <BoundPropertyBool Name="Mute" Value="false" />
        <BoundPropertyFloat Name="Volume" Value="0.58039218187332153" />
      </BoundProperties>
    </AudioClip>
    <VideoClip extentID="120" gapBefore="0" mediaItemID="66" inTime="0" outTime="0" speed="1" stabilizationMode="0">
      <Effects />
      <Transitions />
      <BoundProperties>
        <BoundPropertyBool Name="Mute" Value="false" />
        <BoundPropertyInt Name="rotateStepNinety" Value="0" />
        <BoundPropertyFloat Name="Volume" Value="1" />
      </BoundProperties>
    </VideoClip>
    <AudioClip extentID="121" gapBefore="4.6877952067056867" mediaItemID="84" inTime="0.81000000000000005" outTime="19.77" speed="1">
      <Effects />
      <Transitions />
      <BoundProperties>
        <BoundPropertyBool Name="Mute" Value="false" />
        <BoundPropertyFloat Name="Volume" Value="0.54901963472366333" />
      </BoundProperties>
    </AudioClip>
    <TitleClip extentID="122" gapBefore="88.201278092626012" duration="1">
      <Effects>
        <TextEffect effectTemplateID="TextEffectFadeTemplate" TextScriptId="1">
          <BoundProperties>
            <BoundPropertyBool Name="automatic" Value="false" />
            <BoundPropertyFloatSet Name="color">
              <BoundPropertyFloatElement Value="1" />
              <BoundPropertyFloatElement Value="1" />
              <BoundPropertyFloatElement Value="1" />
            </BoundPropertyFloatSet>
            <BoundPropertyStringSet Name="family">
              <BoundPropertyStringElement Value="Segoe UI" />
            </BoundPropertyStringSet>
            <BoundPropertyBool Name="horizontal" Value="true" />
            <BoundPropertyStringSet Name="justify">
              <BoundPropertyStringElement Value="MIDDLE" />
            </BoundPropertyStringSet>
            <BoundPropertyBool Name="leftToRight" Value="true" />
            <BoundPropertyFloatSet Name="length" />
            <BoundPropertyFloat Name="maxExtent" Value="0" />
            <BoundPropertyFloatSet Name="outlineColor">
              <BoundPropertyFloatElement Value="0.64705884456634521" />
              <BoundPropertyFloatElement Value="0.64705884456634521" />
              <BoundPropertyFloatElement Value="0.64705884456634521" />
            </BoundPropertyFloatSet>
            <BoundPropertyInt Name="outlineSizeIndex" Value="0" />
            <BoundPropertyFloatSet Name="position">
              <BoundPropertyFloatElement Value="-0.0193939208984375" />
              <BoundPropertyFloatElement Value="0.67741942405700684" />
              <BoundPropertyFloatElement Value="0.02500000037252903" />
            </BoundPropertyFloatSet>
            <BoundPropertyFloat Name="size" Value="0.80000001192092896" />
            <BoundPropertyStringSet Name="string">
              <BoundPropertyStringElement Value="falkirki kerék" />
            </BoundPropertyStringSet>
            <BoundPropertyString Name="style" Value="Plain" />
            <BoundPropertyFloat Name="transparency" Value="0" />
          </BoundProperties>
        </TextEffect>
      </Effects>
      <Transitions />
      <BoundProperties>
        <BoundPropertyFloatSet Name="diffuseColor">
          <BoundPropertyFloatElement Value="0.75" />
          <BoundPropertyFloatElement Value="1" />
          <BoundPropertyFloatElement Value="0" />
        </BoundPropertyFloatSet>
        <BoundPropertyFloat Name="transparency" Value="1" />
      </BoundProperties>
    </TitleClip>
    <VideoClip extentID="644" gapBefore="0" mediaItemID="590" inTime="0" outTime="6.3533066000003373" speed="1" stabilizationMode="0">
      <Effects />
      <Transitions>
        <ShapeEffect effectTemplateID="CrossfadeTransitionTemplate" duration="1.5">
          <BoundProperties />
        </ShapeEffect>
      </Transitions>
      <BoundProperties>
        <BoundPropertyBool Name="Mute" Value="false" />
        <BoundPropertyInt Name="rotateStepNinety" Value="0" />
        <BoundPropertyFloat Name="Volume" Value="0" />
      </BoundProperties>
    </VideoClip>
    <TitleClip extentID="123" gapBefore="33.30445184846451" duration="2">
      <Effects>
        <TextEffect effectTemplateID="TextEffectFadeTemplate" TextScriptId="1">
          <BoundProperties>
            <BoundPropertyBool Name="automatic" Value="false" />
            <BoundPropertyFloatSet Name="color">
              <BoundPropertyFloatElement Value="1" />
              <BoundPropertyFloatElement Value="1" />
              <BoundPropertyFloatElement Value="1" />
            </BoundPropertyFloatSet>
            <BoundPropertyStringSet Name="family">
              <BoundPropertyStringElement Value="Segoe UI" />
            </BoundPropertyStringSet>
            <BoundPropertyBool Name="horizontal" Value="true" />
            <BoundPropertyStringSet Name="justify">
              <BoundPropertyStringElement Value="MIDDLE" />
            </BoundPropertyStringSet>
            <BoundPropertyBool Name="leftToRight" Value="true" />
            <BoundPropertyFloatSet Name="length" />
            <BoundPropertyFloat Name="maxExtent" Value="0" />
            <BoundPropertyFloatSet Name="outlineColor">
              <BoundPropertyFloatElement Value="0.64705884456634521" />
              <BoundPropertyFloatElement Value="0.64705884456634521" />
              <BoundPropertyFloatElement Value="0.64705884456634521" />
            </BoundPropertyFloatSet>
            <BoundPropertyInt Name="outlineSizeIndex" Value="0" />
            <BoundPropertyFloatSet Name="position">
              <BoundPropertyFloatElement Value="-0.4072728157043457" />
              <BoundPropertyFloatElement Value="-0.21290326118469238" />
              <BoundPropertyFloatElement Value="0.02500000037252903" />
            </BoundPropertyFloatSet>
            <BoundPropertyFloat Name="size" Value="0.80000001192092896" />
            <BoundPropertyStringSet Name="string">
              <BoundPropertyStringElement Value="Dunvegan " />
              <BoundPropertyStringElement Value="várkastély" />
            </BoundPropertyStringSet>
            <BoundPropertyString Name="style" Value="Bold" />
            <BoundPropertyFloat Name="transparency" Value="0" />
          </BoundProperties>
        </TextEffect>
      </Effects>
      <Transitions />
      <BoundProperties>
        <BoundPropertyFloatSet Name="diffuseColor">
          <BoundPropertyFloatElement Value="0.75" />
          <BoundPropertyFloatElement Value="1" />
          <BoundPropertyFloatElement Value="0" />
        </BoundPropertyFloatSet>
        <BoundPropertyFloat Name="transparency" Value="1" />
      </BoundProperties>
    </TitleClip>
    <ImageClip extentID="124" gapBefore="0" mediaItemID="89" duration="2.8999999999999999">
      <Effects>
        <ShaderEffect effectTemplateID="FadeOutToBlackEffectTemplate">
          <BoundProperties />
        </ShaderEffect>
      </Effects>
      <Transitions />
      <BoundProperties>
        <BoundPropertyInt Name="rotateStepNinety" Value="0" />
      </BoundProperties>
    </ImageClip>
    <AudioClip extentID="125" gapBefore="-38.434323201039973" mediaItemID="92" inTime="86.233333333332894" outTime="100.54693362478088" speed="1">
      <Effects />
      <Transitions />
      <BoundProperties>
        <BoundPropertyBool Name="Mute" Value="false" />
        <BoundPropertyFloat Name="Volume" Value="1" />
      </BoundProperties>
    </AudioClip>
    <ImageClip extentID="126" gapBefore="0" mediaItemID="91" duration="3.7000000000000002">
      <Effects />
      <Transitions />
      <BoundProperties>
        <BoundPropertyInt Name="rotateStepNinety" Value="0" />
      </BoundProperties>
    </ImageClip>
    <VideoClip extentID="648" gapBefore="0" mediaItemID="594" inTime="0" outTime="20.286666666666747" speed="1" stabilizationMode="0">
      <Effects />
      <Transitions />
      <BoundProperties>
        <BoundPropertyBool Name="Mute" Value="false" />
        <BoundPropertyInt Name="rotateStepNinety" Value="0" />
        <BoundPropertyFloat Name="Volume" Value="0" />
      </BoundProperties>
    </VideoClip>
    <AudioClip extentID="127" gapBefore="23.59474112615402" mediaItemID="34" inTime="40.170000000000002" outTime="50.789999999999999" speed="1">
      <Effects />
      <Transitions />
      <BoundProperties>
        <BoundPropertyBool Name="Mute" Value="false" />
        <BoundPropertyFloat Name="Volume" Value="0.52549022436141968" />
      </BoundProperties>
    </AudioClip>
    <AudioClip extentID="128" gapBefore="8.6586111611118213" mediaItemID="76" inTime="22.98" outTime="53.871111911118305" speed="1">
      <Effects />
      <Transitions />
      <BoundProperties>
        <BoundPropertyBool Name="Mute" Value="false" />
        <BoundPropertyFloat Name="Volume" Value="0.95686280727386475" />
      </BoundProperties>
    </AudioClip>
    <VideoClip extentID="129" gapBefore="0" mediaItemID="179" inTime="6.9533332333335238" outTime="0" speed="1" stabilizationMode="0">
      <Effects>
        <ShaderEffect effectTemplateID="FadeInFromBlackEffectTemplate">
          <BoundProperties />
        </ShaderEffect>
      </Effects>
      <Transitions />
      <BoundProperties>
        <BoundPropertyBool Name="Mute" Value="false" />
        <BoundPropertyInt Name="rotateStepNinety" Value="0" />
        <BoundPropertyFloat Name="Volume" Value="0" />
      </BoundProperties>
    </VideoClip>
    <VideoClip extentID="651" gapBefore="0" mediaItemID="597" inTime="0" outTime="14.46666676666689" speed="1" stabilizationMode="0">
      <Effects />
      <Transitions />
      <BoundProperties>
        <BoundPropertyBool Name="Mute" Value="false" />
        <BoundPropertyInt Name="rotateStepNinety" Value="0" />
        <BoundPropertyFloat Name="Volume" Value="0" />
      </BoundProperties>
    </VideoClip>
    <VideoClip extentID="130" gapBefore="0" mediaItemID="229" inTime="26.120000000000346" outTime="41.246666566667045" speed="1" stabilizationMode="0">
      <Effects>
        <ShaderEffect effectTemplateID="FadeOutToBlackEffectTemplate">
          <BoundProperties />
        </ShaderEffect>
      </Effects>
      <Transitions />
      <BoundProperties>
        <BoundPropertyBool Name="Mute" Value="false" />
        <BoundPropertyInt Name="rotateStepNinety" Value="0" />
        <BoundPropertyFloat Name="Volume" Value="0.054901964962482452" />
      </BoundProperties>
    </VideoClip>
    <ImageClip extentID="131" gapBefore="0" mediaItemID="75" duration="3">
      <Effects />
      <Transitions />
      <BoundProperties>
        <BoundPropertyInt Name="rotateStepNinety" Value="0" />
      </BoundProperties>
    </ImageClip>
    <ImageClip extentID="132" gapBefore="0" mediaItemID="97" duration="2.5">
      <Effects>
        <ShaderEffect effectTemplateID="FadeInFromBlackEffectTemplate">
          <BoundProperties />
        </ShaderEffect>
      </Effects>
      <Transitions />
      <BoundProperties>
        <BoundPropertyInt Name="rotateStepNinety" Value="0" />
      </BoundProperties>
    </ImageClip>
    <ImageClip extentID="133" gapBefore="0" mediaItemID="98" duration="2.5">
      <Effects />
      <Transitions />
      <BoundProperties>
        <BoundPropertyInt Name="rotateStepNinety" Value="0" />
      </BoundProperties>
    </ImageClip>
    <ImageClip extentID="134" gapBefore="0" mediaItemID="81" duration="3">
      <Effects />
      <Transitions />
      <BoundProperties>
        <BoundPropertyInt Name="rotateStepNinety" Value="0" />
      </BoundProperties>
    </ImageClip>
    <ImageClip extentID="135" gapBefore="0" mediaItemID="87" duration="3">
      <Effects />
      <Transitions />
      <BoundProperties>
        <BoundPropertyInt Name="rotateStepNinety" Value="0" />
      </BoundProperties>
    </ImageClip>
    <ImageClip extentID="136" gapBefore="0" mediaItemID="79" duration="3">
      <Effects />
      <Transitions />
      <BoundProperties>
        <BoundPropertyInt Name="rotateStepNinety" Value="0" />
      </BoundProperties>
    </ImageClip>
    <VideoClip extentID="137" gapBefore="0" mediaItemID="102" inTime="0" outTime="8.6772488555524205" speed="1" stabilizationMode="0">
      <Effects />
      <Transitions />
      <BoundProperties>
        <BoundPropertyBool Name="Mute" Value="false" />
        <BoundPropertyInt Name="rotateStepNinety" Value="0" />
        <BoundPropertyFloat Name="Volume" Value="0" />
      </BoundProperties>
    </VideoClip>
    <ImageClip extentID="138" gapBefore="0" mediaItemID="103" duration="3">
      <Effects />
      <Transitions>
        <ShapeEffect effectTemplateID="BlurTransitionTemplate" duration="1.5">
          <BoundProperties />
        </ShapeEffect>
      </Transitions>
      <BoundProperties>
        <BoundPropertyInt Name="rotateStepNinety" Value="0" />
      </BoundProperties>
    </ImageClip>
    <ImageClip extentID="139" gapBefore="0" mediaItemID="40" duration="3">
      <Effects>
        <ShaderEffect effectTemplateID="FadeInFromBlackEffectTemplate">
          <BoundProperties />
        </ShaderEffect>
      </Effects>
      <Transitions />
      <BoundProperties>
        <BoundPropertyInt Name="rotateStepNinety" Value="0" />
      </BoundProperties>
    </ImageClip>
    <ImageClip extentID="140" gapBefore="0" mediaItemID="99" duration="3">
      <Effects />
      <Transitions />
      <BoundProperties>
        <BoundPropertyInt Name="rotateStepNinety" Value="0" />
      </BoundProperties>
    </ImageClip>
    <ImageClip extentID="142" gapBefore="0" mediaItemID="101" duration="3">
      <Effects />
      <Transitions>
        <ShapeEffect effectTemplateID="CrossfadeTransitionTemplate" duration="1.5">
          <BoundProperties />
        </ShapeEffect>
      </Transitions>
      <BoundProperties>
        <BoundPropertyInt Name="rotateStepNinety" Value="0" />
      </BoundProperties>
    </ImageClip>
    <ImageClip extentID="143" gapBefore="0" mediaItemID="108" duration="2.7000000000000002">
      <Effects />
      <Transitions />
      <BoundProperties>
        <BoundPropertyInt Name="rotateStepNinety" Value="0" />
      </BoundProperties>
    </ImageClip>
    <AudioClip extentID="144" gapBefore="9.4099999999999895" mediaItemID="25" inTime="29.9988948567708" outTime="61.63333333333334" speed="1">
      <Effects />
      <Transitions />
      <BoundProperties>
        <BoundPropertyBool Name="Mute" Value="false" />
        <BoundPropertyFloat Name="Volume" Value="0.52549022436141968" />
      </BoundProperties>
    </AudioClip>
    <VideoClip extentID="145" gapBefore="0" mediaItemID="182" inTime="39.613333233332924" outTime="43.546666566666545" speed="1" stabilizationMode="0">
      <Effects>
        <ShaderEffect effectTemplateID="FadeOutToBlackEffectTemplate">
          <BoundProperties />
        </ShaderEffect>
      </Effects>
      <Transitions />
      <BoundProperties>
        <BoundPropertyBool Name="Mute" Value="false" />
        <BoundPropertyInt Name="rotateStepNinety" Value="0" />
        <BoundPropertyFloat Name="Volume" Value="0" />
      </BoundProperties>
    </VideoClip>
    <ImageClip extentID="146" gapBefore="0" mediaItemID="111" duration="2.7000000000000002">
      <Effects />
      <Transitions />
      <BoundProperties>
        <BoundPropertyInt Name="rotateStepNinety" Value="0" />
      </BoundProperties>
    </ImageClip>
    <ImageClip extentID="147" gapBefore="0" mediaItemID="112" duration="2.7000000000000002">
      <Effects />
      <Transitions />
      <BoundProperties>
        <BoundPropertyInt Name="rotateStepNinety" Value="0" />
      </BoundProperties>
    </ImageClip>
    <ImageClip extentID="148" gapBefore="0" mediaItemID="73" duration="2.5">
      <Effects />
      <Transitions />
      <BoundProperties>
        <BoundPropertyInt Name="rotateStepNinety" Value="0" />
      </BoundProperties>
    </ImageClip>
    <ImageClip extentID="149" gapBefore="0" mediaItemID="114" duration="2.7999999999999998">
      <Effects />
      <Transitions />
      <BoundProperties>
        <BoundPropertyInt Name="rotateStepNinety" Value="0" />
      </BoundProperties>
    </ImageClip>
    <TitleClip extentID="150" gapBefore="0" duration="1">
      <Effects />
      <Transitions />
      <BoundProperties>
        <BoundPropertyFloatSet Name="diffuseColor">
          <BoundPropertyFloatElement Value="0" />
          <BoundPropertyFloatElement Value="0" />
          <BoundPropertyFloatElement Value="0" />
        </BoundPropertyFloatSet>
        <BoundPropertyFloat Name="transparency" Value="0" />
      </BoundProperties>
    </TitleClip>
    <VideoClip extentID="151" gapBefore="0" mediaItemID="182" inTime="17.113333233332924" outTime="22.559999799999787" speed="1" stabilizationMode="0">
      <Effects />
      <Transitions>
        <ShapeEffect effectTemplateID="CrossfadeTransitionTemplate" duration="1.5">
          <BoundProperties />
        </ShapeEffect>
      </Transitions>
      <BoundProperties>
        <BoundPropertyBool Name="Mute" Value="false" />
        <BoundPropertyInt Name="rotateStepNinety" Value="0" />
        <BoundPropertyFloat Name="Volume" Value="0" />
      </BoundProperties>
    </VideoClip>
    <VideoClip extentID="152" gapBefore="0" mediaItemID="117" inTime="0" outTime="3.0266466166659711" speed="1" stabilizationMode="0">
      <Effects>
        <ShaderEffect effectTemplateID="FadeOutToBlackEffectTemplate">
          <BoundProperties />
        </ShaderEffect>
      </Effects>
      <Transitions />
      <BoundProperties>
        <BoundPropertyBool Name="Mute" Value="false" />
        <BoundPropertyInt Name="rotateStepNinety" Value="0" />
        <BoundPropertyFloat Name="Volume" Value="0" />
      </BoundProperties>
    </VideoClip>
    <VideoClip extentID="153" gapBefore="0" mediaItemID="272" inTime="13.060000299999729" outTime="19.691111511109739" speed="1" stabilizationMode="0">
      <Effects />
      <Transitions />
      <BoundProperties>
        <BoundPropertyBool Name="Mute" Value="false" />
        <BoundPropertyInt Name="rotateStepNinety" Value="0" />
        <BoundPropertyFloat Name="Volume" Value="0" />
      </BoundProperties>
    </VideoClip>
    <ImageClip extentID="154" gapBefore="0" mediaItemID="110" duration="2.5">
      <Effects />
      <Transitions />
      <BoundProperties>
        <BoundPropertyInt Name="rotateStepNinety" Value="0" />
      </BoundProperties>
    </ImageClip>
    <VideoClip extentID="155" gapBefore="0" mediaItemID="271" inTime="2.9600002999995922" outTime="12.204444744444118" speed="1" stabilizationMode="0">
      <Effects />
      <Transitions />
      <BoundProperties>
        <BoundPropertyBool Name="Mute" Value="false" />
        <BoundPropertyInt Name="rotateStepNinety" Value="0" />
        <BoundPropertyFloat Name="Volume" Value="0" />
      </BoundProperties>
    </VideoClip>
    <AudioClip extentID="156" gapBefore="1.370000000000033" mediaItemID="39" inTime="44.933333333333252" outTime="53.039999999999893" speed="1">
      <Effects />
      <Transitions />
      <BoundProperties>
        <BoundPropertyBool Name="Mute" Value="false" />
        <BoundPropertyFloat Name="Volume" Value="0.58039218187332153" />
      </BoundProperties>
    </AudioClip>
    <TitleClip extentID="157" gapBefore="59.695443903750629" duration="1.8">
      <Effects>
        <TextEffect effectTemplateID="TextEffectFadeTemplate" TextScriptId="1">
          <BoundProperties>
            <BoundPropertyBool Name="automatic" Value="false" />
            <BoundPropertyFloatSet Name="color">
              <BoundPropertyFloatElement Value="1" />
              <BoundPropertyFloatElement Value="1" />
              <BoundPropertyFloatElement Value="1" />
            </BoundPropertyFloatSet>
            <BoundPropertyStringSet Name="family">
              <BoundPropertyStringElement Value="Segoe UI" />
            </BoundPropertyStringSet>
            <BoundPropertyBool Name="horizontal" Value="true" />
            <BoundPropertyStringSet Name="justify">
              <BoundPropertyStringElement Value="MIDDLE" />
            </BoundPropertyStringSet>
            <BoundPropertyBool Name="leftToRight" Value="true" />
            <BoundPropertyFloatSet Name="length" />
            <BoundPropertyFloat Name="maxExtent" Value="0" />
            <BoundPropertyFloatSet Name="outlineColor">
              <BoundPropertyFloatElement Value="0.64705884456634521" />
              <BoundPropertyFloatElement Value="0.64705884456634521" />
              <BoundPropertyFloatElement Value="0.64705884456634521" />
            </BoundPropertyFloatSet>
            <BoundPropertyInt Name="outlineSizeIndex" Value="0" />
            <BoundPropertyFloatSet Name="position">
              <BoundPropertyFloatElement Value="0.0193939208984375" />
              <BoundPropertyFloatElement Value="0.32903218269348145" />
              <BoundPropertyFloatElement Value="0.02500000037252903" />
            </BoundPropertyFloatSet>
            <BoundPropertyFloat Name="size" Value="0.80000001192092896" />
            <BoundPropertyStringSet Name="string">
              <BoundPropertyStringElement Value="Glen Ord wisky gyár" />
            </BoundPropertyStringSet>
            <BoundPropertyString Name="style" Value="Bold" />
            <BoundPropertyFloat Name="transparency" Value="0" />
          </BoundProperties>
        </TextEffect>
      </Effects>
      <Transitions />
      <BoundProperties>
        <BoundPropertyFloatSet Name="diffuseColor">
          <BoundPropertyFloatElement Value="0.75" />
          <BoundPropertyFloatElement Value="1" />
          <BoundPropertyFloatElement Value="0" />
        </BoundPropertyFloatSet>
        <BoundPropertyFloat Name="transparency" Value="1" />
      </BoundProperties>
    </TitleClip>
    <VideoClip extentID="158" gapBefore="0" mediaItemID="270" inTime="2.1133336333325587" outTime="11.613333733332183" speed="1" stabilizationMode="0">
      <Effects>
        <AudioEffect effectTemplateID="AudioFadeEffectTemplate">
          <BoundProperties>
            <BoundPropertyFloat Name="AudioFadeInDuration" Value="5" />
            <BoundPropertyFloat Name="AudioFadeOutDuration" Value="0" />
          </BoundProperties>
        </AudioEffect>
      </Effects>
      <Transitions>
        <ShaderEffect effectTemplateID="WheelTransitionTemplate" duration="1.5">
          <BoundProperties />
        </ShaderEffect>
      </Transitions>
      <BoundProperties>
        <BoundPropertyBool Name="Mute" Value="false" />
        <BoundPropertyInt Name="rotateStepNinety" Value="0" />
        <BoundPropertyFloat Name="Volume" Value="0" />
      </BoundProperties>
    </VideoClip>
    <AudioClip extentID="159" gapBefore="4.790906549989927" mediaItemID="35" inTime="0" outTime="38.233333333333348" speed="1">
      <Effects />
      <Transitions />
      <BoundProperties>
        <BoundPropertyBool Name="Mute" Value="false" />
        <BoundPropertyFloat Name="Volume" Value="0.37647062540054321" />
      </BoundProperties>
    </AudioClip>
    <TitleClip extentID="160" gapBefore="11.177615349512052" duration="2.5">
      <Effects>
        <TextEffect effectTemplateID="TextEffectTemplate" TextScriptId="0">
          <BoundProperties>
            <BoundPropertyBool Name="automatic" Value="true" />
            <BoundPropertyFloatSet Name="color">
              <BoundPropertyFloatElement Value="0" />
              <BoundPropertyFloatElement Value="0" />
              <BoundPropertyFloatElement Value="0" />
            </BoundPropertyFloatSet>
            <BoundPropertyStringSet Name="family">
              <BoundPropertyStringElement Value="Segoe UI" />
            </BoundPropertyStringSet>
            <BoundPropertyBool Name="horizontal" Value="true" />
            <BoundPropertyStringSet Name="justify">
              <BoundPropertyStringElement Value="MIDDLE" />
            </BoundPropertyStringSet>
            <BoundPropertyBool Name="leftToRight" Value="true" />
            <BoundPropertyFloatSet Name="length">
              <BoundPropertyFloatElement Value="4.0999999046325684" />
              <BoundPropertyFloatElement Value="5.1999998092651367" />
            </BoundPropertyFloatSet>
            <BoundPropertyFloat Name="maxExtent" Value="5" />
            <BoundPropertyFloatSet Name="outlineColor">
              <BoundPropertyFloatElement Value="0.64705884456634521" />
              <BoundPropertyFloatElement Value="0.64705884456634521" />
              <BoundPropertyFloatElement Value="0.64705884456634521" />
            </BoundPropertyFloatSet>
            <BoundPropertyInt Name="outlineSizeIndex" Value="0" />
            <BoundPropertyFloatSet Name="position">
              <BoundPropertyFloatElement Value="-0.0193939208984375" />
              <BoundPropertyFloatElement Value="-1.8000001907348633" />
              <BoundPropertyFloatElement Value="0.02500000037252903" />
            </BoundPropertyFloatSet>
            <BoundPropertyFloat Name="size" Value="0.46666666865348816" />
            <BoundPropertyStringSet Name="string">
              <BoundPropertyStringElement Value="tündér zászló" />
            </BoundPropertyStringSet>
            <BoundPropertyString Name="style" Value="Bold" />
            <BoundPropertyFloat Name="transparency" Value="0" />
          </BoundProperties>
        </TextEffect>
      </Effects>
      <Transitions />
      <BoundProperties>
        <BoundPropertyFloatSet Name="diffuseColor">
          <BoundPropertyFloatElement Value="0.75" />
          <BoundPropertyFloatElement Value="1" />
          <BoundPropertyFloatElement Value="0" />
        </BoundPropertyFloatSet>
        <BoundPropertyFloat Name="transparency" Value="1" />
      </BoundProperties>
    </TitleClip>
    <ImageClip extentID="161" gapBefore="0" mediaItemID="119" duration="2.5">
      <Effects />
      <Transitions />
      <BoundProperties>
        <BoundPropertyInt Name="rotateStepNinety" Value="0" />
      </BoundProperties>
    </ImageClip>
    <VideoClip extentID="162" gapBefore="0" mediaItemID="365" inTime="10.702224922232517" outTime="24.23555825556582" speed="1" stabilizationMode="0">
      <Effects />
      <Transitions>
        <ShapeEffect effectTemplateID="CrossfadeTransitionTemplate" duration="1.5">
          <BoundProperties />
        </ShapeEffect>
      </Transitions>
      <BoundProperties>
        <BoundPropertyBool Name="Mute" Value="false" />
        <BoundPropertyInt Name="rotateStepNinety" Value="0" />
        <BoundPropertyFloat Name="Volume" Value="0" />
      </BoundProperties>
    </VideoClip>
    <ImageClip extentID="163" gapBefore="0" mediaItemID="128" duration="3">
      <Effects />
      <Transitions />
      <BoundProperties>
        <BoundPropertyInt Name="rotateStepNinety" Value="0" />
      </BoundProperties>
    </ImageClip>
    <VideoClip extentID="164" gapBefore="0" mediaItemID="3" inTime="17.506666666666639" outTime="26.913333333333334" speed="1" stabilizationMode="0">
      <Effects />
      <Transitions />
      <BoundProperties>
        <BoundPropertyBool Name="Mute" Value="false" />
        <BoundPropertyInt Name="rotateStepNinety" Value="0" />
        <BoundPropertyFloat Name="Volume" Value="0" />
      </BoundProperties>
    </VideoClip>
    <AudioClip extentID="165" gapBefore="0.33805550555439368" mediaItemID="76" inTime="73.560000000000002" outTime="85.950000000000003" speed="1">
      <Effects />
      <Transitions />
      <BoundProperties>
        <BoundPropertyBool Name="Mute" Value="false" />
        <BoundPropertyFloat Name="Volume" Value="0.95686280727386475" />
      </BoundProperties>
    </AudioClip>
    <VideoClip extentID="166" gapBefore="0" mediaItemID="127" inTime="0" outTime="14.693306599999119" speed="1" stabilizationMode="0">
      <Effects />
      <Transitions />
      <BoundProperties>
        <BoundPropertyBool Name="Mute" Value="false" />
        <BoundPropertyInt Name="rotateStepNinety" Value="0" />
        <BoundPropertyFloat Name="Volume" Value="0" />
      </BoundProperties>
    </VideoClip>
    <TitleClip extentID="167" gapBefore="0" duration="1">
      <Effects />
      <Transitions />
      <BoundProperties>
        <BoundPropertyFloatSet Name="diffuseColor">
          <BoundPropertyFloatElement Value="0" />
          <BoundPropertyFloatElement Value="0" />
          <BoundPropertyFloatElement Value="0" />
        </BoundPropertyFloatSet>
        <BoundPropertyFloat Name="transparency" Value="0" />
      </BoundProperties>
    </TitleClip>
    <VideoClip extentID="168" gapBefore="0" mediaItemID="300" inTime="13.573333733335403" outTime="0" speed="1" stabilizationMode="0">
      <Effects />
      <Transitions>
        <ShapeEffect effectTemplateID="FlipTransitionTemplate" duration="1.5">
          <BoundProperties />
        </ShapeEffect>
      </Transitions>
      <BoundProperties>
        <BoundPropertyBool Name="Mute" Value="false" />
        <BoundPropertyInt Name="rotateStepNinety" Value="0" />
        <BoundPropertyFloat Name="Volume" Value="0" />
      </BoundProperties>
    </VideoClip>
    <ImageClip extentID="169" gapBefore="0" mediaItemID="130" duration="4">
      <Effects />
      <Transitions />
      <BoundProperties>
        <BoundPropertyInt Name="rotateStepNinety" Value="0" />
      </BoundProperties>
    </ImageClip>
    <ImageClip extentID="170" gapBefore="0" mediaItemID="135" duration="2.7999999999999998">
      <Effects />
      <Transitions />
      <BoundProperties>
        <BoundPropertyInt Name="rotateStepNinety" Value="0" />
      </BoundProperties>
    </ImageClip>
    <ImageClip extentID="171" gapBefore="0" mediaItemID="132" duration="4">
      <Effects>
        <ShaderEffect effectTemplateID="FadeInFromBlackEffectTemplate">
          <BoundProperties />
        </ShaderEffect>
      </Effects>
      <Transitions />
      <BoundProperties>
        <BoundPropertyInt Name="rotateStepNinety" Value="0" />
      </BoundProperties>
    </ImageClip>
    <ImageClip extentID="172" gapBefore="0" mediaItemID="137" duration="2.7999999999999998">
      <Effects />
      <Transitions />
      <BoundProperties>
        <BoundPropertyInt Name="rotateStepNinety" Value="0" />
      </BoundProperties>
    </ImageClip>
    <TitleClip extentID="173" gapBefore="88.735291719310908" duration="2">
      <Effects>
        <TextEffect effectTemplateID="TextEffectFadeTemplate" TextScriptId="1">
          <BoundProperties>
            <BoundPropertyBool Name="automatic" Value="false" />
            <BoundPropertyFloatSet Name="color">
              <BoundPropertyFloatElement Value="1" />
              <BoundPropertyFloatElement Value="1" />
              <BoundPropertyFloatElement Value="1" />
            </BoundPropertyFloatSet>
            <BoundPropertyStringSet Name="family">
              <BoundPropertyStringElement Value="Segoe UI" />
            </BoundPropertyStringSet>
            <BoundPropertyBool Name="horizontal" Value="true" />
            <BoundPropertyStringSet Name="justify">
              <BoundPropertyStringElement Value="MIDDLE" />
            </BoundPropertyStringSet>
            <BoundPropertyBool Name="leftToRight" Value="true" />
            <BoundPropertyFloatSet Name="length" />
            <BoundPropertyFloat Name="maxExtent" Value="0" />
            <BoundPropertyFloatSet Name="outlineColor">
              <BoundPropertyFloatElement Value="0.64705884456634521" />
              <BoundPropertyFloatElement Value="0.64705884456634521" />
              <BoundPropertyFloatElement Value="0.64705884456634521" />
            </BoundPropertyFloatSet>
            <BoundPropertyInt Name="outlineSizeIndex" Value="0" />
            <BoundPropertyFloatSet Name="position">
              <BoundPropertyFloatElement Value="-0.0193939208984375" />
              <BoundPropertyFloatElement Value="0.32903218269348145" />
              <BoundPropertyFloatElement Value="0.02500000037252903" />
            </BoundPropertyFloatSet>
            <BoundPropertyFloat Name="size" Value="0.80000001192092896" />
            <BoundPropertyStringSet Name="string">
              <BoundPropertyStringElement Value="Urquhart vára" />
            </BoundPropertyStringSet>
            <BoundPropertyString Name="style" Value="Bold" />
            <BoundPropertyFloat Name="transparency" Value="0" />
          </BoundProperties>
        </TextEffect>
      </Effects>
      <Transitions />
      <BoundProperties>
        <BoundPropertyFloatSet Name="diffuseColor">
          <BoundPropertyFloatElement Value="0.75" />
          <BoundPropertyFloatElement Value="1" />
          <BoundPropertyFloatElement Value="0" />
        </BoundPropertyFloatSet>
        <BoundPropertyFloat Name="transparency" Value="1" />
      </BoundProperties>
    </TitleClip>
    <AudioClip extentID="174" gapBefore="5.1350328803846423" mediaItemID="92" inTime="101.43000000000001" outTime="116.9371856843058" speed="1">
      <Effects />
      <Transitions />
      <BoundProperties>
        <BoundPropertyBool Name="Mute" Value="false" />
        <BoundPropertyFloat Name="Volume" Value="1" />
      </BoundProperties>
    </AudioClip>
    <VideoClip extentID="175" gapBefore="0" mediaItemID="11" inTime="2.5399999999999636" outTime="12.94666666666663" speed="1" stabilizationMode="0">
      <Effects>
        <ShaderEffect effectTemplateID="FadeOutToBlackEffectTemplate">
          <BoundProperties />
        </ShaderEffect>
      </Effects>
      <Transitions />
      <BoundProperties>
        <BoundPropertyBool Name="Mute" Value="false" />
        <BoundPropertyInt Name="rotateStepNinety" Value="0" />
        <BoundPropertyFloat Name="Volume" Value="0" />
      </BoundProperties>
    </VideoClip>
    <ImageClip extentID="176" gapBefore="0" mediaItemID="141" duration="2.7999999999999998">
      <Effects />
      <Transitions />
      <BoundProperties>
        <BoundPropertyInt Name="rotateStepNinety" Value="0" />
      </BoundProperties>
    </ImageClip>
    <ImageClip extentID="177" gapBefore="0" mediaItemID="142" duration="2.7999999999999998">
      <Effects />
      <Transitions />
      <BoundProperties>
        <BoundPropertyInt Name="rotateStepNinety" Value="0" />
      </BoundProperties>
    </ImageClip>
    <ImageClip extentID="178" gapBefore="0" mediaItemID="143" duration="2.7999999999999998">
      <Effects />
      <Transitions />
      <BoundProperties>
        <BoundPropertyInt Name="rotateStepNinety" Value="0" />
      </BoundProperties>
    </ImageClip>
    <ImageClip extentID="179" gapBefore="0" mediaItemID="88" duration="2.7999999999999998">
      <Effects />
      <Transitions />
      <BoundProperties>
        <BoundPropertyInt Name="rotateStepNinety" Value="0" />
      </BoundProperties>
    </ImageClip>
    <AudioClip extentID="180" gapBefore="0.87404881418183322" mediaItemID="74" inTime="20.799999999999955" outTime="30.239999999999998" speed="1">
      <Effects />
      <Transitions />
      <BoundProperties>
        <BoundPropertyBool Name="Mute" Value="false" />
        <BoundPropertyFloat Name="Volume" Value="0.72156864404678345" />
      </BoundProperties>
    </AudioClip>
    <ImageClip extentID="181" gapBefore="0" mediaItemID="146" duration="2.7999999999999998">
      <Effects />
      <Transitions />
      <BoundProperties>
        <BoundPropertyInt Name="rotateStepNinety" Value="0" />
      </BoundProperties>
    </ImageClip>
    <AudioClip extentID="182" gapBefore="2.1628533045450951" mediaItemID="39" inTime="53.039999999999893" outTime="69.56708333333323" speed="1">
      <Effects />
      <Transitions />
      <BoundProperties>
        <BoundPropertyBool Name="Mute" Value="false" />
        <BoundPropertyFloat Name="Volume" Value="0.52549022436141968" />
      </BoundProperties>
    </AudioClip>
    <VideoClip extentID="183" gapBefore="0" mediaItemID="148" inTime="0" outTime="6.9333065999991277" speed="1" stabilizationMode="0">
      <Effects />
      <Transitions />
      <BoundProperties>
        <BoundPropertyBool Name="Mute" Value="false" />
        <BoundPropertyInt Name="rotateStepNinety" Value="0" />
        <BoundPropertyFloat Name="Volume" Value="0" />
      </BoundProperties>
    </VideoClip>
    <AudioClip extentID="184" gapBefore="0.9744512277816284" mediaItemID="41" inTime="0.95999999999999996" outTime="26.843882105551721" speed="1">
      <Effects />
      <Transitions />
      <BoundProperties>
        <BoundPropertyBool Name="Mute" Value="false" />
        <BoundPropertyFloat Name="Volume" Value="0.43137258291244507" />
      </BoundProperties>
    </AudioClip>
    <VideoClip extentID="185" gapBefore="0" mediaItemID="360" inTime="23.075558055572174" outTime="30.513336633356857" speed="1" stabilizationMode="0">
      <Effects>
        <ShaderEffect effectTemplateID="FadeInFromBlackEffectTemplate">
          <BoundProperties />
        </ShaderEffect>
      </Effects>
      <Transitions />
      <BoundProperties>
        <BoundPropertyBool Name="Mute" Value="false" />
        <BoundPropertyInt Name="rotateStepNinety" Value="0" />
        <BoundPropertyFloat Name="Volume" Value="0" />
      </BoundProperties>
    </VideoClip>
    <AudioClip extentID="186" gapBefore="8.2720206806396561" mediaItemID="107" inTime="201.27000000000001" outTime="270.5506355539942" speed="1">
      <Effects>
        <AudioEffect effectTemplateID="AudioFadeEffectTemplate">
          <BoundProperties>
            <BoundPropertyFloat Name="AudioFadeInDuration" Value="5" />
            <BoundPropertyFloat Name="AudioFadeOutDuration" Value="5" />
          </BoundProperties>
        </AudioEffect>
      </Effects>
      <Transitions />
      <BoundProperties>
        <BoundPropertyBool Name="Mute" Value="false" />
        <BoundPropertyFloat Name="Volume" Value="0.17254902422428131" />
      </BoundProperties>
    </AudioClip>
    <ImageClip extentID="187" gapBefore="0" mediaItemID="70" duration="3.6000000000000001">
      <Effects />
      <Transitions />
      <BoundProperties>
        <BoundPropertyInt Name="rotateStepNinety" Value="0" />
      </BoundProperties>
    </ImageClip>
    <AudioClip extentID="188" gapBefore="37.557317848994671" mediaItemID="32" inTime="62.184912744850635" outTime="79.351579411517264" speed="1">
      <Effects />
      <Transitions />
      <BoundProperties>
        <BoundPropertyBool Name="Mute" Value="false" />
        <BoundPropertyFloat Name="Volume" Value="0.52549022436141968" />
      </BoundProperties>
    </AudioClip>
    <AudioClip extentID="189" gapBefore="1.5100633621215707" mediaItemID="39" inTime="71.159999999999997" outTime="83.360000000000014" speed="1">
      <Effects />
      <Transitions />
      <BoundProperties>
        <BoundPropertyBool Name="Mute" Value="false" />
        <BoundPropertyFloat Name="Volume" Value="0.49411767721176147" />
      </BoundProperties>
    </AudioClip>
    <VideoClip extentID="190" gapBefore="0" mediaItemID="368" inTime="3.7133333333333667" outTime="12.211850051844976" speed="1" stabilizationMode="0">
      <Effects />
      <Transitions>
        <ShapeEffect effectTemplateID="CrossfadeTransitionTemplate" duration="1.5">
          <BoundProperties />
        </ShapeEffect>
      </Transitions>
      <BoundProperties>
        <BoundPropertyBool Name="Mute" Value="false" />
        <BoundPropertyInt Name="rotateStepNinety" Value="0" />
        <BoundPropertyFloat Name="Volume" Value="0" />
      </BoundProperties>
    </VideoClip>
    <ImageClip extentID="191" gapBefore="0" mediaItemID="156" duration="3">
      <Effects />
      <Transitions />
      <BoundProperties>
        <BoundPropertyInt Name="rotateStepNinety" Value="0" />
      </BoundProperties>
    </ImageClip>
    <ImageClip extentID="192" gapBefore="0" mediaItemID="157" duration="3">
      <Effects />
      <Transitions />
      <BoundProperties>
        <BoundPropertyInt Name="rotateStepNinety" Value="0" />
      </BoundProperties>
    </ImageClip>
    <ImageClip extentID="193" gapBefore="0" mediaItemID="158" duration="3">
      <Effects />
      <Transitions />
      <BoundProperties>
        <BoundPropertyInt Name="rotateStepNinety" Value="0" />
      </BoundProperties>
    </ImageClip>
    <VideoClip extentID="194" gapBefore="0" mediaItemID="369" inTime="25.746666666667124" outTime="38.346666666667488" speed="1" stabilizationMode="0">
      <Effects />
      <Transitions />
      <BoundProperties>
        <BoundPropertyBool Name="Mute" Value="false" />
        <BoundPropertyInt Name="rotateStepNinety" Value="1" />
        <BoundPropertyFloat Name="Volume" Value="0" />
      </BoundProperties>
    </VideoClip>
    <ImageClip extentID="195" gapBefore="0" mediaItemID="160" duration="3">
      <Effects />
      <Transitions />
      <BoundProperties>
        <BoundPropertyInt Name="rotateStepNinety" Value="0" />
      </BoundProperties>
    </ImageClip>
    <ImageClip extentID="196" gapBefore="0" mediaItemID="161" duration="3">
      <Effects />
      <Transitions />
      <BoundProperties>
        <BoundPropertyInt Name="rotateStepNinety" Value="0" />
      </BoundProperties>
    </ImageClip>
    <ImageClip extentID="197" gapBefore="0" mediaItemID="162" duration="3">
      <Effects />
      <Transitions />
      <BoundProperties>
        <BoundPropertyInt Name="rotateStepNinety" Value="0" />
      </BoundProperties>
    </ImageClip>
    <ImageClip extentID="198" gapBefore="0" mediaItemID="163" duration="3">
      <Effects />
      <Transitions />
      <BoundProperties>
        <BoundPropertyInt Name="rotateStepNinety" Value="0" />
      </BoundProperties>
    </ImageClip>
    <VideoClip extentID="199" gapBefore="0" mediaItemID="164" inTime="0" outTime="0" speed="1" stabilizationMode="0">
      <Effects />
      <Transitions />
      <BoundProperties>
        <BoundPropertyBool Name="Mute" Value="false" />
        <BoundPropertyInt Name="rotateStepNinety" Value="0" />
        <BoundPropertyFloat Name="Volume" Value="0" />
      </BoundProperties>
    </VideoClip>
    <ImageClip extentID="200" gapBefore="0" mediaItemID="165" duration="3">
      <Effects />
      <Transitions />
      <BoundProperties>
        <BoundPropertyInt Name="rotateStepNinety" Value="0" />
      </BoundProperties>
    </ImageClip>
    <AudioClip extentID="201" gapBefore="5.4312496187480974" mediaItemID="85" inTime="1.02" outTime="60.033333333333303" speed="1">
      <Effects />
      <Transitions />
      <BoundProperties>
        <BoundPropertyBool Name="Mute" Value="false" />
        <BoundPropertyFloat Name="Volume" Value="2" />
      </BoundProperties>
    </AudioClip>
    <ImageClip extentID="202" gapBefore="0" mediaItemID="167" duration="3">
      <Effects />
      <Transitions />
      <BoundProperties>
        <BoundPropertyInt Name="rotateStepNinety" Value="0" />
      </BoundProperties>
    </ImageClip>
    <VideoClip extentID="203" gapBefore="0" mediaItemID="10" inTime="3.8666666666666458" outTime="22.999999999999972" speed="1" stabilizationMode="0">
      <Effects />
      <Transitions />
      <BoundProperties>
        <BoundPropertyBool Name="Mute" Value="false" />
        <BoundPropertyInt Name="rotateStepNinety" Value="0" />
        <BoundPropertyFloat Name="Volume" Value="0" />
      </BoundProperties>
    </VideoClip>
    <AudioClip extentID="204" gapBefore="5.7445379511516421" mediaItemID="39" inTime="83.360000000000014" outTime="101.76806621551503" speed="1">
      <Effects />
      <Transitions />
      <BoundProperties>
        <BoundPropertyBool Name="Mute" Value="false" />
        <BoundPropertyFloat Name="Volume" Value="0.69803923368453979" />
      </BoundProperties>
    </AudioClip>
    <ImageClip extentID="205" gapBefore="0" mediaItemID="170" duration="3">
      <Effects />
      <Transitions />
      <BoundProperties>
        <BoundPropertyInt Name="rotateStepNinety" Value="0" />
      </BoundProperties>
    </ImageClip>
    <ImageClip extentID="206" gapBefore="0" mediaItemID="171" duration="3">
      <Effects />
      <Transitions />
      <BoundProperties>
        <BoundPropertyInt Name="rotateStepNinety" Value="0" />
      </BoundProperties>
    </ImageClip>
    <VideoClip extentID="207" gapBefore="0" mediaItemID="12" inTime="24.800000000000011" outTime="27.493333333333453" speed="1" stabilizationMode="0">
      <Effects />
      <Transitions />
      <BoundProperties>
        <BoundPropertyBool Name="Mute" Value="false" />
        <BoundPropertyInt Name="rotateStepNinety" Value="0" />
        <BoundPropertyFloat Name="Volume" Value="0" />
      </BoundProperties>
    </VideoClip>
    <ImageClip extentID="208" gapBefore="0" mediaItemID="173" duration="3">
      <Effects>
        <ShaderEffect effectTemplateID="FadeInFromBlackEffectTemplate">
          <BoundProperties />
        </ShaderEffect>
      </Effects>
      <Transitions />
      <BoundProperties>
        <BoundPropertyInt Name="rotateStepNinety" Value="0" />
      </BoundProperties>
    </ImageClip>
    <AudioClip extentID="209" gapBefore="2.8644439444408363" mediaItemID="85" inTime="60.033333333333303" outTime="65.25" speed="1">
      <Effects />
      <Transitions />
      <BoundProperties>
        <BoundPropertyBool Name="Mute" Value="false" />
        <BoundPropertyFloat Name="Volume" Value="1.388235330581665" />
      </BoundProperties>
    </AudioClip>
    <VideoClip extentID="210" gapBefore="0" mediaItemID="391" inTime="56.869662466644968" outTime="59.833333333333485" speed="1" stabilizationMode="0">
      <Effects />
      <Transitions />
      <BoundProperties>
        <BoundPropertyBool Name="Mute" Value="false" />
        <BoundPropertyInt Name="rotateStepNinety" Value="0" />
        <BoundPropertyFloat Name="Volume" Value="0" />
      </BoundProperties>
    </VideoClip>
    <AudioClip extentID="211" gapBefore="0.38976303100605492" mediaItemID="39" inTime="107.56806621551505" outTime="127.85903235117564" speed="1">
      <Effects />
      <Transitions />
      <BoundProperties>
        <BoundPropertyBool Name="Mute" Value="false" />
        <BoundPropertyFloat Name="Volume" Value="0.66666668653488159" />
      </BoundProperties>
    </AudioClip>
    <ImageClip extentID="212" gapBefore="0" mediaItemID="177" duration="3.7000000000000002">
      <Effects />
      <Transitions />
      <BoundProperties>
        <BoundPropertyInt Name="rotateStepNinety" Value="0" />
      </BoundProperties>
    </ImageClip>
    <ImageClip extentID="213" gapBefore="0" mediaItemID="178" duration="3.5">
      <Effects />
      <Transitions />
      <BoundProperties>
        <BoundPropertyInt Name="rotateStepNinety" Value="0" />
      </BoundProperties>
    </ImageClip>
    <VideoClip extentID="214" gapBefore="0" mediaItemID="188" inTime="0" outTime="16.619999999999891" speed="1" stabilizationMode="0">
      <Effects />
      <Transitions />
      <BoundProperties>
        <BoundPropertyBool Name="Mute" Value="false" />
        <BoundPropertyInt Name="rotateStepNinety" Value="0" />
        <BoundPropertyFloat Name="Volume" Value="0" />
      </BoundProperties>
    </VideoClip>
    <ImageClip extentID="215" gapBefore="0" mediaItemID="180" duration="3.6000000000000001">
      <Effects />
      <Transitions />
      <BoundProperties>
        <BoundPropertyInt Name="rotateStepNinety" Value="0" />
      </BoundProperties>
    </ImageClip>
    <AudioClip extentID="216" gapBefore="13.663902455563516" mediaItemID="41" inTime="27.600000000000001" outTime="34.350937500000001" speed="1">
      <Effects>
        <AudioEffect effectTemplateID="AudioFadeEffectTemplate">
          <BoundProperties>
            <BoundPropertyFloat Name="AudioFadeInDuration" Value="0" />
            <BoundPropertyFloat Name="AudioFadeOutDuration" Value="5" />
          </BoundProperties>
        </AudioEffect>
      </Effects>
      <Transitions />
      <BoundProperties>
        <BoundPropertyBool Name="Mute" Value="false" />
        <BoundPropertyFloat Name="Volume" Value="0.32156863808631897" />
      </BoundProperties>
    </AudioClip>
    <VideoClip extentID="217" gapBefore="0" mediaItemID="183" inTime="9.1505487722183716" outTime="27.133333333333439" speed="1" stabilizationMode="0">
      <Effects>
        <AudioEffect effectTemplateID="AudioFadeEffectTemplate">
          <BoundProperties>
            <BoundPropertyFloat Name="AudioFadeInDuration" Value="10" />
            <BoundPropertyFloat Name="AudioFadeOutDuration" Value="0" />
          </BoundProperties>
        </AudioEffect>
      </Effects>
      <Transitions />
      <BoundProperties>
        <BoundPropertyBool Name="Mute" Value="false" />
        <BoundPropertyInt Name="rotateStepNinety" Value="0" />
        <BoundPropertyFloat Name="Volume" Value="0.17254902422428131" />
      </BoundProperties>
    </VideoClip>
    <AudioClip extentID="218" gapBefore="8.9365972222224173" mediaItemID="43" inTime="0.99666666666667314" outTime="54.822291666665564" speed="1">
      <Effects />
      <Transitions />
      <BoundProperties>
        <BoundPropertyBool Name="Mute" Value="false" />
        <BoundPropertyFloat Name="Volume" Value="0.43137258291244507" />
      </BoundProperties>
    </AudioClip>
    <ImageClip extentID="219" gapBefore="0" mediaItemID="184" duration="3.7000000000000002">
      <Effects />
      <Transitions />
      <BoundProperties>
        <BoundPropertyInt Name="rotateStepNinety" Value="0" />
      </BoundProperties>
    </ImageClip>
    <ImageClip extentID="220" gapBefore="0" mediaItemID="185" duration="3.7000000000000002">
      <Effects />
      <Transitions />
      <BoundProperties>
        <BoundPropertyInt Name="rotateStepNinety" Value="0" />
      </BoundProperties>
    </ImageClip>
    <ImageClip extentID="221" gapBefore="0" mediaItemID="186" duration="5.5">
      <Effects>
        <ShaderEffect effectTemplateID="FadeOutToBlackEffectTemplate">
          <BoundProperties />
        </ShaderEffect>
      </Effects>
      <Transitions />
      <BoundProperties>
        <BoundPropertyInt Name="rotateStepNinety" Value="0" />
      </BoundProperties>
    </ImageClip>
    <VideoClip extentID="222" gapBefore="0" mediaItemID="370" inTime="2.8333333333334849" outTime="7.1333333333334394" speed="1" stabilizationMode="0">
      <Effects />
      <Transitions>
        <ShapeEffect effectTemplateID="CrossfadeTransitionTemplate" duration="1.5">
          <BoundProperties />
        </ShapeEffect>
      </Transitions>
      <BoundProperties>
        <BoundPropertyBool Name="Mute" Value="false" />
        <BoundPropertyInt Name="rotateStepNinety" Value="0" />
        <BoundPropertyFloat Name="Volume" Value="0" />
      </BoundProperties>
    </VideoClip>
    <VideoClip extentID="223" gapBefore="0" mediaItemID="14" inTime="9.4599999999991837" outTime="17.760000000000002" speed="1" stabilizationMode="0">
      <Effects>
        <AudioEffect effectTemplateID="AudioFadeEffectTemplate">
          <BoundProperties>
            <BoundPropertyFloat Name="AudioFadeInDuration" Value="5" />
            <BoundPropertyFloat Name="AudioFadeOutDuration" Value="5" />
          </BoundProperties>
        </AudioEffect>
      </Effects>
      <Transitions />
      <BoundProperties>
        <BoundPropertyBool Name="Mute" Value="false" />
        <BoundPropertyInt Name="rotateStepNinety" Value="0" />
        <BoundPropertyFloat Name="Volume" Value="0.20392158627510071" />
      </BoundProperties>
    </VideoClip>
    <VideoClip extentID="224" gapBefore="0" mediaItemID="64" inTime="0" outTime="0" speed="1" stabilizationMode="0">
      <Effects>
        <PanAndZoomShapeEffect effectTemplateID="PanAndZoomEffectAutomaticTemplate">
          <BoundProperties>
            <BoundPropertyFloatSet Name="center">
              <BoundPropertyFloatElement Value="-1" />
              <BoundPropertyFloatElement Value="-1" />
              <BoundPropertyFloatElement Value="-1" />
              <BoundPropertyFloatElement Value="-1" />
            </BoundPropertyFloatSet>
            <BoundPropertyInt Name="effectType" Value="6" />
            <BoundPropertyFloatSet Name="scale">
              <BoundPropertyFloatElement Value="0.85000002384185791" />
              <BoundPropertyFloatElement Value="0.85000002384185791" />
              <BoundPropertyFloatElement Value="1" />
              <BoundPropertyFloatElement Value="1" />
            </BoundPropertyFloatSet>
          </BoundProperties>
        </PanAndZoomShapeEffect>
      </Effects>
      <Transitions />
      <BoundProperties>
        <BoundPropertyBool Name="Mute" Value="false" />
        <BoundPropertyInt Name="rotateStepNinety" Value="0" />
        <BoundPropertyFloat Name="Volume" Value="1" />
      </BoundProperties>
    </VideoClip>
    <ImageClip extentID="225" gapBefore="0" mediaItemID="193" duration="2.5">
      <Effects />
      <Transitions />
      <BoundProperties>
        <BoundPropertyInt Name="rotateStepNinety" Value="0" />
      </BoundProperties>
    </ImageClip>
    <VideoClip extentID="226" gapBefore="0" mediaItemID="176" inTime="0" outTime="6.3466667666666581" speed="1" stabilizationMode="0">
      <Effects>
        <ShaderEffect effectTemplateID="FadeOutToBlackEffectTemplate">
          <BoundProperties />
        </ShaderEffect>
      </Effects>
      <Transitions />
      <BoundProperties>
        <BoundPropertyBool Name="Mute" Value="false" />
        <BoundPropertyInt Name="rotateStepNinety" Value="0" />
        <BoundPropertyFloat Name="Volume" Value="0" />
      </BoundProperties>
    </VideoClip>
    <ImageClip extentID="227" gapBefore="0" mediaItemID="195" duration="2.5">
      <Effects />
      <Transitions />
      <BoundProperties>
        <BoundPropertyInt Name="rotateStepNinety" Value="0" />
      </BoundProperties>
    </ImageClip>
    <AudioClip extentID="228" gapBefore="0.93625508626178089" mediaItemID="107" inTime="1624.1187546944361" outTime="1714.9824996081741" speed="1">
      <Effects>
        <AudioEffect effectTemplateID="AudioFadeEffectTemplate">
          <BoundProperties>
            <BoundPropertyFloat Name="AudioFadeInDuration" Value="2.5" />
            <BoundPropertyFloat Name="AudioFadeOutDuration" Value="5" />
          </BoundProperties>
        </AudioEffect>
      </Effects>
      <Transitions />
      <BoundProperties>
        <BoundPropertyBool Name="Mute" Value="false" />
        <BoundPropertyFloat Name="Volume" Value="0.37647062540054321" />
      </BoundProperties>
    </AudioClip>
    <AudioClip extentID="229" gapBefore="2.1835416666703509" mediaItemID="43" inTime="55.202291666661637" outTime="62.88541666665796" speed="1">
      <Effects />
      <Transitions />
      <BoundProperties>
        <BoundPropertyBool Name="Mute" Value="false" />
        <BoundPropertyFloat Name="Volume" Value="0.37647062540054321" />
      </BoundProperties>
    </AudioClip>
    <AudioClip extentID="230" gapBefore="4.2143622843425419" mediaItemID="32" inTime="79.890000000000001" outTime="116.5316531999962" speed="1">
      <Effects />
      <Transitions />
      <BoundProperties>
        <BoundPropertyBool Name="Mute" Value="false" />
        <BoundPropertyFloat Name="Volume" Value="0.49411767721176147" />
      </BoundProperties>
    </AudioClip>
    <ImageClip extentID="232" gapBefore="0" mediaItemID="197" duration="2.5">
      <Effects />
      <Transitions />
      <BoundProperties>
        <BoundPropertyInt Name="rotateStepNinety" Value="0" />
      </BoundProperties>
    </ImageClip>
    <AudioClip extentID="233" gapBefore="0.10175910953364564" mediaItemID="32" inTime="150.99831986666288" outTime="218.00999999999999" speed="1">
      <Effects />
      <Transitions />
      <BoundProperties>
        <BoundPropertyBool Name="Mute" Value="false" />
        <BoundPropertyFloat Name="Volume" Value="0.54901963472366333" />
      </BoundProperties>
    </AudioClip>
    <ImageClip extentID="234" gapBefore="0" mediaItemID="181" duration="2.5">
      <Effects />
      <Transitions />
      <BoundProperties>
        <BoundPropertyInt Name="rotateStepNinety" Value="0" />
      </BoundProperties>
    </ImageClip>
    <VideoClip extentID="235" gapBefore="0" mediaItemID="200" inTime="0" outTime="7.8933333333334303" speed="1" stabilizationMode="0">
      <Effects />
      <Transitions />
      <BoundProperties>
        <BoundPropertyBool Name="Mute" Value="false" />
        <BoundPropertyInt Name="rotateStepNinety" Value="0" />
        <BoundPropertyFloat Name="Volume" Value="0" />
      </BoundProperties>
    </VideoClip>
    <ImageClip extentID="236" gapBefore="0" mediaItemID="201" duration="2.5">
      <Effects />
      <Transitions />
      <BoundProperties>
        <BoundPropertyInt Name="rotateStepNinety" Value="0" />
      </BoundProperties>
    </ImageClip>
    <AudioClip extentID="237" gapBefore="6.6816801333371814" mediaItemID="32" inTime="116.5316531999962" outTime="150.33000000000001" speed="1">
      <Effects />
      <Transitions />
      <BoundProperties>
        <BoundPropertyBool Name="Mute" Value="false" />
        <BoundPropertyFloat Name="Volume" Value="0.54901963472366333" />
      </BoundProperties>
    </AudioClip>
    <AudioClip extentID="238" gapBefore="6.0673089599611103" mediaItemID="80" inTime="31.32" outTime="45.689999999999998" speed="1">
      <Effects />
      <Transitions />
      <BoundProperties>
        <BoundPropertyBool Name="Mute" Value="false" />
        <BoundPropertyFloat Name="Volume" Value="1" />
      </BoundProperties>
    </AudioClip>
    <VideoClip extentID="239" gapBefore="0" mediaItemID="309" inTime="9.1488897888957581" outTime="17.000001200006409" speed="1" stabilizationMode="0">
      <Effects />
      <Transitions />
      <BoundProperties>
        <BoundPropertyBool Name="Mute" Value="false" />
        <BoundPropertyInt Name="rotateStepNinety" Value="0" />
        <BoundPropertyFloat Name="Volume" Value="0" />
      </BoundProperties>
    </VideoClip>
    <VideoClip extentID="240" gapBefore="0" mediaItemID="333" inTime="12.533334133336211" outTime="25.440000000000001" speed="1" stabilizationMode="0">
      <Effects />
      <Transitions />
      <BoundProperties>
        <BoundPropertyBool Name="Mute" Value="false" />
        <BoundPropertyInt Name="rotateStepNinety" Value="0" />
        <BoundPropertyFloat Name="Volume" Value="0" />
      </BoundProperties>
    </VideoClip>
    <AudioClip extentID="241" gapBefore="0.61032639178733916" mediaItemID="93" inTime="0" outTime="34.202992199931487" speed="1">
      <Effects />
      <Transitions />
      <BoundProperties>
        <BoundPropertyBool Name="Mute" Value="false" />
        <BoundPropertyFloat Name="Volume" Value="0.83921575546264648" />
      </BoundProperties>
    </AudioClip>
    <ImageClip extentID="242" gapBefore="0" mediaItemID="207" duration="3">
      <Effects>
        <ShaderEffect effectTemplateID="FadeOutToBlackEffectTemplate">
          <BoundProperties />
        </ShaderEffect>
      </Effects>
      <Transitions />
      <BoundProperties>
        <BoundPropertyInt Name="rotateStepNinety" Value="0" />
      </BoundProperties>
    </ImageClip>
    <AudioClip extentID="243" gapBefore="0.63333333333332575" mediaItemID="47" inTime="0.93333333333333712" outTime="11.766666666666652" speed="1">
      <Effects />
      <Transitions />
      <BoundProperties>
        <BoundPropertyBool Name="Mute" Value="false" />
        <BoundPropertyFloat Name="Volume" Value="0.54901963472366333" />
      </BoundProperties>
    </AudioClip>
    <ImageClip extentID="244" gapBefore="0" mediaItemID="209" duration="2.5">
      <Effects />
      <Transitions />
      <BoundProperties>
        <BoundPropertyInt Name="rotateStepNinety" Value="0" />
      </BoundProperties>
    </ImageClip>
    <AudioClip extentID="245" gapBefore="1.4966592915892534" mediaItemID="47" inTime="11.766666666666652" outTime="33.509999999999998" speed="1">
      <Effects />
      <Transitions />
      <BoundProperties>
        <BoundPropertyBool Name="Mute" Value="false" />
        <BoundPropertyFloat Name="Volume" Value="0.46274513006210327" />
      </BoundProperties>
    </AudioClip>
    <VideoClip extentID="246" gapBefore="0" mediaItemID="312" inTime="27.099999999999909" outTime="40.32" speed="1" stabilizationMode="0">
      <Effects />
      <Transitions>
        <ShapeEffect effectTemplateID="CrossfadeTransitionTemplate" duration="1.5">
          <BoundProperties />
        </ShapeEffect>
      </Transitions>
      <BoundProperties>
        <BoundPropertyBool Name="Mute" Value="false" />
        <BoundPropertyInt Name="rotateStepNinety" Value="0" />
        <BoundPropertyFloat Name="Volume" Value="0" />
      </BoundProperties>
    </VideoClip>
    <VideoClip extentID="247" gapBefore="0" mediaItemID="321" inTime="23.227074933265385" outTime="27.366666666666333" speed="1" stabilizationMode="0">
      <Effects />
      <Transitions>
        <ShapeEffect effectTemplateID="SpinTransitionTemplate" duration="1.5">
          <BoundProperties />
        </ShapeEffect>
      </Transitions>
      <BoundProperties>
        <BoundPropertyBool Name="Mute" Value="false" />
        <BoundPropertyInt Name="rotateStepNinety" Value="0" />
        <BoundPropertyFloat Name="Volume" Value="0" />
      </BoundProperties>
    </VideoClip>
    <AudioClip extentID="248" gapBefore="880.10840308052116" mediaItemID="109" inTime="0" outTime="0" speed="1">
      <Effects />
      <Transitions />
      <BoundProperties>
        <BoundPropertyBool Name="Mute" Value="false" />
        <BoundPropertyFloat Name="Volume" Value="0.49411767721176147" />
      </BoundProperties>
    </AudioClip>
    <VideoClip extentID="249" gapBefore="0" mediaItemID="246" inTime="20.9800000000007" outTime="0" speed="1" stabilizationMode="0">
      <Effects>
        <ShaderEffect effectTemplateID="FadeInFromBlackEffectTemplate">
          <BoundProperties />
        </ShaderEffect>
      </Effects>
      <Transitions />
      <BoundProperties>
        <BoundPropertyBool Name="Mute" Value="false" />
        <BoundPropertyInt Name="rotateStepNinety" Value="0" />
        <BoundPropertyFloat Name="Volume" Value="0" />
      </BoundProperties>
    </VideoClip>
    <AudioClip extentID="250" gapBefore="0.5939462970952718" mediaItemID="93" inTime="88.890000000000001" outTime="131.81398197085298" speed="1">
      <Effects />
      <Transitions />
      <BoundProperties>
        <BoundPropertyBool Name="Mute" Value="false" />
        <BoundPropertyFloat Name="Volume" Value="1.388235330581665" />
      </BoundProperties>
    </AudioClip>
    <ImageClip extentID="251" gapBefore="0" mediaItemID="196" duration="2.5">
      <Effects />
      <Transitions />
      <BoundProperties>
        <BoundPropertyInt Name="rotateStepNinety" Value="0" />
      </BoundProperties>
    </ImageClip>
    <VideoClip extentID="252" gapBefore="0" mediaItemID="268" inTime="18.893333333333203" outTime="22.11333333333344" speed="1" stabilizationMode="0">
      <Effects>
        <ShaderEffect effectTemplateID="FadeOutToBlackEffectTemplate">
          <BoundProperties />
        </ShaderEffect>
      </Effects>
      <Transitions>
        <ShapeEffect effectTemplateID="CrossfadeTransitionTemplate" duration="1.5">
          <BoundProperties />
        </ShapeEffect>
      </Transitions>
      <BoundProperties>
        <BoundPropertyBool Name="Mute" Value="false" />
        <BoundPropertyInt Name="rotateStepNinety" Value="0" />
        <BoundPropertyFloat Name="Volume" Value="0" />
      </BoundProperties>
    </VideoClip>
    <AudioClip extentID="253" gapBefore="-0.46690539939527298" mediaItemID="47" inTime="42.649448204111309" outTime="53.980268759719252" speed="1">
      <Effects />
      <Transitions />
      <BoundProperties>
        <BoundPropertyBool Name="Mute" Value="false" />
        <BoundPropertyFloat Name="Volume" Value="0.43137258291244507" />
      </BoundProperties>
    </AudioClip>
    <VideoClip extentID="254" gapBefore="0" mediaItemID="66" inTime="23.514986333329261" outTime="42.986666566666599" speed="1" stabilizationMode="0">
      <Effects>
        <AudioEffect effectTemplateID="AudioFadeEffectTemplate">
          <BoundProperties>
            <BoundPropertyFloat Name="AudioFadeInDuration" Value="5" />
            <BoundPropertyFloat Name="AudioFadeOutDuration" Value="5" />
          </BoundProperties>
        </AudioEffect>
      </Effects>
      <Transitions />
      <BoundProperties>
        <BoundPropertyBool Name="Mute" Value="false" />
        <BoundPropertyInt Name="rotateStepNinety" Value="0" />
        <BoundPropertyFloat Name="Volume" Value="0.25882354378700256" />
      </BoundProperties>
    </VideoClip>
    <ImageClip extentID="255" gapBefore="0" mediaItemID="208" duration="2.5">
      <Effects />
      <Transitions />
      <BoundProperties>
        <BoundPropertyInt Name="rotateStepNinety" Value="0" />
      </BoundProperties>
    </ImageClip>
    <VideoClip extentID="256" gapBefore="0" mediaItemID="221" inTime="0" outTime="43.333333333333371" speed="1" stabilizationMode="0">
      <Effects>
        <ShaderEffect effectTemplateID="FadeInFromBlackEffectTemplate">
          <BoundProperties />
        </ShaderEffect>
      </Effects>
      <Transitions />
      <BoundProperties>
        <BoundPropertyBool Name="Mute" Value="false" />
        <BoundPropertyInt Name="rotateStepNinety" Value="0" />
        <BoundPropertyFloat Name="Volume" Value="0" />
      </BoundProperties>
    </VideoClip>
    <ImageClip extentID="257" gapBefore="0" mediaItemID="211" duration="2.5">
      <Effects />
      <Transitions />
      <BoundProperties>
        <BoundPropertyInt Name="rotateStepNinety" Value="0" />
      </BoundProperties>
    </ImageClip>
    <VideoClip extentID="258" gapBefore="0" mediaItemID="223" inTime="0" outTime="26.5" speed="1" stabilizationMode="0">
      <Effects />
      <Transitions />
      <BoundProperties>
        <BoundPropertyBool Name="Mute" Value="false" />
        <BoundPropertyInt Name="rotateStepNinety" Value="0" />
        <BoundPropertyFloat Name="Volume" Value="0" />
      </BoundProperties>
    </VideoClip>
    <VideoClip extentID="259" gapBefore="0" mediaItemID="224" inTime="0" outTime="5.6333333333333258" speed="1" stabilizationMode="0">
      <Effects />
      <Transitions />
      <BoundProperties>
        <BoundPropertyBool Name="Mute" Value="false" />
        <BoundPropertyInt Name="rotateStepNinety" Value="0" />
        <BoundPropertyFloat Name="Volume" Value="0" />
      </BoundProperties>
    </VideoClip>
    <VideoClip extentID="261" gapBefore="0" mediaItemID="226" inTime="0" outTime="12.973333433333437" speed="1" stabilizationMode="0">
      <Effects />
      <Transitions />
      <BoundProperties>
        <BoundPropertyBool Name="Mute" Value="false" />
        <BoundPropertyInt Name="rotateStepNinety" Value="0" />
        <BoundPropertyFloat Name="Volume" Value="0" />
      </BoundProperties>
    </VideoClip>
    <VideoClip extentID="262" gapBefore="0" mediaItemID="331" inTime="5.8472110221323419" outTime="17.920816533198604" speed="1" stabilizationMode="0">
      <Effects />
      <Transitions />
      <BoundProperties>
        <BoundPropertyBool Name="Mute" Value="false" />
        <BoundPropertyInt Name="rotateStepNinety" Value="0" />
        <BoundPropertyFloat Name="Volume" Value="0" />
      </BoundProperties>
    </VideoClip>
    <ImageClip extentID="263" gapBefore="0" mediaItemID="228" duration="3">
      <Effects />
      <Transitions>
        <ShapeEffect effectTemplateID="CrossfadeTransitionTemplate" duration="1.5">
          <BoundProperties />
        </ShapeEffect>
      </Transitions>
      <BoundProperties>
        <BoundPropertyInt Name="rotateStepNinety" Value="0" />
      </BoundProperties>
    </ImageClip>
    <VideoClip extentID="264" gapBefore="0" mediaItemID="334" inTime="15.900544355465627" outTime="19.553333333333285" speed="1" stabilizationMode="0">
      <Effects />
      <Transitions />
      <BoundProperties>
        <BoundPropertyBool Name="Mute" Value="false" />
        <BoundPropertyInt Name="rotateStepNinety" Value="0" />
        <BoundPropertyFloat Name="Volume" Value="0" />
      </BoundProperties>
    </VideoClip>
    <AudioClip extentID="265" gapBefore="1.651785628429252" mediaItemID="93" inTime="131.81398197085298" outTime="165.50999999999999" speed="1">
      <Effects />
      <Transitions />
      <BoundProperties>
        <BoundPropertyBool Name="Mute" Value="false" />
        <BoundPropertyFloat Name="Volume" Value="1.5058825016021729" />
      </BoundProperties>
    </AudioClip>
    <ImageClip extentID="266" gapBefore="0" mediaItemID="217" duration="2.5">
      <Effects />
      <Transitions />
      <BoundProperties>
        <BoundPropertyInt Name="rotateStepNinety" Value="0" />
      </BoundProperties>
    </ImageClip>
    <AudioClip extentID="267" gapBefore="-0.32892515394490829" mediaItemID="47" inTime="33.650833333329331" outTime="42.649448204111309" speed="1">
      <Effects />
      <Transitions />
      <BoundProperties>
        <BoundPropertyBool Name="Mute" Value="false" />
        <BoundPropertyFloat Name="Volume" Value="0.61176472902297974" />
      </BoundProperties>
    </AudioClip>
    <VideoClip extentID="268" gapBefore="0" mediaItemID="589" inTime="7.6867066666665096" outTime="9.2533733333331725" speed="1" stabilizationMode="0">
      <Effects />
      <Transitions />
      <BoundProperties>
        <BoundPropertyBool Name="Mute" Value="false" />
        <BoundPropertyInt Name="rotateStepNinety" Value="0" />
        <BoundPropertyFloat Name="Volume" Value="0" />
      </BoundProperties>
    </VideoClip>
    <ImageClip extentID="269" gapBefore="0" mediaItemID="234" duration="5">
      <Effects>
        <ShaderEffect effectTemplateID="FadeOutToBlackEffectTemplate">
          <BoundProperties />
        </ShaderEffect>
      </Effects>
      <Transitions />
      <BoundProperties>
        <BoundPropertyInt Name="rotateStepNinety" Value="0" />
      </BoundProperties>
    </ImageClip>
    <ImageClip extentID="270" gapBefore="0" mediaItemID="219" duration="2.5">
      <Effects />
      <Transitions />
      <BoundProperties>
        <BoundPropertyInt Name="rotateStepNinety" Value="0" />
      </BoundProperties>
    </ImageClip>
    <VideoClip extentID="271" gapBefore="0" mediaItemID="387" inTime="65.182182166232678" outTime="69.028047065364262" speed="1" stabilizationMode="0">
      <Effects />
      <Transitions />
      <BoundProperties>
        <BoundPropertyBool Name="Mute" Value="false" />
        <BoundPropertyInt Name="rotateStepNinety" Value="0" />
        <BoundPropertyFloat Name="Volume" Value="1.3647059202194214" />
      </BoundProperties>
    </VideoClip>
    <ImageClip extentID="272" gapBefore="0" mediaItemID="237" duration="5">
      <Effects />
      <Transitions />
      <BoundProperties>
        <BoundPropertyInt Name="rotateStepNinety" Value="0" />
      </BoundProperties>
    </ImageClip>
    <ImageClip extentID="273" gapBefore="0" mediaItemID="238" duration="5">
      <Effects />
      <Transitions />
      <BoundProperties>
        <BoundPropertyInt Name="rotateStepNinety" Value="0" />
      </BoundProperties>
    </ImageClip>
    <TitleClip extentID="274" gapBefore="12.754139638790321" duration="2">
      <Effects>
        <TextEffect effectTemplateID="TextEffectTemplate" TextScriptId="0">
          <BoundProperties>
            <BoundPropertyBool Name="automatic" Value="false" />
            <BoundPropertyFloatSet Name="color">
              <BoundPropertyFloatElement Value="1" />
              <BoundPropertyFloatElement Value="1" />
              <BoundPropertyFloatElement Value="1" />
            </BoundPropertyFloatSet>
            <BoundPropertyStringSet Name="family">
              <BoundPropertyStringElement Value="Segoe UI" />
            </BoundPropertyStringSet>
            <BoundPropertyBool Name="horizontal" Value="true" />
            <BoundPropertyStringSet Name="justify">
              <BoundPropertyStringElement Value="MIDDLE" />
            </BoundPropertyStringSet>
            <BoundPropertyBool Name="leftToRight" Value="true" />
            <BoundPropertyFloatSet Name="length">
              <BoundPropertyFloatElement Value="4.0999999046325684" />
              <BoundPropertyFloatElement Value="5.1999998092651367" />
            </BoundPropertyFloatSet>
            <BoundPropertyFloat Name="maxExtent" Value="5" />
            <BoundPropertyFloatSet Name="outlineColor">
              <BoundPropertyFloatElement Value="0.64705884456634521" />
              <BoundPropertyFloatElement Value="0.64705884456634521" />
              <BoundPropertyFloatElement Value="0.64705884456634521" />
            </BoundPropertyFloatSet>
            <BoundPropertyInt Name="outlineSizeIndex" Value="0" />
            <BoundPropertyFloatSet Name="position">
              <BoundPropertyFloatElement Value="-0.0193939208984375" />
              <BoundPropertyFloatElement Value="-1.8000001907348633" />
              <BoundPropertyFloatElement Value="0.02500000037252903" />
            </BoundPropertyFloatSet>
            <BoundPropertyFloat Name="size" Value="0.60000002384185791" />
            <BoundPropertyStringSet Name="string">
              <BoundPropertyStringElement Value="Inverness" />
            </BoundPropertyStringSet>
            <BoundPropertyString Name="style" Value="Plain" />
            <BoundPropertyFloat Name="transparency" Value="0" />
          </BoundProperties>
        </TextEffect>
      </Effects>
      <Transitions />
      <BoundProperties>
        <BoundPropertyFloatSet Name="diffuseColor">
          <BoundPropertyFloatElement Value="0.75" />
          <BoundPropertyFloatElement Value="1" />
          <BoundPropertyFloatElement Value="0" />
        </BoundPropertyFloatSet>
        <BoundPropertyFloat Name="transparency" Value="1" />
      </BoundProperties>
    </TitleClip>
    <VideoClip extentID="275" gapBefore="0" mediaItemID="113" inTime="2.9933333333333323" outTime="0" speed="0.5" stabilizationMode="0">
      <Effects>
        <ShaderEffect effectTemplateID="FadeInFromBlackEffectTemplate">
          <BoundProperties />
        </ShaderEffect>
      </Effects>
      <Transitions />
      <BoundProperties>
        <BoundPropertyBool Name="Mute" Value="false" />
        <BoundPropertyInt Name="rotateStepNinety" Value="0" />
        <BoundPropertyFloat Name="Volume" Value="1" />
      </BoundProperties>
    </VideoClip>
    <ImageClip extentID="276" gapBefore="0" mediaItemID="241" duration="5">
      <Effects />
      <Transitions />
      <BoundProperties>
        <BoundPropertyInt Name="rotateStepNinety" Value="0" />
      </BoundProperties>
    </ImageClip>
    <VideoClip extentID="277" gapBefore="0" mediaItemID="66" inTime="23.514986333329261" outTime="37.809972766658689" speed="1" stabilizationMode="0">
      <Effects>
        <AudioEffect effectTemplateID="AudioFadeEffectTemplate">
          <BoundProperties>
            <BoundPropertyFloat Name="AudioFadeInDuration" Value="5" />
            <BoundPropertyFloat Name="AudioFadeOutDuration" Value="0" />
          </BoundProperties>
        </AudioEffect>
      </Effects>
      <Transitions />
      <BoundProperties>
        <BoundPropertyBool Name="Mute" Value="false" />
        <BoundPropertyInt Name="rotateStepNinety" Value="0" />
        <BoundPropertyFloat Name="Volume" Value="1" />
      </BoundProperties>
    </VideoClip>
    <ImageClip extentID="278" gapBefore="0" mediaItemID="242" duration="4">
      <Effects />
      <Transitions />
      <BoundProperties>
        <BoundPropertyInt Name="rotateStepNinety" Value="0" />
      </BoundProperties>
    </ImageClip>
    <AudioClip extentID="279" gapBefore="16.49895424671206" mediaItemID="71" inTime="1.23" outTime="25.075157914055335" speed="1">
      <Effects />
      <Transitions />
      <BoundProperties>
        <BoundPropertyBool Name="Mute" Value="false" />
        <BoundPropertyFloat Name="Volume" Value="0.43137258291244507" />
      </BoundProperties>
    </AudioClip>
    <TitleClip extentID="280" gapBefore="0" duration="1">
      <Effects />
      <Transitions />
      <BoundProperties>
        <BoundPropertyFloatSet Name="diffuseColor">
          <BoundPropertyFloatElement Value="0" />
          <BoundPropertyFloatElement Value="0" />
          <BoundPropertyFloatElement Value="0" />
        </BoundPropertyFloatSet>
        <BoundPropertyFloat Name="transparency" Value="0" />
      </BoundProperties>
    </TitleClip>
    <TitleClip extentID="281" gapBefore="83.126557449298843" duration="2">
      <Effects>
        <TextEffect effectTemplateID="TextEffectFadeZoomTemplate" TextScriptId="9">
          <BoundProperties>
            <BoundPropertyBool Name="automatic" Value="true" />
            <BoundPropertyFloatSet Name="color">
              <BoundPropertyFloatElement Value="0" />
              <BoundPropertyFloatElement Value="0" />
              <BoundPropertyFloatElement Value="0" />
            </BoundPropertyFloatSet>
            <BoundPropertyStringSet Name="family">
              <BoundPropertyStringElement Value="Segoe UI" />
            </BoundPropertyStringSet>
            <BoundPropertyBool Name="horizontal" Value="true" />
            <BoundPropertyStringSet Name="justify">
              <BoundPropertyStringElement Value="MIDDLE" />
            </BoundPropertyStringSet>
            <BoundPropertyBool Name="leftToRight" Value="true" />
            <BoundPropertyFloatSet Name="length" />
            <BoundPropertyFloat Name="maxExtent" Value="0" />
            <BoundPropertyFloatSet Name="outlineColor">
              <BoundPropertyFloatElement Value="0.64705884456634521" />
              <BoundPropertyFloatElement Value="0.64705884456634521" />
              <BoundPropertyFloatElement Value="0.64705884456634521" />
            </BoundPropertyFloatSet>
            <BoundPropertyInt Name="outlineSizeIndex" Value="0" />
            <BoundPropertyFloatSet Name="position">
              <BoundPropertyFloatElement Value="0.79515171051025391" />
              <BoundPropertyFloatElement Value="-0.98709678649902344" />
              <BoundPropertyFloatElement Value="0.02500000037252903" />
            </BoundPropertyFloatSet>
            <BoundPropertyFloat Name="size" Value="0.80000001192092896" />
            <BoundPropertyStringSet Name="string">
              <BoundPropertyStringElement Value="Loch Lomond" />
            </BoundPropertyStringSet>
            <BoundPropertyString Name="style" Value="Bold" />
            <BoundPropertyFloat Name="transparency" Value="0" />
          </BoundProperties>
        </TextEffect>
      </Effects>
      <Transitions />
      <BoundProperties>
        <BoundPropertyFloatSet Name="diffuseColor">
          <BoundPropertyFloatElement Value="0.75" />
          <BoundPropertyFloatElement Value="1" />
          <BoundPropertyFloatElement Value="0" />
        </BoundPropertyFloatSet>
        <BoundPropertyFloat Name="transparency" Value="1" />
      </BoundProperties>
    </TitleClip>
    <TitleClip extentID="282" gapBefore="0" duration="1">
      <Effects />
      <Transitions />
      <BoundProperties>
        <BoundPropertyFloatSet Name="diffuseColor">
          <BoundPropertyFloatElement Value="0" />
          <BoundPropertyFloatElement Value="0" />
          <BoundPropertyFloatElement Value="0" />
        </BoundPropertyFloatSet>
        <BoundPropertyFloat Name="transparency" Value="0" />
      </BoundProperties>
    </TitleClip>
    <AudioClip extentID="283" gapBefore="0.31575499635403048" mediaItemID="71" inTime="25.075157914055335" outTime="45.708491247388665" speed="1">
      <Effects />
      <Transitions />
      <BoundProperties>
        <BoundPropertyBool Name="Mute" Value="false" />
        <BoundPropertyFloat Name="Volume" Value="0.37647062540054321" />
      </BoundProperties>
    </AudioClip>
    <VideoClip extentID="284" gapBefore="0" mediaItemID="384" inTime="212.20516786666531" outTime="225.87183453333182" speed="1" stabilizationMode="0">
      <Effects />
      <Transitions />
      <BoundProperties>
        <BoundPropertyBool Name="Mute" Value="false" />
        <BoundPropertyInt Name="rotateStepNinety" Value="0" />
        <BoundPropertyFloat Name="Volume" Value="0" />
      </BoundProperties>
    </VideoClip>
    <AudioClip extentID="285" gapBefore="2.7000496221224353" mediaItemID="47" inTime="65.832492310305611" outTime="80.37601142072225" speed="1">
      <Effects />
      <Transitions />
      <BoundProperties>
        <BoundPropertyBool Name="Mute" Value="false" />
        <BoundPropertyFloat Name="Volume" Value="0.52549022436141968" />
      </BoundProperties>
    </AudioClip>
    <ImageClip extentID="286" gapBefore="0" mediaItemID="235" duration="2.5">
      <Effects />
      <Transitions />
      <BoundProperties>
        <BoundPropertyInt Name="rotateStepNinety" Value="0" />
      </BoundProperties>
    </ImageClip>
    <ImageClip extentID="287" gapBefore="0" mediaItemID="240" duration="3">
      <Effects />
      <Transitions />
      <BoundProperties>
        <BoundPropertyInt Name="rotateStepNinety" Value="0" />
      </BoundProperties>
    </ImageClip>
    <AudioClip extentID="288" gapBefore="0.48513905763979892" mediaItemID="76" inTime="97.409999999999997" outTime="116.24597707350091" speed="1">
      <Effects />
      <Transitions />
      <BoundProperties>
        <BoundPropertyBool Name="Mute" Value="false" />
        <BoundPropertyFloat Name="Volume" Value="0.95686280727386475" />
      </BoundProperties>
    </AudioClip>
    <AudioClip extentID="289" gapBefore="4.3455505355261721" mediaItemID="76" inTime="116.7" outTime="132.39500000000001" speed="1">
      <Effects />
      <Transitions />
      <BoundProperties>
        <BoundPropertyBool Name="Mute" Value="false" />
        <BoundPropertyFloat Name="Volume" Value="0.95686280727386475" />
      </BoundProperties>
    </AudioClip>
    <ImageClip extentID="290" gapBefore="0" mediaItemID="245" duration="2.5">
      <Effects />
      <Transitions />
      <BoundProperties>
        <BoundPropertyInt Name="rotateStepNinety" Value="0" />
      </BoundProperties>
    </ImageClip>
    <AudioClip extentID="291" gapBefore="5.185989683337084" mediaItemID="58" inTime="67.769999999999996" outTime="85.600046284993311" speed="1">
      <Effects />
      <Transitions />
      <BoundProperties>
        <BoundPropertyBool Name="Mute" Value="false" />
        <BoundPropertyFloat Name="Volume" Value="0.63529413938522339" />
      </BoundProperties>
    </AudioClip>
    <ImageClip extentID="292" gapBefore="0" mediaItemID="247" duration="3">
      <Effects />
      <Transitions />
      <BoundProperties>
        <BoundPropertyInt Name="rotateStepNinety" Value="0" />
      </BoundProperties>
    </ImageClip>
    <AudioClip extentID="293" gapBefore="0.22666666666327728" mediaItemID="58" inTime="51.149673716227085" outTime="67.619673716226998" speed="1">
      <Effects />
      <Transitions />
      <BoundProperties>
        <BoundPropertyBool Name="Mute" Value="false" />
        <BoundPropertyFloat Name="Volume" Value="0.58039218187332153" />
      </BoundProperties>
    </AudioClip>
    <ImageClip extentID="294" gapBefore="0" mediaItemID="249" duration="3">
      <Effects />
      <Transitions />
      <BoundProperties>
        <BoundPropertyInt Name="rotateStepNinety" Value="0" />
      </BoundProperties>
    </ImageClip>
    <ImageClip extentID="295" gapBefore="0" mediaItemID="250" duration="3">
      <Effects />
      <Transitions />
      <BoundProperties>
        <BoundPropertyInt Name="rotateStepNinety" Value="0" />
      </BoundProperties>
    </ImageClip>
    <VideoClip extentID="296" gapBefore="0" mediaItemID="387" inTime="35.047626399565615" outTime="38.736614299131134" speed="1" stabilizationMode="0">
      <Effects />
      <Transitions>
        <ShaderEffect effectTemplateID="DiagonalCrossOutTransitionTemplate" duration="1.5">
          <BoundProperties />
        </ShaderEffect>
      </Transitions>
      <BoundProperties>
        <BoundPropertyBool Name="Mute" Value="false" />
        <BoundPropertyInt Name="rotateStepNinety" Value="0" />
        <BoundPropertyFloat Name="Volume" Value="1" />
      </BoundProperties>
    </VideoClip>
    <ImageClip extentID="297" gapBefore="0" mediaItemID="252" duration="3">
      <Effects />
      <Transitions />
      <BoundProperties>
        <BoundPropertyInt Name="rotateStepNinety" Value="0" />
      </BoundProperties>
    </ImageClip>
    <ImageClip extentID="298" gapBefore="0" mediaItemID="253" duration="3">
      <Effects>
        <ShaderEffect effectTemplateID="FadeOutToBlackEffectTemplate">
          <BoundProperties />
        </ShaderEffect>
      </Effects>
      <Transitions />
      <BoundProperties>
        <BoundPropertyInt Name="rotateStepNinety" Value="0" />
      </BoundProperties>
    </ImageClip>
    <VideoClip extentID="299" gapBefore="0" mediaItemID="387" inTime="38.736614299131134" outTime="41.724082733333034" speed="1" stabilizationMode="0">
      <Effects />
      <Transitions />
      <BoundProperties>
        <BoundPropertyBool Name="Mute" Value="false" />
        <BoundPropertyInt Name="rotateStepNinety" Value="0" />
        <BoundPropertyFloat Name="Volume" Value="0.031372550874948502" />
      </BoundProperties>
    </VideoClip>
    <VideoClip extentID="300" gapBefore="0" mediaItemID="393" inTime="14.032020033914705" outTime="14.313333333333119" speed="1" stabilizationMode="0">
      <Effects />
      <Transitions />
      <BoundProperties>
        <BoundPropertyBool Name="Mute" Value="false" />
        <BoundPropertyInt Name="rotateStepNinety" Value="0" />
        <BoundPropertyFloat Name="Volume" Value="0" />
      </BoundProperties>
    </VideoClip>
    <AudioClip extentID="301" gapBefore="0.89599016542837262" mediaItemID="58" inTime="89.766712951659997" outTime="103.41" speed="1">
      <Effects />
      <Transitions />
      <BoundProperties>
        <BoundPropertyBool Name="Mute" Value="false" />
        <BoundPropertyFloat Name="Volume" Value="0.61176472902297974" />
      </BoundProperties>
    </AudioClip>
    <VideoClip extentID="302" gapBefore="0" mediaItemID="387" inTime="74.794713732030914" outTime="79.128047065364171" speed="1" stabilizationMode="0">
      <Effects />
      <Transitions />
      <BoundProperties>
        <BoundPropertyBool Name="Mute" Value="false" />
        <BoundPropertyInt Name="rotateStepNinety" Value="0" />
        <BoundPropertyFloat Name="Volume" Value="1" />
      </BoundProperties>
    </VideoClip>
    <AudioClip extentID="303" gapBefore="1.1995337448661303" mediaItemID="94" inTime="35.369874036418388" outTime="98.026666599999999" speed="1">
      <Effects />
      <Transitions />
      <BoundProperties>
        <BoundPropertyBool Name="Mute" Value="false" />
        <BoundPropertyFloat Name="Volume" Value="1" />
      </BoundProperties>
    </AudioClip>
    <VideoClip extentID="304" gapBefore="0" mediaItemID="389" inTime="3.2213346333339814" outTime="18.378665366666155" speed="1" stabilizationMode="0">
      <Effects>
        <ShaderEffect effectTemplateID="FadeOutToBlackEffectTemplate">
          <BoundProperties />
        </ShaderEffect>
      </Effects>
      <Transitions />
      <BoundProperties>
        <BoundPropertyBool Name="Mute" Value="false" />
        <BoundPropertyInt Name="rotateStepNinety" Value="0" />
        <BoundPropertyFloat Name="Volume" Value="0" />
      </BoundProperties>
    </VideoClip>
    <AudioClip extentID="305" gapBefore="-0.1709563700355119" mediaItemID="58" inTime="86.25" outTime="89.784867836280853" speed="1">
      <Effects />
      <Transitions />
      <BoundProperties>
        <BoundPropertyBool Name="Mute" Value="false" />
        <BoundPropertyFloat Name="Volume" Value="0.69803923368453979" />
      </BoundProperties>
    </AudioClip>
    <VideoClip extentID="306" gapBefore="0" mediaItemID="261" inTime="0" outTime="8.2799999999999727" speed="1" stabilizationMode="0">
      <Effects />
      <Transitions>
        <ShapeEffect effectTemplateID="CrossfadeTransitionTemplate" duration="1.5">
          <BoundProperties />
        </ShapeEffect>
      </Transitions>
      <BoundProperties>
        <BoundPropertyBool Name="Mute" Value="false" />
        <BoundPropertyInt Name="rotateStepNinety" Value="0" />
        <BoundPropertyFloat Name="Volume" Value="0" />
      </BoundProperties>
    </VideoClip>
    <VideoClip extentID="307" gapBefore="0" mediaItemID="370" inTime="15.300000000000182" outTime="0" speed="1" stabilizationMode="0">
      <Effects />
      <Transitions />
      <BoundProperties>
        <BoundPropertyBool Name="Mute" Value="false" />
        <BoundPropertyInt Name="rotateStepNinety" Value="0" />
        <BoundPropertyFloat Name="Volume" Value="0" />
      </BoundProperties>
    </VideoClip>
    <VideoClip extentID="308" gapBefore="0" mediaItemID="587" inTime="1.246666666662577" outTime="7.1133333333292512" speed="1" stabilizationMode="0">
      <Effects />
      <Transitions />
      <BoundProperties>
        <BoundPropertyBool Name="Mute" Value="false" />
        <BoundPropertyInt Name="rotateStepNinety" Value="0" />
        <BoundPropertyFloat Name="Volume" Value="0" />
      </BoundProperties>
    </VideoClip>
    <AudioClip extentID="309" gapBefore="13.264397070918676" mediaItemID="107" inTime="818" outTime="942.21000000000004" speed="1">
      <Effects>
        <AudioEffect effectTemplateID="AudioFadeEffectTemplate">
          <BoundProperties>
            <BoundPropertyFloat Name="AudioFadeInDuration" Value="2.5" />
            <BoundPropertyFloat Name="AudioFadeOutDuration" Value="5" />
          </BoundProperties>
        </AudioEffect>
      </Effects>
      <Transitions />
      <BoundProperties>
        <BoundPropertyBool Name="Mute" Value="false" />
        <BoundPropertyFloat Name="Volume" Value="0.43137258291244507" />
      </BoundProperties>
    </AudioClip>
    <AudioClip extentID="310" gapBefore="0.94343488487771765" mediaItemID="47" inTime="53.980268759719252" outTime="65.832492310305611" speed="1">
      <Effects />
      <Transitions />
      <BoundProperties>
        <BoundPropertyBool Name="Mute" Value="false" />
        <BoundPropertyFloat Name="Volume" Value="0.46274513006210327" />
      </BoundProperties>
    </AudioClip>
    <VideoClip extentID="311" gapBefore="0" mediaItemID="375" inTime="15.266666666666652" outTime="20.402221422214552" speed="1" stabilizationMode="0">
      <Effects />
      <Transitions />
      <BoundProperties>
        <BoundPropertyBool Name="Mute" Value="false" />
        <BoundPropertyInt Name="rotateStepNinety" Value="0" />
        <BoundPropertyFloat Name="Volume" Value="0" />
      </BoundProperties>
    </VideoClip>
    <AudioClip extentID="312" gapBefore="71.724811782976758" mediaItemID="104" inTime="0.14999999999999999" outTime="31.423999999999999" speed="1">
      <Effects />
      <Transitions />
      <BoundProperties>
        <BoundPropertyBool Name="Mute" Value="false" />
        <BoundPropertyFloat Name="Volume" Value="1" />
      </BoundProperties>
    </AudioClip>
    <VideoClip extentID="313" gapBefore="0" mediaItemID="375" inTime="1.2000000000000455" outTime="10.03333333333353" speed="1" stabilizationMode="0">
      <Effects />
      <Transitions />
      <BoundProperties>
        <BoundPropertyBool Name="Mute" Value="false" />
        <BoundPropertyInt Name="rotateStepNinety" Value="0" />
        <BoundPropertyFloat Name="Volume" Value="0" />
      </BoundProperties>
    </VideoClip>
    <TitleClip extentID="314" gapBefore="29.148824363683673" duration="2.9690353345076801">
      <Effects>
        <TextEffect effectTemplateID="TextEffectFadeTemplate" TextScriptId="1">
          <BoundProperties>
            <BoundPropertyBool Name="automatic" Value="false" />
            <BoundPropertyFloatSet Name="color">
              <BoundPropertyFloatElement Value="1" />
              <BoundPropertyFloatElement Value="1" />
              <BoundPropertyFloatElement Value="1" />
            </BoundPropertyFloatSet>
            <BoundPropertyStringSet Name="family">
              <BoundPropertyStringElement Value="Segoe UI" />
            </BoundPropertyStringSet>
            <BoundPropertyBool Name="horizontal" Value="true" />
            <BoundPropertyStringSet Name="justify">
              <BoundPropertyStringElement Value="MIDDLE" />
            </BoundPropertyStringSet>
            <BoundPropertyBool Name="leftToRight" Value="true" />
            <BoundPropertyFloatSet Name="length" />
            <BoundPropertyFloat Name="maxExtent" Value="0" />
            <BoundPropertyFloatSet Name="outlineColor">
              <BoundPropertyFloatElement Value="0.64705884456634521" />
              <BoundPropertyFloatElement Value="0.64705884456634521" />
              <BoundPropertyFloatElement Value="0.64705884456634521" />
            </BoundPropertyFloatSet>
            <BoundPropertyInt Name="outlineSizeIndex" Value="0" />
            <BoundPropertyFloatSet Name="position">
              <BoundPropertyFloatElement Value="-0.1357574462890625" />
              <BoundPropertyFloatElement Value="-1.6064515113830566" />
              <BoundPropertyFloatElement Value="0.02500000037252903" />
            </BoundPropertyFloatSet>
            <BoundPropertyFloat Name="size" Value="0.60000002384185791" />
            <BoundPropertyStringSet Name="string">
              <BoundPropertyStringElement Value="Rosslyn-kápolna" />
            </BoundPropertyStringSet>
            <BoundPropertyString Name="style" Value="Bold" />
            <BoundPropertyFloat Name="transparency" Value="0" />
          </BoundProperties>
        </TextEffect>
      </Effects>
      <Transitions />
      <BoundProperties>
        <BoundPropertyFloatSet Name="diffuseColor">
          <BoundPropertyFloatElement Value="0.75" />
          <BoundPropertyFloatElement Value="1" />
          <BoundPropertyFloatElement Value="0" />
        </BoundPropertyFloatSet>
        <BoundPropertyFloat Name="transparency" Value="1" />
      </BoundProperties>
    </TitleClip>
    <AudioClip extentID="315" gapBefore="0.03340263637528551" mediaItemID="93" inTime="78.131436955166194" outTime="87.990311285383996" speed="1">
      <Effects />
      <Transitions />
      <BoundProperties>
        <BoundPropertyBool Name="Mute" Value="false" />
        <BoundPropertyFloat Name="Volume" Value="1.3333333730697632" />
      </BoundProperties>
    </AudioClip>
    <AudioClip extentID="316" gapBefore="5.8172214222145158" mediaItemID="90" inTime="13.98" outTime="51.151945238202174" speed="1">
      <Effects />
      <Transitions />
      <BoundProperties>
        <BoundPropertyBool Name="Mute" Value="false" />
        <BoundPropertyFloat Name="Volume" Value="1" />
      </BoundProperties>
    </AudioClip>
    <AudioClip extentID="317" gapBefore="44.869145711511237" mediaItemID="90" inTime="1.1000000000001364" outTime="13.266666666666652" speed="1">
      <Effects />
      <Transitions />
      <BoundProperties>
        <BoundPropertyBool Name="Mute" Value="false" />
        <BoundPropertyFloat Name="Volume" Value="2" />
      </BoundProperties>
    </AudioClip>
    <TitleClip extentID="318" gapBefore="288.77356705577813" duration="2.925245608385012">
      <Effects>
        <TextEffect effectTemplateID="TextEffectFadeTemplate" TextScriptId="1">
          <BoundProperties>
            <BoundPropertyBool Name="automatic" Value="false" />
            <BoundPropertyFloatSet Name="color">
              <BoundPropertyFloatElement Value="1" />
              <BoundPropertyFloatElement Value="1" />
              <BoundPropertyFloatElement Value="1" />
            </BoundPropertyFloatSet>
            <BoundPropertyStringSet Name="family">
              <BoundPropertyStringElement Value="Segoe UI" />
            </BoundPropertyStringSet>
            <BoundPropertyBool Name="horizontal" Value="true" />
            <BoundPropertyStringSet Name="justify">
              <BoundPropertyStringElement Value="MIDDLE" />
            </BoundPropertyStringSet>
            <BoundPropertyBool Name="leftToRight" Value="true" />
            <BoundPropertyFloatSet Name="length" />
            <BoundPropertyFloat Name="maxExtent" Value="0" />
            <BoundPropertyFloatSet Name="outlineColor">
              <BoundPropertyFloatElement Value="0.64705884456634521" />
              <BoundPropertyFloatElement Value="0.64705884456634521" />
              <BoundPropertyFloatElement Value="0.64705884456634521" />
            </BoundPropertyFloatSet>
            <BoundPropertyInt Name="outlineSizeIndex" Value="0" />
            <BoundPropertyFloatSet Name="position">
              <BoundPropertyFloatElement Value="-0.6012120246887207" />
              <BoundPropertyFloatElement Value="-0.94838714599609375" />
              <BoundPropertyFloatElement Value="0.02500000037252903" />
            </BoundPropertyFloatSet>
            <BoundPropertyFloat Name="size" Value="0.60000002384185791" />
            <BoundPropertyStringSet Name="string">
              <BoundPropertyStringElement Value="Queensferry" />
            </BoundPropertyStringSet>
            <BoundPropertyString Name="style" Value="Bold" />
            <BoundPropertyFloat Name="transparency" Value="0" />
          </BoundProperties>
        </TextEffect>
      </Effects>
      <Transitions />
      <BoundProperties>
        <BoundPropertyFloatSet Name="diffuseColor">
          <BoundPropertyFloatElement Value="0.75" />
          <BoundPropertyFloatElement Value="1" />
          <BoundPropertyFloatElement Value="0" />
        </BoundPropertyFloatSet>
        <BoundPropertyFloat Name="transparency" Value="1" />
      </BoundProperties>
    </TitleClip>
    <VideoClip extentID="319" gapBefore="0" mediaItemID="96" inTime="5.306666666665933" outTime="19.816639533324519" speed="1" stabilizationMode="0">
      <Effects />
      <Transitions />
      <BoundProperties>
        <BoundPropertyBool Name="Mute" Value="false" />
        <BoundPropertyInt Name="rotateStepNinety" Value="0" />
        <BoundPropertyFloat Name="Volume" Value="0" />
      </BoundProperties>
    </VideoClip>
    <VideoClip extentID="320" gapBefore="0" mediaItemID="402" inTime="8.6860831545748169" outTime="9.1799999999998363" speed="0.125" stabilizationMode="0">
      <Effects />
      <Transitions />
      <BoundProperties>
        <BoundPropertyBool Name="Mute" Value="false" />
        <BoundPropertyInt Name="rotateStepNinety" Value="0" />
        <BoundPropertyFloat Name="Volume" Value="0" />
      </BoundProperties>
    </VideoClip>
    <VideoClip extentID="321" gapBefore="0" mediaItemID="388" inTime="63.233333333333121" outTime="0" speed="1" stabilizationMode="0">
      <Effects />
      <Transitions />
      <BoundProperties>
        <BoundPropertyBool Name="Mute" Value="false" />
        <BoundPropertyInt Name="rotateStepNinety" Value="0" />
        <BoundPropertyFloat Name="Volume" Value="1" />
      </BoundProperties>
    </VideoClip>
    <VideoClip extentID="322" gapBefore="0" mediaItemID="408" inTime="107.35999999999967" outTime="109.79333333333307" speed="1" stabilizationMode="0">
      <Effects />
      <Transitions />
      <BoundProperties>
        <BoundPropertyBool Name="Mute" Value="false" />
        <BoundPropertyInt Name="rotateStepNinety" Value="3" />
        <BoundPropertyFloat Name="Volume" Value="0" />
      </BoundProperties>
    </VideoClip>
    <AudioClip extentID="323" gapBefore="40.023565087734369" mediaItemID="90" inTime="50.766666666666652" outTime="63.103999999999999" speed="1">
      <Effects />
      <Transitions />
      <BoundProperties>
        <BoundPropertyBool Name="Mute" Value="false" />
        <BoundPropertyFloat Name="Volume" Value="1" />
      </BoundProperties>
    </AudioClip>
    <ImageClip extentID="324" gapBefore="0" mediaItemID="281" duration="3">
      <Effects />
      <Transitions />
      <BoundProperties>
        <BoundPropertyInt Name="rotateStepNinety" Value="0" />
      </BoundProperties>
    </ImageClip>
    <VideoClip extentID="326" gapBefore="0" mediaItemID="388" inTime="63.09934010028951" outTime="67.370664066665995" speed="1" stabilizationMode="0">
      <Effects />
      <Transitions />
      <BoundProperties>
        <BoundPropertyBool Name="Mute" Value="false" />
        <BoundPropertyInt Name="rotateStepNinety" Value="0" />
        <BoundPropertyFloat Name="Volume" Value="1" />
      </BoundProperties>
    </VideoClip>
    <AudioClip extentID="327" gapBefore="1.0444441444401491" mediaItemID="107" inTime="1985.1380554637337" outTime="2148.5269446526272" speed="1">
      <Effects>
        <AudioEffect effectTemplateID="AudioFadeEffectTemplate">
          <BoundProperties>
            <BoundPropertyFloat Name="AudioFadeInDuration" Value="2.5" />
            <BoundPropertyFloat Name="AudioFadeOutDuration" Value="5" />
          </BoundProperties>
        </AudioEffect>
      </Effects>
      <Transitions />
      <BoundProperties>
        <BoundPropertyBool Name="Mute" Value="false" />
        <BoundPropertyFloat Name="Volume" Value="0.37647062540054321" />
      </BoundProperties>
    </AudioClip>
    <AudioClip extentID="328" gapBefore="1.5427051544227766" mediaItemID="107" inTime="409.88999999999999" outTime="591.17665929158215" speed="1">
      <Effects>
        <AudioEffect effectTemplateID="AudioFadeEffectTemplate">
          <BoundProperties>
            <BoundPropertyFloat Name="AudioFadeInDuration" Value="5" />
            <BoundPropertyFloat Name="AudioFadeOutDuration" Value="5" />
          </BoundProperties>
        </AudioEffect>
      </Effects>
      <Transitions />
      <BoundProperties>
        <BoundPropertyBool Name="Mute" Value="false" />
        <BoundPropertyFloat Name="Volume" Value="0.40784317255020142" />
      </BoundProperties>
    </AudioClip>
    <TitleClip extentID="329" gapBefore="0.09375" duration="1.90625">
      <Effects>
        <TextEffect effectTemplateID="TextEffectFadeZoomTemplate" TextScriptId="9">
          <BoundProperties>
            <BoundPropertyBool Name="automatic" Value="false" />
            <BoundPropertyFloatSet Name="color">
              <BoundPropertyFloatElement Value="1" />
              <BoundPropertyFloatElement Value="1" />
              <BoundPropertyFloatElement Value="1" />
            </BoundPropertyFloatSet>
            <BoundPropertyStringSet Name="family">
              <BoundPropertyStringElement Value="Segoe UI" />
            </BoundPropertyStringSet>
            <BoundPropertyBool Name="horizontal" Value="true" />
            <BoundPropertyStringSet Name="justify">
              <BoundPropertyStringElement Value="MIDDLE" />
            </BoundPropertyStringSet>
            <BoundPropertyBool Name="leftToRight" Value="true" />
            <BoundPropertyFloatSet Name="length" />
            <BoundPropertyFloat Name="maxExtent" Value="0" />
            <BoundPropertyFloatSet Name="outlineColor">
              <BoundPropertyFloatElement Value="0.64705884456634521" />
              <BoundPropertyFloatElement Value="0.64705884456634521" />
              <BoundPropertyFloatElement Value="0.64705884456634521" />
            </BoundPropertyFloatSet>
            <BoundPropertyInt Name="outlineSizeIndex" Value="0" />
            <BoundPropertyFloatSet Name="position">
              <BoundPropertyFloatElement Value="-0.0581817626953125" />
              <BoundPropertyFloatElement Value="1.7225806713104248" />
              <BoundPropertyFloatElement Value="0.02500000037252903" />
            </BoundPropertyFloatSet>
            <BoundPropertyFloat Name="size" Value="0.60000002384185791" />
            <BoundPropertyStringSet Name="string">
              <BoundPropertyStringElement Value="Skóciai barangolások" />
              <BoundPropertyStringElement Value="" />
              <BoundPropertyStringElement Value="Fehérvár Travel" />
              <BoundPropertyStringElement Value="2017.07.27-08.03" />
            </BoundPropertyStringSet>
            <BoundPropertyString Name="style" Value="Bold" />
            <BoundPropertyFloat Name="transparency" Value="0" />
          </BoundProperties>
        </TextEffect>
      </Effects>
      <Transitions />
      <BoundProperties>
        <BoundPropertyFloatSet Name="diffuseColor">
          <BoundPropertyFloatElement Value="0.75" />
          <BoundPropertyFloatElement Value="1" />
          <BoundPropertyFloatElement Value="0" />
        </BoundPropertyFloatSet>
        <BoundPropertyFloat Name="transparency" Value="1" />
      </BoundProperties>
    </TitleClip>
    <AudioClip extentID="330" gapBefore="-0.049999999999982947" mediaItemID="107" inTime="156.78" outTime="173.20555554231007" speed="1">
      <Effects />
      <Transitions />
      <BoundProperties>
        <BoundPropertyBool Name="Mute" Value="false" />
        <BoundPropertyFloat Name="Volume" Value="0.25882354378700256" />
      </BoundProperties>
    </AudioClip>
    <ImageClip extentID="331" gapBefore="0" mediaItemID="285" duration="3">
      <Effects />
      <Transitions />
      <BoundProperties>
        <BoundPropertyInt Name="rotateStepNinety" Value="0" />
      </BoundProperties>
    </ImageClip>
    <VideoClip extentID="332" gapBefore="0" mediaItemID="113" inTime="5.6933333333333325" outTime="0" speed="1" stabilizationMode="0">
      <Effects />
      <Transitions />
      <BoundProperties>
        <BoundPropertyBool Name="Mute" Value="false" />
        <BoundPropertyInt Name="rotateStepNinety" Value="0" />
        <BoundPropertyFloat Name="Volume" Value="1" />
      </BoundProperties>
    </VideoClip>
    <AudioClip extentID="333" gapBefore="-7.8295311864212067" mediaItemID="107" inTime="173.20555554231007" outTime="195.52722205479941" speed="1">
      <Effects />
      <Transitions />
      <BoundProperties>
        <BoundPropertyBool Name="Mute" Value="false" />
        <BoundPropertyFloat Name="Volume" Value="0.25882354378700256" />
      </BoundProperties>
    </AudioClip>
    <AudioClip extentID="334" gapBefore="-0.33748934004029252" mediaItemID="107" inTime="156.57222220897674" outTime="173.20555554231007" speed="1">
      <Effects />
      <Transitions />
      <BoundProperties>
        <BoundPropertyBool Name="Mute" Value="false" />
        <BoundPropertyFloat Name="Volume" Value="0.25882354378700256" />
      </BoundProperties>
    </AudioClip>
    <VideoClip extentID="335" gapBefore="0" mediaItemID="409" inTime="79.561644875747788" outTime="89.293333333325336" speed="1" stabilizationMode="0">
      <Effects />
      <Transitions>
        <ShapeEffect effectTemplateID="CrossfadeTransitionTemplate" duration="1.5">
          <BoundProperties />
        </ShapeEffect>
      </Transitions>
      <BoundProperties>
        <BoundPropertyBool Name="Mute" Value="false" />
        <BoundPropertyInt Name="rotateStepNinety" Value="0" />
        <BoundPropertyFloat Name="Volume" Value="0" />
      </BoundProperties>
    </VideoClip>
    <TitleClip extentID="336" gapBefore="0" duration="7">
      <Effects />
      <Transitions />
      <BoundProperties>
        <BoundPropertyFloatSet Name="diffuseColor">
          <BoundPropertyFloatElement Value="0" />
          <BoundPropertyFloatElement Value="0" />
          <BoundPropertyFloatElement Value="0" />
        </BoundPropertyFloatSet>
        <BoundPropertyFloat Name="transparency" Value="0" />
      </BoundProperties>
    </TitleClip>
    <VideoClip extentID="337" gapBefore="0" mediaItemID="394" inTime="10.556002600001193" outTime="20.289335933334769" speed="1" stabilizationMode="0">
      <Effects>
        <ShaderEffect effectTemplateID="FadeOutToBlackEffectTemplate">
          <BoundProperties />
        </ShaderEffect>
      </Effects>
      <Transitions />
      <BoundProperties>
        <BoundPropertyBool Name="Mute" Value="false" />
        <BoundPropertyInt Name="rotateStepNinety" Value="0" />
        <BoundPropertyFloat Name="Volume" Value="0" />
      </BoundProperties>
    </VideoClip>
    <VideoClip extentID="339" gapBefore="0" mediaItemID="113" inTime="3.1199999999999974" outTime="5.6933333333333325" speed="1" stabilizationMode="0">
      <Effects>
        <ShaderEffect effectTemplateID="FadeInFromBlackEffectTemplate">
          <BoundProperties />
        </ShaderEffect>
      </Effects>
      <Transitions>
        <ShapeEffect effectTemplateID="BlurThroughBlackTransitionTemplate" duration="1.5">
          <BoundProperties />
        </ShapeEffect>
      </Transitions>
      <BoundProperties>
        <BoundPropertyBool Name="Mute" Value="false" />
        <BoundPropertyInt Name="rotateStepNinety" Value="0" />
        <BoundPropertyFloat Name="Volume" Value="0" />
      </BoundProperties>
    </VideoClip>
    <ImageClip extentID="340" gapBefore="0" mediaItemID="294" duration="3">
      <Effects>
        <ShaderEffect effectTemplateID="FadeOutToBlackEffectTemplate">
          <BoundProperties />
        </ShaderEffect>
      </Effects>
      <Transitions />
      <BoundProperties>
        <BoundPropertyInt Name="rotateStepNinety" Value="0" />
      </BoundProperties>
    </ImageClip>
    <VideoClip extentID="341" gapBefore="0" mediaItemID="410" inTime="8.5869901757519074" outTime="17.537357266658546" speed="1" stabilizationMode="0">
      <Effects>
        <ShaderEffect effectTemplateID="FadeOutToBlackEffectTemplate">
          <BoundProperties />
        </ShaderEffect>
      </Effects>
      <Transitions />
      <BoundProperties>
        <BoundPropertyBool Name="Mute" Value="false" />
        <BoundPropertyInt Name="rotateStepNinety" Value="0" />
        <BoundPropertyFloat Name="Volume" Value="0" />
      </BoundProperties>
    </VideoClip>
    <ImageClip extentID="342" gapBefore="0" mediaItemID="289" duration="4">
      <Effects />
      <Transitions />
      <BoundProperties>
        <BoundPropertyInt Name="rotateStepNinety" Value="0" />
      </BoundProperties>
    </ImageClip>
    <VideoClip extentID="343" gapBefore="0" mediaItemID="394" inTime="32.945338533335871" outTime="51.534674466670367" speed="0.94999999999999996" stabilizationMode="0">
      <Effects />
      <Transitions />
      <BoundProperties>
        <BoundPropertyBool Name="Mute" Value="false" />
        <BoundPropertyInt Name="rotateStepNinety" Value="0" />
        <BoundPropertyFloat Name="Volume" Value="0" />
      </BoundProperties>
    </VideoClip>
    <AudioClip extentID="344" gapBefore="1.7606237060767853" mediaItemID="105" inTime="0.12" outTime="61.319999999999816" speed="1">
      <Effects />
      <Transitions />
      <BoundProperties>
        <BoundPropertyBool Name="Mute" Value="false" />
        <BoundPropertyFloat Name="Volume" Value="1.5921570062637329" />
      </BoundProperties>
    </AudioClip>
    <VideoClip extentID="345" gapBefore="0" mediaItemID="2" inTime="19.946666666666662" outTime="40.406666666666666" speed="1" stabilizationMode="0">
      <Effects>
        <ShaderEffect effectTemplateID="FadeInFromBlackEffectTemplate">
          <BoundProperties />
        </ShaderEffect>
      </Effects>
      <Transitions>
        <ShapeEffect effectTemplateID="CrossfadeTransitionTemplate" duration="1.5">
          <BoundProperties />
        </ShapeEffect>
      </Transitions>
      <BoundProperties>
        <BoundPropertyBool Name="Mute" Value="false" />
        <BoundPropertyInt Name="rotateStepNinety" Value="0" />
        <BoundPropertyFloat Name="Volume" Value="0" />
      </BoundProperties>
    </VideoClip>
    <ImageClip extentID="346" gapBefore="0" mediaItemID="296" duration="7">
      <Effects>
        <ShaderEffect effectTemplateID="FadeInFromBlackEffectTemplate">
          <BoundProperties />
        </ShaderEffect>
      </Effects>
      <Transitions />
      <BoundProperties>
        <BoundPropertyInt Name="rotateStepNinety" Value="0" />
      </BoundProperties>
    </ImageClip>
    <ImageClip extentID="347" gapBefore="0" mediaItemID="297" duration="7">
      <Effects>
        <ShaderEffect effectTemplateID="FadeOutToBlackEffectTemplate">
          <BoundProperties />
        </ShaderEffect>
      </Effects>
      <Transitions />
      <BoundProperties>
        <BoundPropertyInt Name="rotateStepNinety" Value="0" />
      </BoundProperties>
    </ImageClip>
    <VideoClip extentID="348" gapBefore="0" mediaItemID="95" inTime="3.213333433333446" outTime="4.6933335333333162" speed="0.75" stabilizationMode="0">
      <Effects>
        <ShaderEffect effectTemplateID="FadeInFromBlackEffectTemplate">
          <BoundProperties />
        </ShaderEffect>
      </Effects>
      <Transitions />
      <BoundProperties>
        <BoundPropertyBool Name="Mute" Value="false" />
        <BoundPropertyInt Name="rotateStepNinety" Value="0" />
        <BoundPropertyFloat Name="Volume" Value="0" />
      </BoundProperties>
    </VideoClip>
    <ImageClip extentID="349" gapBefore="0" mediaItemID="194" duration="3">
      <Effects />
      <Transitions />
      <BoundProperties>
        <BoundPropertyInt Name="rotateStepNinety" Value="0" />
      </BoundProperties>
    </ImageClip>
    <ImageClip extentID="351" gapBefore="0" mediaItemID="305" duration="2.7999999999999998">
      <Effects />
      <Transitions />
      <BoundProperties>
        <BoundPropertyInt Name="rotateStepNinety" Value="0" />
      </BoundProperties>
    </ImageClip>
    <ImageClip extentID="352" gapBefore="0" mediaItemID="306" duration="2.7999999999999998">
      <Effects />
      <Transitions />
      <BoundProperties>
        <BoundPropertyInt Name="rotateStepNinety" Value="0" />
      </BoundProperties>
    </ImageClip>
    <ImageClip extentID="353" gapBefore="0" mediaItemID="307" duration="2.7999999999999998">
      <Effects />
      <Transitions />
      <BoundProperties>
        <BoundPropertyInt Name="rotateStepNinety" Value="0" />
      </BoundProperties>
    </ImageClip>
    <VideoClip extentID="354" gapBefore="0" mediaItemID="95" inTime="11.62666686666671" outTime="16.526666866666801" speed="0.59999999999999998" stabilizationMode="0">
      <Effects />
      <Transitions />
      <BoundProperties>
        <BoundPropertyBool Name="Mute" Value="false" />
        <BoundPropertyInt Name="rotateStepNinety" Value="0" />
        <BoundPropertyFloat Name="Volume" Value="0" />
      </BoundProperties>
    </VideoClip>
    <VideoClip extentID="355" gapBefore="0" mediaItemID="406" inTime="17.375915315358498" outTime="21.26924874869178" speed="1" stabilizationMode="0">
      <Effects />
      <Transitions>
        <ShapeEffect effectTemplateID="CrossfadeTransitionTemplate" duration="1.5">
          <BoundProperties />
        </ShapeEffect>
      </Transitions>
      <BoundProperties>
        <BoundPropertyBool Name="Mute" Value="false" />
        <BoundPropertyInt Name="rotateStepNinety" Value="0" />
        <BoundPropertyFloat Name="Volume" Value="0" />
      </BoundProperties>
    </VideoClip>
    <ImageClip extentID="356" gapBefore="0" mediaItemID="310" duration="3">
      <Effects />
      <Transitions />
      <BoundProperties>
        <BoundPropertyInt Name="rotateStepNinety" Value="0" />
      </BoundProperties>
    </ImageClip>
    <TitleClip extentID="357" gapBefore="62.007362634653191" duration="1.8">
      <Effects>
        <TextEffect effectTemplateID="TextEffectFadeTemplate" TextScriptId="1">
          <BoundProperties>
            <BoundPropertyBool Name="automatic" Value="false" />
            <BoundPropertyFloatSet Name="color">
              <BoundPropertyFloatElement Value="1" />
              <BoundPropertyFloatElement Value="1" />
              <BoundPropertyFloatElement Value="1" />
            </BoundPropertyFloatSet>
            <BoundPropertyStringSet Name="family">
              <BoundPropertyStringElement Value="Segoe UI" />
            </BoundPropertyStringSet>
            <BoundPropertyBool Name="horizontal" Value="true" />
            <BoundPropertyStringSet Name="justify">
              <BoundPropertyStringElement Value="MIDDLE" />
            </BoundPropertyStringSet>
            <BoundPropertyBool Name="leftToRight" Value="true" />
            <BoundPropertyFloatSet Name="length" />
            <BoundPropertyFloat Name="maxExtent" Value="0" />
            <BoundPropertyFloatSet Name="outlineColor">
              <BoundPropertyFloatElement Value="0.64705884456634521" />
              <BoundPropertyFloatElement Value="0.64705884456634521" />
              <BoundPropertyFloatElement Value="0.64705884456634521" />
            </BoundPropertyFloatSet>
            <BoundPropertyInt Name="outlineSizeIndex" Value="0" />
            <BoundPropertyFloatSet Name="position">
              <BoundPropertyFloatElement Value="-0.2909088134765625" />
              <BoundPropertyFloatElement Value="-1.3741936683654785" />
              <BoundPropertyFloatElement Value="0.02500000037252903" />
            </BoundPropertyFloatSet>
            <BoundPropertyFloat Name="size" Value="0.60000002384185791" />
            <BoundPropertyStringSet Name="string">
              <BoundPropertyStringElement Value="Linlithgow" />
            </BoundPropertyStringSet>
            <BoundPropertyString Name="style" Value="Bold" />
            <BoundPropertyFloat Name="transparency" Value="0" />
          </BoundProperties>
        </TextEffect>
      </Effects>
      <Transitions />
      <BoundProperties>
        <BoundPropertyFloatSet Name="diffuseColor">
          <BoundPropertyFloatElement Value="0.75" />
          <BoundPropertyFloatElement Value="1" />
          <BoundPropertyFloatElement Value="0" />
        </BoundPropertyFloatSet>
        <BoundPropertyFloat Name="transparency" Value="1" />
      </BoundProperties>
    </TitleClip>
    <TitleClip extentID="358" gapBefore="67.607469681596058" duration="2">
      <Effects>
        <TextEffect effectTemplateID="TextEffectFadeTemplate" TextScriptId="1">
          <BoundProperties>
            <BoundPropertyBool Name="automatic" Value="false" />
            <BoundPropertyFloatSet Name="color">
              <BoundPropertyFloatElement Value="1" />
              <BoundPropertyFloatElement Value="1" />
              <BoundPropertyFloatElement Value="1" />
            </BoundPropertyFloatSet>
            <BoundPropertyStringSet Name="family">
              <BoundPropertyStringElement Value="Segoe UI" />
            </BoundPropertyStringSet>
            <BoundPropertyBool Name="horizontal" Value="true" />
            <BoundPropertyStringSet Name="justify">
              <BoundPropertyStringElement Value="MIDDLE" />
            </BoundPropertyStringSet>
            <BoundPropertyBool Name="leftToRight" Value="true" />
            <BoundPropertyFloatSet Name="length" />
            <BoundPropertyFloat Name="maxExtent" Value="0" />
            <BoundPropertyFloatSet Name="outlineColor">
              <BoundPropertyFloatElement Value="0.64705884456634521" />
              <BoundPropertyFloatElement Value="0.64705884456634521" />
              <BoundPropertyFloatElement Value="0.64705884456634521" />
            </BoundPropertyFloatSet>
            <BoundPropertyInt Name="outlineSizeIndex" Value="0" />
            <BoundPropertyFloatSet Name="position">
              <BoundPropertyFloatElement Value="-0.0193939208984375" />
              <BoundPropertyFloatElement Value="-1.8000001907348633" />
              <BoundPropertyFloatElement Value="0.02500000037252903" />
            </BoundPropertyFloatSet>
            <BoundPropertyFloat Name="size" Value="0.60000002384185791" />
            <BoundPropertyStringSet Name="string">
              <BoundPropertyStringElement Value="Falkirki kerék" />
            </BoundPropertyStringSet>
            <BoundPropertyString Name="style" Value="Bold" />
            <BoundPropertyFloat Name="transparency" Value="0" />
          </BoundProperties>
        </TextEffect>
      </Effects>
      <Transitions />
      <BoundProperties>
        <BoundPropertyFloatSet Name="diffuseColor">
          <BoundPropertyFloatElement Value="0.75" />
          <BoundPropertyFloatElement Value="1" />
          <BoundPropertyFloatElement Value="0" />
        </BoundPropertyFloatSet>
        <BoundPropertyFloat Name="transparency" Value="1" />
      </BoundProperties>
    </TitleClip>
    <ImageClip extentID="359" gapBefore="0" mediaItemID="236" duration="3">
      <Effects />
      <Transitions />
      <BoundProperties>
        <BoundPropertyInt Name="rotateStepNinety" Value="0" />
      </BoundProperties>
    </ImageClip>
    <ImageClip extentID="360" gapBefore="0" mediaItemID="314" duration="2.7999999999999998">
      <Effects />
      <Transitions />
      <BoundProperties>
        <BoundPropertyInt Name="rotateStepNinety" Value="0" />
      </BoundProperties>
    </ImageClip>
    <ImageClip extentID="361" gapBefore="0" mediaItemID="315" duration="3">
      <Effects />
      <Transitions />
      <BoundProperties>
        <BoundPropertyInt Name="rotateStepNinety" Value="0" />
      </BoundProperties>
    </ImageClip>
    <ImageClip extentID="362" gapBefore="0" mediaItemID="191" duration="4">
      <Effects />
      <Transitions />
      <BoundProperties>
        <BoundPropertyInt Name="rotateStepNinety" Value="0" />
      </BoundProperties>
    </ImageClip>
    <ImageClip extentID="363" gapBefore="0" mediaItemID="303" duration="3">
      <Effects />
      <Transitions />
      <BoundProperties>
        <BoundPropertyInt Name="rotateStepNinety" Value="0" />
      </BoundProperties>
    </ImageClip>
    <VideoClip extentID="364" gapBefore="0" mediaItemID="216" inTime="28.266666666666424" outTime="41.046666666667534" speed="1" stabilizationMode="0">
      <Effects>
        <AudioEffect effectTemplateID="AudioFadeEffectTemplate">
          <BoundProperties>
            <BoundPropertyFloat Name="AudioFadeInDuration" Value="5" />
            <BoundPropertyFloat Name="AudioFadeOutDuration" Value="2.5" />
          </BoundProperties>
        </AudioEffect>
      </Effects>
      <Transitions>
        <ShaderEffect effectTemplateID="InsetUpLeftTransitionTemplate" duration="1.5">
          <BoundProperties />
        </ShaderEffect>
      </Transitions>
      <BoundProperties>
        <BoundPropertyBool Name="Mute" Value="false" />
        <BoundPropertyInt Name="rotateStepNinety" Value="0" />
        <BoundPropertyFloat Name="Volume" Value="0.63529413938522339" />
      </BoundProperties>
    </VideoClip>
    <TitleClip extentID="365" gapBefore="89.053424886328912" duration="2">
      <Effects>
        <TextEffect effectTemplateID="TextEffectFadeTemplate" TextScriptId="1">
          <BoundProperties>
            <BoundPropertyBool Name="automatic" Value="false" />
            <BoundPropertyFloatSet Name="color">
              <BoundPropertyFloatElement Value="1" />
              <BoundPropertyFloatElement Value="1" />
              <BoundPropertyFloatElement Value="1" />
            </BoundPropertyFloatSet>
            <BoundPropertyStringSet Name="family">
              <BoundPropertyStringElement Value="Segoe UI" />
            </BoundPropertyStringSet>
            <BoundPropertyBool Name="horizontal" Value="true" />
            <BoundPropertyStringSet Name="justify">
              <BoundPropertyStringElement Value="MIDDLE" />
            </BoundPropertyStringSet>
            <BoundPropertyBool Name="leftToRight" Value="true" />
            <BoundPropertyFloatSet Name="length" />
            <BoundPropertyFloat Name="maxExtent" Value="0" />
            <BoundPropertyFloatSet Name="outlineColor">
              <BoundPropertyFloatElement Value="0.64705884456634521" />
              <BoundPropertyFloatElement Value="0.64705884456634521" />
              <BoundPropertyFloatElement Value="0.64705884456634521" />
            </BoundPropertyFloatSet>
            <BoundPropertyInt Name="outlineSizeIndex" Value="0" />
            <BoundPropertyFloatSet Name="position">
              <BoundPropertyFloatElement Value="-0.0193939208984375" />
              <BoundPropertyFloatElement Value="-1.8000001907348633" />
              <BoundPropertyFloatElement Value="0.02500000037252903" />
            </BoundPropertyFloatSet>
            <BoundPropertyFloat Name="size" Value="0.60000002384185791" />
            <BoundPropertyStringSet Name="string">
              <BoundPropertyStringElement Value="St.Andrews" />
            </BoundPropertyStringSet>
            <BoundPropertyString Name="style" Value="Bold" />
            <BoundPropertyFloat Name="transparency" Value="0" />
          </BoundProperties>
        </TextEffect>
      </Effects>
      <Transitions />
      <BoundProperties>
        <BoundPropertyFloatSet Name="diffuseColor">
          <BoundPropertyFloatElement Value="0.75" />
          <BoundPropertyFloatElement Value="1" />
          <BoundPropertyFloatElement Value="0" />
        </BoundPropertyFloatSet>
        <BoundPropertyFloat Name="transparency" Value="1" />
      </BoundProperties>
    </TitleClip>
    <AudioClip extentID="366" gapBefore="0.98512791635403119" mediaItemID="107" inTime="2188.4602779859601" outTime="2225.25" speed="1">
      <Effects>
        <AudioEffect effectTemplateID="AudioFadeEffectTemplate">
          <BoundProperties>
            <BoundPropertyFloat Name="AudioFadeInDuration" Value="2.5" />
            <BoundPropertyFloat Name="AudioFadeOutDuration" Value="5" />
          </BoundProperties>
        </AudioEffect>
      </Effects>
      <Transitions />
      <BoundProperties>
        <BoundPropertyBool Name="Mute" Value="false" />
        <BoundPropertyFloat Name="Volume" Value="0.37647062540054321" />
      </BoundProperties>
    </AudioClip>
    <ImageClip extentID="367" gapBefore="0" mediaItemID="308" duration="3">
      <Effects />
      <Transitions />
      <BoundProperties>
        <BoundPropertyInt Name="rotateStepNinety" Value="0" />
      </BoundProperties>
    </ImageClip>
    <ImageClip extentID="368" gapBefore="0" mediaItemID="322" duration="2.7999999999999998">
      <Effects />
      <Transitions />
      <BoundProperties>
        <BoundPropertyInt Name="rotateStepNinety" Value="0" />
      </BoundProperties>
    </ImageClip>
    <ImageClip extentID="369" gapBefore="0" mediaItemID="395" duration="3">
      <Effects />
      <Transitions />
      <BoundProperties>
        <BoundPropertyInt Name="rotateStepNinety" Value="0" />
      </BoundProperties>
    </ImageClip>
    <VideoClip extentID="370" gapBefore="0" mediaItemID="279" inTime="2.2000000000002728" outTime="14.833333333333485" speed="1" stabilizationMode="0">
      <Effects />
      <Transitions>
        <ShapeEffect effectTemplateID="FlipTransitionTemplate" duration="1.5">
          <BoundProperties />
        </ShapeEffect>
      </Transitions>
      <BoundProperties>
        <BoundPropertyBool Name="Mute" Value="false" />
        <BoundPropertyInt Name="rotateStepNinety" Value="0" />
        <BoundPropertyFloat Name="Volume" Value="0" />
      </BoundProperties>
    </VideoClip>
    <ImageClip extentID="371" gapBefore="0" mediaItemID="325" duration="2.7999999999999998">
      <Effects />
      <Transitions />
      <BoundProperties>
        <BoundPropertyInt Name="rotateStepNinety" Value="0" />
      </BoundProperties>
    </ImageClip>
    <ImageClip extentID="372" gapBefore="0" mediaItemID="220" duration="3.5">
      <Effects>
        <PanAndZoomShapeEffect effectTemplateID="PanAndZoomEffectAutomaticTemplate">
          <BoundProperties>
            <BoundPropertyFloatSet Name="center">
              <BoundPropertyFloatElement Value="0" />
              <BoundPropertyFloatElement Value="-0.5" />
              <BoundPropertyFloatElement Value="-1" />
              <BoundPropertyFloatElement Value="-0.5" />
            </BoundPropertyFloatSet>
            <BoundPropertyInt Name="effectType" Value="1" />
            <BoundPropertyFloatSet Name="scale">
              <BoundPropertyFloatElement Value="0.85000002384185791" />
              <BoundPropertyFloatElement Value="0.85000002384185791" />
              <BoundPropertyFloatElement Value="0.85000002384185791" />
              <BoundPropertyFloatElement Value="0.85000002384185791" />
            </BoundPropertyFloatSet>
          </BoundProperties>
        </PanAndZoomShapeEffect>
      </Effects>
      <Transitions />
      <BoundProperties>
        <BoundPropertyInt Name="rotateStepNinety" Value="0" />
      </BoundProperties>
    </ImageClip>
    <TitleClip extentID="373" gapBefore="210.66666666666669" duration="2.9666666666674928">
      <Effects>
        <TextEffect effectTemplateID="TextEffectFadeTemplate" TextScriptId="1">
          <BoundProperties>
            <BoundPropertyBool Name="automatic" Value="false" />
            <BoundPropertyFloatSet Name="color">
              <BoundPropertyFloatElement Value="1" />
              <BoundPropertyFloatElement Value="1" />
              <BoundPropertyFloatElement Value="1" />
            </BoundPropertyFloatSet>
            <BoundPropertyStringSet Name="family">
              <BoundPropertyStringElement Value="Segoe UI" />
            </BoundPropertyStringSet>
            <BoundPropertyBool Name="horizontal" Value="true" />
            <BoundPropertyStringSet Name="justify">
              <BoundPropertyStringElement Value="MIDDLE" />
            </BoundPropertyStringSet>
            <BoundPropertyBool Name="leftToRight" Value="true" />
            <BoundPropertyFloatSet Name="length" />
            <BoundPropertyFloat Name="maxExtent" Value="0" />
            <BoundPropertyFloatSet Name="outlineColor">
              <BoundPropertyFloatElement Value="0.64705884456634521" />
              <BoundPropertyFloatElement Value="0.64705884456634521" />
              <BoundPropertyFloatElement Value="0.64705884456634521" />
            </BoundPropertyFloatSet>
            <BoundPropertyInt Name="outlineSizeIndex" Value="0" />
            <BoundPropertyFloatSet Name="position">
              <BoundPropertyFloatElement Value="-0.0193939208984375" />
              <BoundPropertyFloatElement Value="-1.8000001907348633" />
              <BoundPropertyFloatElement Value="0.02500000037252903" />
            </BoundPropertyFloatSet>
            <BoundPropertyFloat Name="size" Value="0.60000002384185791" />
            <BoundPropertyStringSet Name="string">
              <BoundPropertyStringElement Value="St. Giles-katedrális" />
            </BoundPropertyStringSet>
            <BoundPropertyString Name="style" Value="Bold" />
            <BoundPropertyFloat Name="transparency" Value="0" />
          </BoundProperties>
        </TextEffect>
      </Effects>
      <Transitions />
      <BoundProperties>
        <BoundPropertyFloatSet Name="diffuseColor">
          <BoundPropertyFloatElement Value="0.75" />
          <BoundPropertyFloatElement Value="1" />
          <BoundPropertyFloatElement Value="0" />
        </BoundPropertyFloatSet>
        <BoundPropertyFloat Name="transparency" Value="1" />
      </BoundProperties>
    </TitleClip>
    <ImageClip extentID="374" gapBefore="0" mediaItemID="328" duration="2.7999999999999998">
      <Effects>
        <ShaderEffect effectTemplateID="FadeOutToBlackEffectTemplate">
          <BoundProperties />
        </ShaderEffect>
      </Effects>
      <Transitions />
      <BoundProperties>
        <BoundPropertyInt Name="rotateStepNinety" Value="0" />
      </BoundProperties>
    </ImageClip>
    <AudioClip extentID="376" gapBefore="40.240211753555059" mediaItemID="107" inTime="2604.385564636249" outTime="2659.7147292028926" speed="1">
      <Effects>
        <AudioEffect effectTemplateID="AudioFadeEffectTemplate">
          <BoundProperties>
            <BoundPropertyFloat Name="AudioFadeInDuration" Value="2.5" />
            <BoundPropertyFloat Name="AudioFadeOutDuration" Value="0" />
          </BoundProperties>
        </AudioEffect>
      </Effects>
      <Transitions />
      <BoundProperties>
        <BoundPropertyBool Name="Mute" Value="false" />
        <BoundPropertyFloat Name="Volume" Value="0.37647062540054321" />
      </BoundProperties>
    </AudioClip>
    <AudioClip extentID="377" gapBefore="1.7250001000032285" mediaItemID="107" inTime="628.15165919157903" outTime="812.35063555399415" speed="1">
      <Effects>
        <AudioEffect effectTemplateID="AudioFadeEffectTemplate">
          <BoundProperties>
            <BoundPropertyFloat Name="AudioFadeInDuration" Value="5" />
            <BoundPropertyFloat Name="AudioFadeOutDuration" Value="0" />
          </BoundProperties>
        </AudioEffect>
      </Effects>
      <Transitions />
      <BoundProperties>
        <BoundPropertyBool Name="Mute" Value="false" />
        <BoundPropertyFloat Name="Volume" Value="0.17254902422428131" />
      </BoundProperties>
    </AudioClip>
    <AudioClip extentID="378" gapBefore="0" mediaItemID="92" inTime="37.199999999999591" outTime="86.340000000000003" speed="1">
      <Effects />
      <Transitions />
      <BoundProperties>
        <BoundPropertyBool Name="Mute" Value="false" />
        <BoundPropertyFloat Name="Volume" Value="1" />
      </BoundProperties>
    </AudioClip>
    <AudioClip extentID="379" gapBefore="0.7103848470696903" mediaItemID="107" inTime="1003.7465862666595" outTime="1147.9699061333231" speed="1">
      <Effects>
        <AudioEffect effectTemplateID="AudioFadeEffectTemplate">
          <BoundProperties>
            <BoundPropertyFloat Name="AudioFadeInDuration" Value="2.5" />
            <BoundPropertyFloat Name="AudioFadeOutDuration" Value="5" />
          </BoundProperties>
        </AudioEffect>
      </Effects>
      <Transitions />
      <BoundProperties>
        <BoundPropertyBool Name="Mute" Value="false" />
        <BoundPropertyFloat Name="Volume" Value="0.32156863808631897" />
      </BoundProperties>
    </AudioClip>
    <TitleClip extentID="380" gapBefore="99.24496488625914" duration="2">
      <Effects>
        <TextEffect effectTemplateID="TextEffectFadeTemplate" TextScriptId="1">
          <BoundProperties>
            <BoundPropertyBool Name="automatic" Value="false" />
            <BoundPropertyFloatSet Name="color">
              <BoundPropertyFloatElement Value="1" />
              <BoundPropertyFloatElement Value="1" />
              <BoundPropertyFloatElement Value="1" />
            </BoundPropertyFloatSet>
            <BoundPropertyStringSet Name="family">
              <BoundPropertyStringElement Value="Segoe UI" />
            </BoundPropertyStringSet>
            <BoundPropertyBool Name="horizontal" Value="true" />
            <BoundPropertyStringSet Name="justify">
              <BoundPropertyStringElement Value="MIDDLE" />
            </BoundPropertyStringSet>
            <BoundPropertyBool Name="leftToRight" Value="true" />
            <BoundPropertyFloatSet Name="length" />
            <BoundPropertyFloat Name="maxExtent" Value="0" />
            <BoundPropertyFloatSet Name="outlineColor">
              <BoundPropertyFloatElement Value="0.64705884456634521" />
              <BoundPropertyFloatElement Value="0.64705884456634521" />
              <BoundPropertyFloatElement Value="0.64705884456634521" />
            </BoundPropertyFloatSet>
            <BoundPropertyInt Name="outlineSizeIndex" Value="0" />
            <BoundPropertyFloatSet Name="position">
              <BoundPropertyFloatElement Value="-0.0193939208984375" />
              <BoundPropertyFloatElement Value="-1.3741936683654785" />
              <BoundPropertyFloatElement Value="0.02500000037252903" />
            </BoundPropertyFloatSet>
            <BoundPropertyFloat Name="size" Value="0.60000002384185791" />
            <BoundPropertyStringSet Name="string">
              <BoundPropertyStringElement Value="Trossachs" />
            </BoundPropertyStringSet>
            <BoundPropertyString Name="style" Value="Bold" />
            <BoundPropertyFloat Name="transparency" Value="0" />
          </BoundProperties>
        </TextEffect>
      </Effects>
      <Transitions />
      <BoundProperties>
        <BoundPropertyFloatSet Name="diffuseColor">
          <BoundPropertyFloatElement Value="0.75" />
          <BoundPropertyFloatElement Value="1" />
          <BoundPropertyFloatElement Value="0" />
        </BoundPropertyFloatSet>
        <BoundPropertyFloat Name="transparency" Value="1" />
      </BoundProperties>
    </TitleClip>
    <AudioClip extentID="381" gapBefore="-3.8027096535317924" mediaItemID="107" inTime="2659.7147292028926" outTime="2778.9480625362257" speed="1">
      <Effects>
        <AudioEffect effectTemplateID="AudioFadeEffectTemplate">
          <BoundProperties>
            <BoundPropertyFloat Name="AudioFadeInDuration" Value="2.5" />
            <BoundPropertyFloat Name="AudioFadeOutDuration" Value="0" />
          </BoundProperties>
        </AudioEffect>
      </Effects>
      <Transitions />
      <BoundProperties>
        <BoundPropertyBool Name="Mute" Value="false" />
        <BoundPropertyFloat Name="Volume" Value="0.37647062540054321" />
      </BoundProperties>
    </AudioClip>
    <ImageClip extentID="382" gapBefore="0" mediaItemID="336" duration="2.7999999999999998">
      <Effects />
      <Transitions />
      <BoundProperties>
        <BoundPropertyInt Name="rotateStepNinety" Value="0" />
      </BoundProperties>
    </ImageClip>
    <VideoClip extentID="383" gapBefore="0" mediaItemID="404" inTime="0" outTime="6.1066666666665697" speed="1" stabilizationMode="0">
      <Effects />
      <Transitions />
      <BoundProperties>
        <BoundPropertyBool Name="Mute" Value="false" />
        <BoundPropertyInt Name="rotateStepNinety" Value="0" />
        <BoundPropertyFloat Name="Volume" Value="0" />
      </BoundProperties>
    </VideoClip>
    <AudioClip extentID="384" gapBefore="28.039325266376181" mediaItemID="107" inTime="2779.8600000000001" outTime="3840.2089166000001" speed="1">
      <Effects />
      <Transitions />
      <BoundProperties>
        <BoundPropertyBool Name="Mute" Value="false" />
        <BoundPropertyFloat Name="Volume" Value="0.37647062540054321" />
      </BoundProperties>
    </AudioClip>
    <VideoClip extentID="385" gapBefore="0" mediaItemID="7" inTime="0.90000000000000568" outTime="15.126666666666637" speed="1" stabilizationMode="0">
      <Effects />
      <Transitions />
      <BoundProperties>
        <BoundPropertyBool Name="Mute" Value="false" />
        <BoundPropertyInt Name="rotateStepNinety" Value="0" />
        <BoundPropertyFloat Name="Volume" Value="1" />
      </BoundProperties>
    </VideoClip>
    <AudioClip extentID="386" gapBefore="-0.3009597328991731" mediaItemID="107" inTime="2659.7147292028926" outTime="2727.1823556024583" speed="1">
      <Effects>
        <AudioEffect effectTemplateID="AudioFadeEffectTemplate">
          <BoundProperties>
            <BoundPropertyFloat Name="AudioFadeInDuration" Value="0" />
            <BoundPropertyFloat Name="AudioFadeOutDuration" Value="5" />
          </BoundProperties>
        </AudioEffect>
      </Effects>
      <Transitions />
      <BoundProperties>
        <BoundPropertyBool Name="Mute" Value="false" />
        <BoundPropertyFloat Name="Volume" Value="0.37647062540054321" />
      </BoundProperties>
    </AudioClip>
    <ImageClip extentID="387" gapBefore="0" mediaItemID="313" duration="3">
      <Effects />
      <Transitions>
        <ShapeEffect effectTemplateID="FlipTransitionTemplate" duration="1.5">
          <BoundProperties />
        </ShapeEffect>
      </Transitions>
      <BoundProperties>
        <BoundPropertyInt Name="rotateStepNinety" Value="0" />
      </BoundProperties>
    </ImageClip>
    <VideoClip extentID="388" gapBefore="0" mediaItemID="407" inTime="0" outTime="0.34000000000014552" speed="0.25" stabilizationMode="0">
      <Effects />
      <Transitions />
      <BoundProperties>
        <BoundPropertyBool Name="Mute" Value="false" />
        <BoundPropertyInt Name="rotateStepNinety" Value="0" />
        <BoundPropertyFloat Name="Volume" Value="0" />
      </BoundProperties>
    </VideoClip>
    <TitleClip extentID="389" gapBefore="168.9745724353487" duration="2.9700271333404089">
      <Effects>
        <TextEffect effectTemplateID="TextEffectFadeTemplate" TextScriptId="1">
          <BoundProperties>
            <BoundPropertyBool Name="automatic" Value="false" />
            <BoundPropertyFloatSet Name="color">
              <BoundPropertyFloatElement Value="1" />
              <BoundPropertyFloatElement Value="1" />
              <BoundPropertyFloatElement Value="1" />
            </BoundPropertyFloatSet>
            <BoundPropertyStringSet Name="family">
              <BoundPropertyStringElement Value="Segoe UI" />
            </BoundPropertyStringSet>
            <BoundPropertyBool Name="horizontal" Value="true" />
            <BoundPropertyStringSet Name="justify">
              <BoundPropertyStringElement Value="MIDDLE" />
            </BoundPropertyStringSet>
            <BoundPropertyBool Name="leftToRight" Value="true" />
            <BoundPropertyFloatSet Name="length" />
            <BoundPropertyFloat Name="maxExtent" Value="0" />
            <BoundPropertyFloatSet Name="outlineColor">
              <BoundPropertyFloatElement Value="0.64705884456634521" />
              <BoundPropertyFloatElement Value="0.64705884456634521" />
              <BoundPropertyFloatElement Value="0.64705884456634521" />
            </BoundPropertyFloatSet>
            <BoundPropertyInt Name="outlineSizeIndex" Value="0" />
            <BoundPropertyFloatSet Name="position">
              <BoundPropertyFloatElement Value="-0.0193939208984375" />
              <BoundPropertyFloatElement Value="-1.4903225898742676" />
              <BoundPropertyFloatElement Value="0.02500000037252903" />
            </BoundPropertyFloatSet>
            <BoundPropertyFloat Name="size" Value="0.80000001192092896" />
            <BoundPropertyStringSet Name="string">
              <BoundPropertyStringElement Value="Skye-sziget" />
            </BoundPropertyStringSet>
            <BoundPropertyString Name="style" Value="Bold" />
            <BoundPropertyFloat Name="transparency" Value="0" />
          </BoundProperties>
        </TextEffect>
      </Effects>
      <Transitions />
      <BoundProperties>
        <BoundPropertyFloatSet Name="diffuseColor">
          <BoundPropertyFloatElement Value="0.75" />
          <BoundPropertyFloatElement Value="1" />
          <BoundPropertyFloatElement Value="0" />
        </BoundPropertyFloatSet>
        <BoundPropertyFloat Name="transparency" Value="1" />
      </BoundProperties>
    </TitleClip>
    <AudioClip extentID="390" gapBefore="16.52943050554029" mediaItemID="107" inTime="1405.0498518666423" outTime="1556.6216764473652" speed="1">
      <Effects>
        <AudioEffect effectTemplateID="AudioFadeEffectTemplate">
          <BoundProperties>
            <BoundPropertyFloat Name="AudioFadeInDuration" Value="2.5" />
            <BoundPropertyFloat Name="AudioFadeOutDuration" Value="5" />
          </BoundProperties>
        </AudioEffect>
      </Effects>
      <Transitions />
      <BoundProperties>
        <BoundPropertyBool Name="Mute" Value="false" />
        <BoundPropertyFloat Name="Volume" Value="0.37647062540054321" />
      </BoundProperties>
    </AudioClip>
    <ImageClip extentID="391" gapBefore="0" mediaItemID="345" duration="2.7000000000000002">
      <Effects>
        <ShaderEffect effectTemplateID="FadeInFromBlackEffectTemplate">
          <BoundProperties />
        </ShaderEffect>
      </Effects>
      <Transitions />
      <BoundProperties>
        <BoundPropertyInt Name="rotateStepNinety" Value="0" />
      </BoundProperties>
    </ImageClip>
    <ImageClip extentID="392" gapBefore="0" mediaItemID="346" duration="2.7000000000000002">
      <Effects />
      <Transitions />
      <BoundProperties>
        <BoundPropertyInt Name="rotateStepNinety" Value="0" />
      </BoundProperties>
    </ImageClip>
    <ImageClip extentID="393" gapBefore="0" mediaItemID="347" duration="2.7000000000000002">
      <Effects />
      <Transitions />
      <BoundProperties>
        <BoundPropertyInt Name="rotateStepNinety" Value="0" />
      </BoundProperties>
    </ImageClip>
    <ImageClip extentID="394" gapBefore="0" mediaItemID="348" duration="2.7000000000000002">
      <Effects />
      <Transitions />
      <BoundProperties>
        <BoundPropertyInt Name="rotateStepNinety" Value="0" />
      </BoundProperties>
    </ImageClip>
    <AudioClip extentID="395" gapBefore="4.0359264390294811" mediaItemID="65" inTime="0" outTime="0" speed="1">
      <Effects />
      <Transitions />
      <BoundProperties>
        <BoundPropertyBool Name="Mute" Value="false" />
        <BoundPropertyFloat Name="Volume" Value="0.49411767721176147" />
      </BoundProperties>
    </AudioClip>
    <AudioClip extentID="396" gapBefore="-1060.3489146000002" mediaItemID="107" inTime="2727.1823556024583" outTime="2793.9299999999998" speed="1">
      <Effects>
        <AudioEffect effectTemplateID="AudioFadeEffectTemplate">
          <BoundProperties>
            <BoundPropertyFloat Name="AudioFadeInDuration" Value="0" />
            <BoundPropertyFloat Name="AudioFadeOutDuration" Value="5" />
          </BoundProperties>
        </AudioEffect>
      </Effects>
      <Transitions />
      <BoundProperties>
        <BoundPropertyBool Name="Mute" Value="false" />
        <BoundPropertyFloat Name="Volume" Value="0.37647062540054321" />
      </BoundProperties>
    </AudioClip>
    <ImageClip extentID="397" gapBefore="0" mediaItemID="411" duration="3">
      <Effects />
      <Transitions />
      <BoundProperties>
        <BoundPropertyInt Name="rotateStepNinety" Value="0" />
      </BoundProperties>
    </ImageClip>
    <ImageClip extentID="398" gapBefore="0" mediaItemID="352" duration="2.7000000000000002">
      <Effects>
        <ShaderEffect effectTemplateID="FadeOutToBlackEffectTemplate">
          <BoundProperties />
        </ShaderEffect>
      </Effects>
      <Transitions />
      <BoundProperties>
        <BoundPropertyInt Name="rotateStepNinety" Value="0" />
      </BoundProperties>
    </ImageClip>
    <VideoClip extentID="399" gapBefore="0" mediaItemID="400" inTime="13.053333033333274" outTime="18.506666066666639" speed="1" stabilizationMode="0">
      <Effects>
        <ShaderEffect effectTemplateID="FadeInFromBlackEffectTemplate">
          <BoundProperties />
        </ShaderEffect>
      </Effects>
      <Transitions />
      <BoundProperties>
        <BoundPropertyBool Name="Mute" Value="false" />
        <BoundPropertyInt Name="rotateStepNinety" Value="0" />
        <BoundPropertyFloat Name="Volume" Value="0" />
      </BoundProperties>
    </VideoClip>
    <VideoClip extentID="400" gapBefore="0" mediaItemID="9" inTime="6.1333333333333258" outTime="15.306666666666644" speed="1" stabilizationMode="0">
      <Effects />
      <Transitions />
      <BoundProperties>
        <BoundPropertyBool Name="Mute" Value="false" />
        <BoundPropertyInt Name="rotateStepNinety" Value="0" />
        <BoundPropertyFloat Name="Volume" Value="0" />
      </BoundProperties>
    </VideoClip>
    <ImageClip extentID="401" gapBefore="0" mediaItemID="330" duration="3">
      <Effects />
      <Transitions />
      <BoundProperties>
        <BoundPropertyInt Name="rotateStepNinety" Value="0" />
      </BoundProperties>
    </ImageClip>
    <VideoClip extentID="402" gapBefore="0" mediaItemID="331" inTime="0" outTime="3.706938844399474" speed="1" stabilizationMode="0">
      <Effects />
      <Transitions />
      <BoundProperties>
        <BoundPropertyBool Name="Mute" Value="false" />
        <BoundPropertyInt Name="rotateStepNinety" Value="0" />
        <BoundPropertyFloat Name="Volume" Value="0" />
      </BoundProperties>
    </VideoClip>
    <TitleClip extentID="403" gapBefore="0" duration="1">
      <Effects />
      <Transitions />
      <BoundProperties>
        <BoundPropertyFloatSet Name="diffuseColor">
          <BoundPropertyFloatElement Value="0" />
          <BoundPropertyFloatElement Value="0" />
          <BoundPropertyFloatElement Value="0" />
        </BoundPropertyFloatSet>
        <BoundPropertyFloat Name="transparency" Value="0" />
      </BoundProperties>
    </TitleClip>
    <AudioClip extentID="406" gapBefore="0.079695002749303967" mediaItemID="109" inTime="0" outTime="63.033333333333303" speed="1">
      <Effects>
        <AudioEffect effectTemplateID="AudioFadeEffectTemplate">
          <BoundProperties>
            <BoundPropertyFloat Name="AudioFadeInDuration" Value="0" />
            <BoundPropertyFloat Name="AudioFadeOutDuration" Value="5" />
          </BoundProperties>
        </AudioEffect>
      </Effects>
      <Transitions />
      <BoundProperties>
        <BoundPropertyBool Name="Mute" Value="false" />
        <BoundPropertyFloat Name="Volume" Value="1.301960825920105" />
      </BoundProperties>
    </AudioClip>
    <VideoClip extentID="408" gapBefore="0" mediaItemID="402" inTime="6.2999999999997272" outTime="8.6860831545748169" speed="0.59999999999999998" stabilizationMode="0">
      <Effects />
      <Transitions />
      <BoundProperties>
        <BoundPropertyBool Name="Mute" Value="false" />
        <BoundPropertyInt Name="rotateStepNinety" Value="0" />
        <BoundPropertyFloat Name="Volume" Value="0" />
      </BoundProperties>
    </VideoClip>
    <VideoClip extentID="409" gapBefore="0" mediaItemID="408" inTime="120.95333333333292" outTime="135.76000000000022" speed="1.25" stabilizationMode="0">
      <Effects />
      <Transitions>
        <ShapeEffect effectTemplateID="CrossfadeTransitionTemplate" duration="1.5">
          <BoundProperties />
        </ShapeEffect>
      </Transitions>
      <BoundProperties>
        <BoundPropertyBool Name="Mute" Value="false" />
        <BoundPropertyInt Name="rotateStepNinety" Value="3" />
        <BoundPropertyFloat Name="Volume" Value="0" />
      </BoundProperties>
    </VideoClip>
    <AudioClip extentID="410" gapBefore="1.0999999999999091" mediaItemID="118" inTime="0" outTime="8.9100000000000001" speed="1">
      <Effects />
      <Transitions />
      <BoundProperties>
        <BoundPropertyBool Name="Mute" Value="false" />
        <BoundPropertyFloat Name="Volume" Value="0.61176472902297974" />
      </BoundProperties>
    </AudioClip>
    <VideoClip extentID="411" gapBefore="0" mediaItemID="365" inTime="0" outTime="4.4022249222325627" speed="1" stabilizationMode="0">
      <Effects />
      <Transitions />
      <BoundProperties>
        <BoundPropertyBool Name="Mute" Value="false" />
        <BoundPropertyInt Name="rotateStepNinety" Value="0" />
        <BoundPropertyFloat Name="Volume" Value="0" />
      </BoundProperties>
    </VideoClip>
    <AudioClip extentID="412" gapBefore="8.568854501237638" mediaItemID="106" inTime="0" outTime="0" speed="1">
      <Effects />
      <Transitions />
      <BoundProperties>
        <BoundPropertyBool Name="Mute" Value="false" />
        <BoundPropertyFloat Name="Volume" Value="1" />
      </BoundProperties>
    </AudioClip>
    <AudioClip extentID="414" gapBefore="0" mediaItemID="118" inTime="0" outTime="92.212166600000003" speed="1">
      <Effects />
      <Transitions />
      <BoundProperties>
        <BoundPropertyBool Name="Mute" Value="false" />
        <BoundPropertyFloat Name="Volume" Value="0.52549022436141968" />
      </BoundProperties>
    </AudioClip>
    <ImageClip extentID="417" gapBefore="0" mediaItemID="28" duration="4">
      <Effects />
      <Transitions />
      <BoundProperties>
        <BoundPropertyInt Name="rotateStepNinety" Value="0" />
      </BoundProperties>
    </ImageClip>
    <VideoClip extentID="418" gapBefore="0" mediaItemID="342" inTime="0" outTime="6.0999999999994543" speed="1" stabilizationMode="0">
      <Effects />
      <Transitions />
      <BoundProperties>
        <BoundPropertyBool Name="Mute" Value="false" />
        <BoundPropertyInt Name="rotateStepNinety" Value="0" />
        <BoundPropertyFloat Name="Volume" Value="0" />
      </BoundProperties>
    </VideoClip>
    <ImageClip extentID="420" gapBefore="0" mediaItemID="374" duration="2.7999999999999998">
      <Effects />
      <Transitions>
        <ShapeEffect effectTemplateID="CrossfadeTransitionTemplate" duration="1.5">
          <BoundProperties />
        </ShapeEffect>
      </Transitions>
      <BoundProperties>
        <BoundPropertyInt Name="rotateStepNinety" Value="0" />
      </BoundProperties>
    </ImageClip>
    <ImageClip extentID="423" gapBefore="0" mediaItemID="377" duration="2.7999999999999998">
      <Effects>
        <ShaderEffect effectTemplateID="FadeOutToBlackEffectTemplate">
          <BoundProperties />
        </ShaderEffect>
      </Effects>
      <Transitions>
        <ShapeEffect effectTemplateID="CrossfadeTransitionTemplate" duration="1.5">
          <BoundProperties />
        </ShapeEffect>
      </Transitions>
      <BoundProperties>
        <BoundPropertyInt Name="rotateStepNinety" Value="0" />
      </BoundProperties>
    </ImageClip>
    <VideoClip extentID="424" gapBefore="0" mediaItemID="408" inTime="263.53333333333285" outTime="0" speed="1" stabilizationMode="0">
      <Effects />
      <Transitions />
      <BoundProperties>
        <BoundPropertyBool Name="Mute" Value="false" />
        <BoundPropertyInt Name="rotateStepNinety" Value="3" />
        <BoundPropertyFloat Name="Volume" Value="1" />
      </BoundProperties>
    </VideoClip>
    <ImageClip extentID="425" gapBefore="0" mediaItemID="287" duration="3">
      <Effects>
        <ShaderEffect effectTemplateID="FadeInFromBlackEffectTemplate">
          <BoundProperties />
        </ShaderEffect>
      </Effects>
      <Transitions />
      <BoundProperties>
        <BoundPropertyInt Name="rotateStepNinety" Value="0" />
      </BoundProperties>
    </ImageClip>
    <VideoClip extentID="426" gapBefore="0" mediaItemID="13" inTime="17.539999999999765" outTime="22.759999999999081" speed="1" stabilizationMode="0">
      <Effects />
      <Transitions />
      <BoundProperties>
        <BoundPropertyBool Name="Mute" Value="false" />
        <BoundPropertyInt Name="rotateStepNinety" Value="0" />
        <BoundPropertyFloat Name="Volume" Value="0" />
      </BoundProperties>
    </VideoClip>
    <VideoClip extentID="429" gapBefore="0" mediaItemID="407" inTime="4.8866666666654055" outTime="17.326666666664778" speed="1" stabilizationMode="0">
      <Effects />
      <Transitions />
      <BoundProperties>
        <BoundPropertyBool Name="Mute" Value="false" />
        <BoundPropertyInt Name="rotateStepNinety" Value="0" />
        <BoundPropertyFloat Name="Volume" Value="0" />
      </BoundProperties>
    </VideoClip>
    <VideoClip extentID="430" gapBefore="0" mediaItemID="13" inTime="3.8133333333329347" outTime="8.6000000000000796" speed="1" stabilizationMode="0">
      <Effects />
      <Transitions />
      <BoundProperties>
        <BoundPropertyBool Name="Mute" Value="false" />
        <BoundPropertyInt Name="rotateStepNinety" Value="1" />
        <BoundPropertyFloat Name="Volume" Value="0" />
      </BoundProperties>
    </VideoClip>
    <VideoClip extentID="432" gapBefore="0" mediaItemID="408" inTime="61.399999999997817" outTime="76.69591541535442" speed="1.25" stabilizationMode="0">
      <Effects />
      <Transitions />
      <BoundProperties>
        <BoundPropertyBool Name="Mute" Value="false" />
        <BoundPropertyInt Name="rotateStepNinety" Value="3" />
        <BoundPropertyFloat Name="Volume" Value="0" />
      </BoundProperties>
    </VideoClip>
    <VideoClip extentID="434" gapBefore="0" mediaItemID="409" inTime="21.913333333329319" outTime="32.458502399988447" speed="1.1499999999999999" stabilizationMode="0">
      <Effects>
        <ShaderEffect effectTemplateID="FadeInFromBlackEffectTemplate">
          <BoundProperties />
        </ShaderEffect>
      </Effects>
      <Transitions />
      <BoundProperties>
        <BoundPropertyBool Name="Mute" Value="false" />
        <BoundPropertyInt Name="rotateStepNinety" Value="0" />
        <BoundPropertyFloat Name="Volume" Value="0" />
      </BoundProperties>
    </VideoClip>
    <TitleClip extentID="437" gapBefore="0" duration="1">
      <Effects />
      <Transitions />
      <BoundProperties>
        <BoundPropertyFloatSet Name="diffuseColor">
          <BoundPropertyFloatElement Value="0" />
          <BoundPropertyFloatElement Value="0" />
          <BoundPropertyFloatElement Value="0" />
        </BoundPropertyFloatSet>
        <BoundPropertyFloat Name="transparency" Value="0" />
      </BoundProperties>
    </TitleClip>
    <VideoClip extentID="441" gapBefore="0" mediaItemID="13" inTime="32.693333333332419" outTime="49.928888888887997" speed="1" stabilizationMode="0">
      <Effects />
      <Transitions />
      <BoundProperties>
        <BoundPropertyBool Name="Mute" Value="false" />
        <BoundPropertyInt Name="rotateStepNinety" Value="0" />
        <BoundPropertyFloat Name="Volume" Value="0" />
      </BoundProperties>
    </VideoClip>
    <VideoClip extentID="442" gapBefore="0" mediaItemID="409" inTime="64.593333333325063" outTime="70.82831154241444" speed="1" stabilizationMode="0">
      <Effects />
      <Transitions>
        <ShapeEffect effectTemplateID="CrossfadeTransitionTemplate" duration="1.5">
          <BoundProperties />
        </ShapeEffect>
      </Transitions>
      <BoundProperties>
        <BoundPropertyBool Name="Mute" Value="false" />
        <BoundPropertyInt Name="rotateStepNinety" Value="0" />
        <BoundPropertyFloat Name="Volume" Value="0" />
      </BoundProperties>
    </VideoClip>
    <ImageClip extentID="443" gapBefore="0" mediaItemID="293" duration="3">
      <Effects />
      <Transitions />
      <BoundProperties>
        <BoundPropertyInt Name="rotateStepNinety" Value="0" />
      </BoundProperties>
    </ImageClip>
    <ImageClip extentID="445" gapBefore="0" mediaItemID="299" duration="3">
      <Effects />
      <Transitions />
      <BoundProperties>
        <BoundPropertyInt Name="rotateStepNinety" Value="0" />
      </BoundProperties>
    </ImageClip>
    <VideoClip extentID="446" gapBefore="0" mediaItemID="273" inTime="6.6933333333331575" outTime="11.059999999999718" speed="1" stabilizationMode="0">
      <Effects />
      <Transitions />
      <BoundProperties>
        <BoundPropertyBool Name="Mute" Value="false" />
        <BoundPropertyInt Name="rotateStepNinety" Value="0" />
        <BoundPropertyFloat Name="Volume" Value="0" />
      </BoundProperties>
    </VideoClip>
    <ImageClip extentID="447" gapBefore="0" mediaItemID="302" duration="3">
      <Effects />
      <Transitions />
      <BoundProperties>
        <BoundPropertyInt Name="rotateStepNinety" Value="0" />
      </BoundProperties>
    </ImageClip>
    <VideoClip extentID="448" gapBefore="0" mediaItemID="275" inTime="6.3333333333334849" outTime="11.866666666667015" speed="1" stabilizationMode="0">
      <Effects />
      <Transitions />
      <BoundProperties>
        <BoundPropertyBool Name="Mute" Value="false" />
        <BoundPropertyInt Name="rotateStepNinety" Value="0" />
        <BoundPropertyFloat Name="Volume" Value="0" />
      </BoundProperties>
    </VideoClip>
    <ImageClip extentID="450" gapBefore="0" mediaItemID="318" duration="3">
      <Effects />
      <Transitions />
      <BoundProperties>
        <BoundPropertyInt Name="rotateStepNinety" Value="0" />
      </BoundProperties>
    </ImageClip>
    <VideoClip extentID="451" gapBefore="0" mediaItemID="280" inTime="21.066666666667061" outTime="0" speed="1" stabilizationMode="0">
      <Effects />
      <Transitions />
      <BoundProperties>
        <BoundPropertyBool Name="Mute" Value="false" />
        <BoundPropertyInt Name="rotateStepNinety" Value="0" />
        <BoundPropertyFloat Name="Volume" Value="0" />
      </BoundProperties>
    </VideoClip>
    <ImageClip extentID="452" gapBefore="0" mediaItemID="323" duration="3">
      <Effects />
      <Transitions />
      <BoundProperties>
        <BoundPropertyInt Name="rotateStepNinety" Value="0" />
      </BoundProperties>
    </ImageClip>
    <ImageClip extentID="455" gapBefore="0" mediaItemID="329" duration="3">
      <Effects />
      <Transitions />
      <BoundProperties>
        <BoundPropertyInt Name="rotateStepNinety" Value="0" />
      </BoundProperties>
    </ImageClip>
    <VideoClip extentID="456" gapBefore="0" mediaItemID="387" inTime="0" outTime="6.6000000000001364" speed="1" stabilizationMode="0">
      <Effects />
      <Transitions />
      <BoundProperties>
        <BoundPropertyBool Name="Mute" Value="false" />
        <BoundPropertyInt Name="rotateStepNinety" Value="0" />
        <BoundPropertyFloat Name="Volume" Value="0" />
      </BoundProperties>
    </VideoClip>
    <VideoClip extentID="459" gapBefore="0" mediaItemID="332" inTime="8.9666663666666864" outTime="26.099999399999888" speed="1" stabilizationMode="0">
      <Effects />
      <Transitions />
      <BoundProperties>
        <BoundPropertyBool Name="Mute" Value="false" />
        <BoundPropertyInt Name="rotateStepNinety" Value="0" />
        <BoundPropertyFloat Name="Volume" Value="0" />
      </BoundProperties>
    </VideoClip>
    <VideoClip extentID="464" gapBefore="0" mediaItemID="298" inTime="31.700000000000728" outTime="40.233333033333565" speed="1" stabilizationMode="0">
      <Effects>
        <ShaderEffect effectTemplateID="FadeInFromBlackEffectTemplate">
          <BoundProperties />
        </ShaderEffect>
      </Effects>
      <Transitions />
      <BoundProperties>
        <BoundPropertyBool Name="Mute" Value="false" />
        <BoundPropertyInt Name="rotateStepNinety" Value="0" />
        <BoundPropertyFloat Name="Volume" Value="0" />
      </BoundProperties>
    </VideoClip>
    <ImageClip extentID="466" gapBefore="0" mediaItemID="335" duration="7">
      <Effects />
      <Transitions />
      <BoundProperties>
        <BoundPropertyInt Name="rotateStepNinety" Value="0" />
      </BoundProperties>
    </ImageClip>
    <VideoClip extentID="470" gapBefore="0" mediaItemID="301" inTime="21.200000000000273" outTime="72.400000000000091" speed="1" stabilizationMode="0">
      <Effects />
      <Transitions />
      <BoundProperties>
        <BoundPropertyBool Name="Mute" Value="false" />
        <BoundPropertyInt Name="rotateStepNinety" Value="0" />
        <BoundPropertyFloat Name="Volume" Value="0" />
      </BoundProperties>
    </VideoClip>
    <VideoClip extentID="473" gapBefore="0" mediaItemID="384" inTime="98.742583933333663" outTime="110.69850120000001" speed="0.90000000000000002" stabilizationMode="0">
      <Effects />
      <Transitions />
      <BoundProperties>
        <BoundPropertyBool Name="Mute" Value="false" />
        <BoundPropertyInt Name="rotateStepNinety" Value="0" />
        <BoundPropertyFloat Name="Volume" Value="0" />
      </BoundProperties>
    </VideoClip>
    <VideoClip extentID="474" gapBefore="0" mediaItemID="321" inTime="7.566666666666606" outTime="0" speed="1" stabilizationMode="0">
      <Effects />
      <Transitions />
      <BoundProperties>
        <BoundPropertyBool Name="Mute" Value="false" />
        <BoundPropertyInt Name="rotateStepNinety" Value="0" />
        <BoundPropertyFloat Name="Volume" Value="1" />
      </BoundProperties>
    </VideoClip>
    <VideoClip extentID="475" gapBefore="0" mediaItemID="391" inTime="50.654832133334367" outTime="53.969662466644877" speed="1" stabilizationMode="0">
      <Effects />
      <Transitions />
      <BoundProperties>
        <BoundPropertyBool Name="Mute" Value="false" />
        <BoundPropertyInt Name="rotateStepNinety" Value="0" />
        <BoundPropertyFloat Name="Volume" Value="0" />
      </BoundProperties>
    </VideoClip>
    <VideoClip extentID="476" gapBefore="0" mediaItemID="321" inTime="5.7333333333331211" outTime="17.127074933265249" speed="1" stabilizationMode="0">
      <Effects />
      <Transitions />
      <BoundProperties>
        <BoundPropertyBool Name="Mute" Value="false" />
        <BoundPropertyInt Name="rotateStepNinety" Value="0" />
        <BoundPropertyFloat Name="Volume" Value="0" />
      </BoundProperties>
    </VideoClip>
    <VideoClip extentID="490" gapBefore="0" mediaItemID="384" inTime="112.39850119999937" outTime="0" speed="1" stabilizationMode="0">
      <Effects />
      <Transitions />
      <BoundProperties>
        <BoundPropertyBool Name="Mute" Value="false" />
        <BoundPropertyInt Name="rotateStepNinety" Value="0" />
        <BoundPropertyFloat Name="Volume" Value="1" />
      </BoundProperties>
    </VideoClip>
    <VideoClip extentID="491" gapBefore="0" mediaItemID="384" inTime="122.79850119999946" outTime="130.79850119999946" speed="0.80000000000000004" stabilizationMode="0">
      <Effects />
      <Transitions />
      <BoundProperties>
        <BoundPropertyBool Name="Mute" Value="false" />
        <BoundPropertyInt Name="rotateStepNinety" Value="0" />
        <BoundPropertyFloat Name="Volume" Value="0" />
      </BoundProperties>
    </VideoClip>
    <VideoClip extentID="494" gapBefore="0" mediaItemID="384" inTime="152.43183453333222" outTime="162.16516786666534" speed="1" stabilizationMode="0">
      <Effects />
      <Transitions />
      <BoundProperties>
        <BoundPropertyBool Name="Mute" Value="false" />
        <BoundPropertyInt Name="rotateStepNinety" Value="0" />
        <BoundPropertyFloat Name="Volume" Value="0" />
      </BoundProperties>
    </VideoClip>
    <VideoClip extentID="496" gapBefore="0" mediaItemID="384" inTime="197.73183453333195" outTime="203.671834533332" speed="1" stabilizationMode="0">
      <Effects />
      <Transitions />
      <BoundProperties>
        <BoundPropertyBool Name="Mute" Value="false" />
        <BoundPropertyInt Name="rotateStepNinety" Value="0" />
        <BoundPropertyFloat Name="Volume" Value="0" />
      </BoundProperties>
    </VideoClip>
    <VideoClip extentID="498" gapBefore="0" mediaItemID="385" inTime="7.3666666666667879" outTime="14.833333333333485" speed="1" stabilizationMode="0">
      <Effects />
      <Transitions>
        <ShaderEffect effectTemplateID="PageCurlUpLeftTransitionTemplate" duration="1.5">
          <BoundProperties />
        </ShaderEffect>
      </Transitions>
      <BoundProperties>
        <BoundPropertyBool Name="Mute" Value="false" />
        <BoundPropertyInt Name="rotateStepNinety" Value="0" />
        <BoundPropertyFloat Name="Volume" Value="0" />
      </BoundProperties>
    </VideoClip>
    <VideoClip extentID="500" gapBefore="0" mediaItemID="385" inTime="36.733333333333576" outTime="47.66666666666697" speed="1" stabilizationMode="0">
      <Effects />
      <Transitions />
      <BoundProperties>
        <BoundPropertyBool Name="Mute" Value="false" />
        <BoundPropertyInt Name="rotateStepNinety" Value="0" />
        <BoundPropertyFloat Name="Volume" Value="0" />
      </BoundProperties>
    </VideoClip>
    <VideoClip extentID="502" gapBefore="0" mediaItemID="385" inTime="60.533333333333303" outTime="69.233333333332666" speed="1" stabilizationMode="0">
      <Effects />
      <Transitions />
      <BoundProperties>
        <BoundPropertyBool Name="Mute" Value="false" />
        <BoundPropertyInt Name="rotateStepNinety" Value="0" />
        <BoundPropertyFloat Name="Volume" Value="0" />
      </BoundProperties>
    </VideoClip>
    <VideoClip extentID="504" gapBefore="0" mediaItemID="385" inTime="74.83333333333303" outTime="85.747626399565661" speed="1" stabilizationMode="0">
      <Effects />
      <Transitions />
      <BoundProperties>
        <BoundPropertyBool Name="Mute" Value="false" />
        <BoundPropertyInt Name="rotateStepNinety" Value="0" />
        <BoundPropertyFloat Name="Volume" Value="0" />
      </BoundProperties>
    </VideoClip>
    <VideoClip extentID="508" gapBefore="0" mediaItemID="205" inTime="6.3799999999996544" outTime="8.4644451444519291" speed="0.75" stabilizationMode="0">
      <Effects />
      <Transitions />
      <BoundProperties>
        <BoundPropertyBool Name="Mute" Value="false" />
        <BoundPropertyInt Name="rotateStepNinety" Value="0" />
        <BoundPropertyFloat Name="Volume" Value="0" />
      </BoundProperties>
    </VideoClip>
    <VideoClip extentID="509" gapBefore="0" mediaItemID="291" inTime="6.8133333333330484" outTime="10.593333333333248" speed="1" stabilizationMode="0">
      <Effects />
      <Transitions>
        <ShaderEffect effectTemplateID="DiagonalBoxOutTransitionTemplate" duration="1.5">
          <BoundProperties />
        </ShaderEffect>
      </Transitions>
      <BoundProperties>
        <BoundPropertyBool Name="Mute" Value="false" />
        <BoundPropertyInt Name="rotateStepNinety" Value="0" />
        <BoundPropertyFloat Name="Volume" Value="0" />
      </BoundProperties>
    </VideoClip>
    <VideoClip extentID="510" gapBefore="0" mediaItemID="291" inTime="22.759999999999764" outTime="32.799999999999727" speed="1" stabilizationMode="0">
      <Effects>
        <ShaderEffect effectTemplateID="FadeOutToBlackEffectTemplate">
          <BoundProperties />
        </ShaderEffect>
      </Effects>
      <Transitions />
      <BoundProperties>
        <BoundPropertyBool Name="Mute" Value="false" />
        <BoundPropertyInt Name="rotateStepNinety" Value="0" />
        <BoundPropertyFloat Name="Volume" Value="1.7098040580749512" />
      </BoundProperties>
    </VideoClip>
    <VideoClip extentID="514" gapBefore="0" mediaItemID="206" inTime="13.353333333332557" outTime="26.306666666665024" speed="1" stabilizationMode="0">
      <Effects>
        <ShaderEffect effectTemplateID="FadeInFromBlackEffectTemplate">
          <BoundProperties />
        </ShaderEffect>
        <AudioEffect effectTemplateID="AudioFadeEffectTemplate">
          <BoundProperties>
            <BoundPropertyFloat Name="AudioFadeInDuration" Value="5" />
            <BoundPropertyFloat Name="AudioFadeOutDuration" Value="5" />
          </BoundProperties>
        </AudioEffect>
      </Effects>
      <Transitions />
      <BoundProperties>
        <BoundPropertyBool Name="Mute" Value="false" />
        <BoundPropertyInt Name="rotateStepNinety" Value="0" />
        <BoundPropertyFloat Name="Volume" Value="0.63529413938522339" />
      </BoundProperties>
    </VideoClip>
    <VideoClip extentID="518" gapBefore="0" mediaItemID="239" inTime="25.733333333333121" outTime="38.666666666666515" speed="1" stabilizationMode="0">
      <Effects>
        <AudioEffect effectTemplateID="AudioFadeEffectTemplate">
          <BoundProperties>
            <BoundPropertyFloat Name="AudioFadeInDuration" Value="5" />
            <BoundPropertyFloat Name="AudioFadeOutDuration" Value="5" />
          </BoundProperties>
        </AudioEffect>
        <ShaderEffect effectTemplateID="FadeOutToBlackEffectTemplate">
          <BoundProperties />
        </ShaderEffect>
      </Effects>
      <Transitions>
        <ShaderEffect effectTemplateID="InsetUpLeftTransitionTemplate" duration="1.5">
          <BoundProperties />
        </ShaderEffect>
      </Transitions>
      <BoundProperties>
        <BoundPropertyBool Name="Mute" Value="false" />
        <BoundPropertyInt Name="rotateStepNinety" Value="0" />
        <BoundPropertyFloat Name="Volume" Value="0.69803923368453979" />
      </BoundProperties>
    </VideoClip>
    <ExtentSelector extentID="1" gapBefore="0" primaryTrack="true">
      <Effects />
      <Transitions />
      <BoundProperties />
      <ExtentRefs>
        <ExtentRef id="87" />
        <ExtentRef id="339" />
        <ExtentRef id="332" />
        <ExtentRef id="345" />
        <ExtentRef id="164" />
        <ExtentRef id="8" />
        <ExtentRef id="94" />
        <ExtentRef id="97" />
        <ExtentRef id="96" />
        <ExtentRef id="175" />
        <ExtentRef id="139" />
        <ExtentRef id="372" />
        <ExtentRef id="115" />
        <ExtentRef id="362" />
        <ExtentRef id="111" />
        <ExtentRef id="105" />
        <ExtentRef id="116" />
        <ExtentRef id="11" />
        <ExtentRef id="112" />
        <ExtentRef id="107" />
        <ExtentRef id="106" />
        <ExtentRef id="108" />
        <ExtentRef id="109" />
        <ExtentRef id="400" />
        <ExtentRef id="203" />
        <ExtentRef id="417" />
        <ExtentRef id="83" />
        <ExtentRef id="84" />
        <ExtentRef id="86" />
        <ExtentRef id="16" />
        <ExtentRef id="207" />
        <ExtentRef id="44" />
        <ExtentRef id="82" />
        <ExtentRef id="430" />
        <ExtentRef id="426" />
        <ExtentRef id="441" />
        <ExtentRef id="223" />
        <ExtentRef id="67" />
        <ExtentRef id="70" />
        <ExtentRef id="72" />
        <ExtentRef id="74" />
        <ExtentRef id="75" />
        <ExtentRef id="66" />
        <ExtentRef id="68" />
        <ExtentRef id="77" />
        <ExtentRef id="76" />
        <ExtentRef id="71" />
        <ExtentRef id="14" />
        <ExtentRef id="13" />
        <ExtentRef id="38" />
        <ExtentRef id="80" />
        <ExtentRef id="90" />
        <ExtentRef id="40" />
        <ExtentRef id="39" />
        <ExtentRef id="42" />
        <ExtentRef id="6" />
        <ExtentRef id="308" />
        <ExtentRef id="12" />
        <ExtentRef id="268" />
        <ExtentRef id="644" />
        <ExtentRef id="18" />
        <ExtentRef id="20" />
        <ExtentRef id="46" />
        <ExtentRef id="648" />
        <ExtentRef id="28" />
        <ExtentRef id="29" />
        <ExtentRef id="651" />
        <ExtentRef id="64" />
        <ExtentRef id="26" />
        <ExtentRef id="59" />
        <ExtentRef id="43" />
        <ExtentRef id="49" />
        <ExtentRef id="65" />
        <ExtentRef id="21" />
        <ExtentRef id="35" />
        <ExtentRef id="45" />
        <ExtentRef id="22" />
        <ExtentRef id="78" />
        <ExtentRef id="36" />
        <ExtentRef id="50" />
        <ExtentRef id="149" />
        <ExtentRef id="47" />
        <ExtentRef id="19" />
        <ExtentRef id="99" />
        <ExtentRef id="114" />
        <ExtentRef id="118" />
        <ExtentRef id="100" />
        <ExtentRef id="126" />
        <ExtentRef id="24" />
        <ExtentRef id="124" />
        <ExtentRef id="132" />
        <ExtentRef id="133" />
        <ExtentRef id="137" />
        <ExtentRef id="138" />
        <ExtentRef id="143" />
        <ExtentRef id="146" />
        <ExtentRef id="147" />
        <ExtentRef id="48" />
        <ExtentRef id="163" />
        <ExtentRef id="152" />
        <ExtentRef id="62" />
        <ExtentRef id="73" />
        <ExtentRef id="63" />
        <ExtentRef id="170" />
        <ExtentRef id="172" />
        <ExtentRef id="176" />
        <ExtentRef id="177" />
        <ExtentRef id="181" />
        <ExtentRef id="178" />
        <ExtentRef id="79" />
        <ExtentRef id="101" />
        <ExtentRef id="208" />
        <ExtentRef id="110" />
        <ExtentRef id="192" />
        <ExtentRef id="191" />
        <ExtentRef id="195" />
        <ExtentRef id="202" />
        <ExtentRef id="196" />
        <ExtentRef id="200" />
        <ExtentRef id="198" />
        <ExtentRef id="197" />
        <ExtentRef id="205" />
        <ExtentRef id="206" />
        <ExtentRef id="193" />
        <ExtentRef id="215" />
        <ExtentRef id="213" />
        <ExtentRef id="187" />
        <ExtentRef id="212" />
        <ExtentRef id="220" />
        <ExtentRef id="219" />
        <ExtentRef id="217" />
        <ExtentRef id="221" />
        <ExtentRef id="280" />
        <ExtentRef id="15" />
        <ExtentRef id="140" />
        <ExtentRef id="134" />
        <ExtentRef id="135" />
        <ExtentRef id="25" />
        <ExtentRef id="113" />
        <ExtentRef id="282" />
        <ExtentRef id="31" />
        <ExtentRef id="142" />
        <ExtentRef id="166" />
        <ExtentRef id="154" />
        <ExtentRef id="161" />
        <ExtentRef id="27" />
        <ExtentRef id="183" />
        <ExtentRef id="199" />
        <ExtentRef id="214" />
        <ExtentRef id="225" />
        <ExtentRef id="227" />
        <ExtentRef id="232" />
        <ExtentRef id="236" />
        <ExtentRef id="235" />
        <ExtentRef id="244" />
        <ExtentRef id="242" />
        <ExtentRef id="57" />
        <ExtentRef id="256" />
        <ExtentRef id="258" />
        <ExtentRef id="259" />
        <ExtentRef id="261" />
        <ExtentRef id="85" />
        <ExtentRef id="61" />
        <ExtentRef id="263" />
        <ExtentRef id="276" />
        <ExtentRef id="272" />
        <ExtentRef id="273" />
        <ExtentRef id="269" />
        <ExtentRef id="23" />
        <ExtentRef id="254" />
        <ExtentRef id="131" />
        <ExtentRef id="136" />
        <ExtentRef id="319" />
        <ExtentRef id="41" />
        <ExtentRef id="226" />
        <ExtentRef id="54" />
        <ExtentRef id="129" />
        <ExtentRef id="251" />
        <ExtentRef id="255" />
        <ExtentRef id="148" />
        <ExtentRef id="257" />
        <ExtentRef id="266" />
        <ExtentRef id="270" />
        <ExtentRef id="286" />
        <ExtentRef id="287" />
        <ExtentRef id="234" />
        <ExtentRef id="290" />
        <ExtentRef id="130" />
        <ExtentRef id="249" />
        <ExtentRef id="292" />
        <ExtentRef id="294" />
        <ExtentRef id="56" />
        <ExtentRef id="297" />
        <ExtentRef id="295" />
        <ExtentRef id="298" />
        <ExtentRef id="5" />
        <ExtentRef id="306" />
        <ExtentRef id="103" />
        <ExtentRef id="252" />
        <ExtentRef id="437" />
        <ExtentRef id="171" />
        <ExtentRef id="169" />
        <ExtentRef id="278" />
        <ExtentRef id="151" />
        <ExtentRef id="145" />
        <ExtentRef id="158" />
        <ExtentRef id="155" />
        <ExtentRef id="153" />
        <ExtentRef id="446" />
        <ExtentRef id="448" />
        <ExtentRef id="451" />
        <ExtentRef id="324" />
        <ExtentRef id="331" />
        <ExtentRef id="168" />
        <ExtentRef id="340" />
        <ExtentRef id="167" />
        <ExtentRef id="351" />
        <ExtentRef id="352" />
        <ExtentRef id="353" />
        <ExtentRef id="239" />
        <ExtentRef id="246" />
        <ExtentRef id="240" />
        <ExtentRef id="356" />
        <ExtentRef id="361" />
        <ExtentRef id="360" />
        <ExtentRef id="382" />
        <ExtentRef id="371" />
        <ExtentRef id="368" />
        <ExtentRef id="374" />
        <ExtentRef id="150" />
        <ExtentRef id="391" />
        <ExtentRef id="392" />
        <ExtentRef id="393" />
        <ExtentRef id="394" />
        <ExtentRef id="398" />
        <ExtentRef id="185" />
        <ExtentRef id="222" />
        <ExtentRef id="307" />
        <ExtentRef id="194" />
        <ExtentRef id="411" />
        <ExtentRef id="162" />
        <ExtentRef id="190" />
        <ExtentRef id="179" />
        <ExtentRef id="313" />
        <ExtentRef id="311" />
        <ExtentRef id="420" />
        <ExtentRef id="423" />
        <ExtentRef id="53" />
        <ExtentRef id="348" />
        <ExtentRef id="354" />
        <ExtentRef id="508" />
        <ExtentRef id="370" />
        <ExtentRef id="342" />
        <ExtentRef id="509" />
        <ExtentRef id="510" />
        <ExtentRef id="514" />
        <ExtentRef id="364" />
        <ExtentRef id="518" />
        <ExtentRef id="347" />
        <ExtentRef id="346" />
        <ExtentRef id="464" />
        <ExtentRef id="470" />
        <ExtentRef id="496" />
        <ExtentRef id="284" />
        <ExtentRef id="55" />
        <ExtentRef id="60" />
        <ExtentRef id="475" />
        <ExtentRef id="210" />
        <ExtentRef id="473" />
        <ExtentRef id="491" />
        <ExtentRef id="494" />
        <ExtentRef id="545" />
        <ExtentRef id="387" />
        <ExtentRef id="476" />
        <ExtentRef id="247" />
        <ExtentRef id="401" />
        <ExtentRef id="262" />
        <ExtentRef id="402" />
        <ExtentRef id="264" />
        <ExtentRef id="418" />
        <ExtentRef id="498" />
        <ExtentRef id="500" />
        <ExtentRef id="502" />
        <ExtentRef id="504" />
        <ExtentRef id="456" />
        <ExtentRef id="296" />
        <ExtentRef id="299" />
        <ExtentRef id="271" />
        <ExtentRef id="302" />
        <ExtentRef id="533" />
        <ExtentRef id="535" />
        <ExtentRef id="326" />
        <ExtentRef id="304" />
        <ExtentRef id="403" />
        <ExtentRef id="547" />
        <ExtentRef id="300" />
        <ExtentRef id="343" />
        <ExtentRef id="337" />
        <ExtentRef id="425" />
        <ExtentRef id="459" />
        <ExtentRef id="455" />
        <ExtentRef id="369" />
        <ExtentRef id="349" />
        <ExtentRef id="367" />
        <ExtentRef id="363" />
        <ExtentRef id="359" />
        <ExtentRef id="450" />
        <ExtentRef id="443" />
        <ExtentRef id="445" />
        <ExtentRef id="466" />
        <ExtentRef id="452" />
        <ExtentRef id="447" />
        <ExtentRef id="397" />
        <ExtentRef id="81" />
        <ExtentRef id="399" />
        <ExtentRef id="408" />
        <ExtentRef id="320" />
        <ExtentRef id="383" />
        <ExtentRef id="355" />
        <ExtentRef id="388" />
        <ExtentRef id="429" />
        <ExtentRef id="432" />
        <ExtentRef id="322" />
        <ExtentRef id="409" />
        <ExtentRef id="95" />
        <ExtentRef id="98" />
        <ExtentRef id="434" />
        <ExtentRef id="442" />
        <ExtentRef id="335" />
        <ExtentRef id="341" />
        <ExtentRef id="336" />
      </ExtentRefs>
    </ExtentSelector>
    <ExtentSelector extentID="2" gapBefore="0" primaryTrack="false">
      <Effects />
      <Transitions />
      <BoundProperties />
      <ExtentRefs>
        <ExtentRef id="88" />
        <ExtentRef id="330" />
        <ExtentRef id="334" />
        <ExtentRef id="333" />
        <ExtentRef id="186" />
        <ExtentRef id="328" />
        <ExtentRef id="377" />
        <ExtentRef id="309" />
        <ExtentRef id="379" />
        <ExtentRef id="390" />
        <ExtentRef id="228" />
        <ExtentRef id="327" />
        <ExtentRef id="366" />
        <ExtentRef id="376" />
        <ExtentRef id="381" />
        <ExtentRef id="386" />
        <ExtentRef id="384" />
        <ExtentRef id="396" />
        <ExtentRef id="406" />
        <ExtentRef id="410" />
        <ExtentRef id="414" />
        <ExtentRef id="248" />
        <ExtentRef id="91" />
      </ExtentRefs>
    </ExtentSelector>
    <ExtentSelector extentID="3" gapBefore="0" primaryTrack="false">
      <Effects />
      <Transitions />
      <BoundProperties />
      <ExtentRefs>
        <ExtentRef id="69" />
        <ExtentRef id="144" />
        <ExtentRef id="102" />
        <ExtentRef id="156" />
        <ExtentRef id="182" />
        <ExtentRef id="189" />
        <ExtentRef id="204" />
        <ExtentRef id="211" />
        <ExtentRef id="218" />
        <ExtentRef id="229" />
        <ExtentRef id="243" />
        <ExtentRef id="245" />
        <ExtentRef id="267" />
        <ExtentRef id="253" />
        <ExtentRef id="310" />
        <ExtentRef id="285" />
        <ExtentRef id="10" />
        <ExtentRef id="293" />
        <ExtentRef id="291" />
        <ExtentRef id="305" />
        <ExtentRef id="301" />
        <ExtentRef id="17" />
        <ExtentRef id="34" />
        <ExtentRef id="127" />
        <ExtentRef id="52" />
        <ExtentRef id="159" />
        <ExtentRef id="184" />
        <ExtentRef id="216" />
        <ExtentRef id="51" />
        <ExtentRef id="104" />
        <ExtentRef id="119" />
        <ExtentRef id="188" />
        <ExtentRef id="230" />
        <ExtentRef id="237" />
        <ExtentRef id="233" />
        <ExtentRef id="279" />
        <ExtentRef id="283" />
        <ExtentRef id="395" />
        <ExtentRef id="9" />
        <ExtentRef id="238" />
        <ExtentRef id="121" />
        <ExtentRef id="180" />
        <ExtentRef id="317" />
        <ExtentRef id="201" />
        <ExtentRef id="209" />
        <ExtentRef id="128" />
        <ExtentRef id="165" />
        <ExtentRef id="288" />
        <ExtentRef id="289" />
        <ExtentRef id="316" />
        <ExtentRef id="323" />
        <ExtentRef id="93" />
        <ExtentRef id="378" />
        <ExtentRef id="125" />
        <ExtentRef id="174" />
        <ExtentRef id="241" />
        <ExtentRef id="315" />
        <ExtentRef id="250" />
        <ExtentRef id="265" />
        <ExtentRef id="312" />
        <ExtentRef id="303" />
        <ExtentRef id="344" />
        <ExtentRef id="412" />
      </ExtentRefs>
    </ExtentSelector>
    <ExtentSelector extentID="4" gapBefore="0" primaryTrack="false">
      <Effects />
      <Transitions />
      <BoundProperties />
      <ExtentRefs>
        <ExtentRef id="329" />
        <ExtentRef id="373" />
        <ExtentRef id="7" />
        <ExtentRef id="30" />
        <ExtentRef id="89" />
        <ExtentRef id="92" />
        <ExtentRef id="281" />
        <ExtentRef id="37" />
        <ExtentRef id="380" />
        <ExtentRef id="389" />
        <ExtentRef id="123" />
        <ExtentRef id="160" />
        <ExtentRef id="117" />
        <ExtentRef id="173" />
        <ExtentRef id="157" />
        <ExtentRef id="274" />
        <ExtentRef id="58" />
        <ExtentRef id="365" />
        <ExtentRef id="318" />
        <ExtentRef id="314" />
        <ExtentRef id="357" />
        <ExtentRef id="358" />
        <ExtentRef id="122" />
      </ExtentRefs>
    </ExtentSelector>
  </Extents>
  <BoundPlaceholders>
    <BoundPlaceholder placeholderID="SingleExtentView" extentID="0" />
    <BoundPlaceholder placeholderID="Main" extentID="1" />
    <BoundPlaceholder placeholderID="SoundTrack" extentID="2" />
    <BoundPlaceholder placeholderID="Narration" extentID="3" />
    <BoundPlaceholder placeholderID="Text" extentID="4" />
  </BoundPlaceholders>
  <BoundProperties>
    <BoundPropertyFloatSet Name="AspectRatio">
      <BoundPropertyFloatElement Value="1.7777776718139648" />
    </BoundPropertyFloatSet>
    <BoundPropertyFloat Name="DuckedNarrationAndSoundTrackMix" Value="0.5" />
    <BoundPropertyFloat Name="DuckedVideoAndNarrationMix" Value="0.5" />
    <BoundPropertyFloat Name="DuckedVideoAndSoundTrackMix" Value="0.5" />
    <BoundPropertyFloat Name="SoundTrackMix" Value="0.5" />
  </BoundProperties>
  <ThemeOperationLog themeID="0">
    <MonolithicThemeOperations />
  </ThemeOperationLog>
  <AudioDuckingProperties emphasisPlaceholderID="Narration" />
</Project>